<?xml version="1.0" encoding="utf-8"?>
<!-- Generator: Adobe Illustrator 25.1.0, SVG Export Plug-In . SVG Version: 6.00 Build 0)  -->
<svg version="1.1" id="Layer_1" xmlns="http://www.w3.org/2000/svg" xmlns:xlink="http://www.w3.org/1999/xlink" x="0px" y="0px"
	 viewBox="0 0 563.6 564.2" style="enable-background:new 0 0 563.6 564.2;" xml:space="preserve">
	<defs>
		<linearGradient id="gradient" x1="0%" y1="0%" x2="100%" y2="0%">
  <stop offset="0%" stop-color="#929292" />
  <stop offset="70%" stop-color="#d47e30" />
  <stop offset="100%" stop-color="#c68346" />
</linearGradient>
	</defs>
<g fill="url(#gradient)">
	<path d="M94,397.8c-0.9-1.5-1.5-2.6-2.1-3.7c-10.6-18-18.4-37.1-23.7-57.2c-0.2-0.9-0.5-1.8-0.8-2.7c-0.2-0.6-0.7-1.1-1.3-1.2
		c-3.3-0.7-6.5-1.4-9.8-2c-10.6-2.1-21.2-4.3-31.8-6.4c-5.5-1.1-10.9-2.2-16.4-3.3c-1.2-0.3-2.5-0.6-3.4-0.8c-1-0.7-1.1-1.6-1.3-2.3
		c-1-5.5-1.8-11-2.4-16.6c-1.1-9.5-1.1-19.1-0.8-28.7c0.2-8.6,1.2-17.2,2.9-25.6c0.2-0.8,0.4-1.5,0.7-2.3c0.1-0.3,0.3-0.5,0.7-1
		c6.8-1.6,13.8-2.9,20.8-4.3c6.9-1.4,13.7-2.9,20.6-4.2c7-1.4,14.1-2.7,20.8-4.3c0.9-0.9,1.1-1.8,1.4-2.8
		c3.6-14.6,8.7-28.6,15.3-42.2c2.8-5.7,5.8-11.3,9.1-16.8c0.6-0.9,1.1-1.9,1.6-2.9c-0.7-1.8-1.8-3.1-2.8-4.6
		c-8.1-12.2-16.2-24.4-24.3-36.6c-2.3-3.5-4.6-6.9-6.9-10.4c-0.5-0.8-1.2-1.5-1.3-2.6c0.5-1.4,1.5-2.7,2.4-4
		c8.1-11.5,17.3-22.1,27.7-31.6c5.6-5.3,11.6-10.3,18-14.8c1.4-1,2.9-1.9,4.4-2.8c0.6-0.3,1.3-0.3,1.8,0c1.2,0.7,2.4,1.5,3.6,2.3
		c15.3,10.1,30.5,20.3,45.8,30.4c1.2,0.8,2.3,1.7,3.7,2.1c5.2-2.8,10.3-5.7,15.5-8.5c5.1-2.7,10.3-5,15.6-7.2
		c5.4-2.2,10.9-4.4,16.6-6.1c5.5-1.7,11-3.3,16.6-4.9c0.2-0.7,0.6-1.4,0.7-2.1c2.6-13,5.2-25.9,7.8-38.9c1.3-6.7,2.7-13.4,4-20.2
		c0.1-0.3,0.1-0.6,0.3-0.9c0.3-0.8,0.8-1.4,1.7-1.5c3.3-0.6,6.6-1.3,9.9-1.7c4.3-0.6,8.5-1,12.8-1.3c4.4-0.3,8.9-0.4,13.4-0.6
		c6.2-0.2,12.4,0.3,18.6,0.7c6.2,0.5,12.4,1.3,18.4,2.7c1.3,0.3,1.9,1,2.1,2.3c1.6,8.1,3.3,16.2,4.9,24.4
		c2.3,11.6,4.6,23.1,6.9,34.7c0.2,0.8,0.5,1.5,0.7,2.2c1.3,0.9,2.7,1.1,4.1,1.5c19.6,5,38.1,12.6,55.5,22.8c1.6,0.9,3.1,2.2,5,2.6
		c1.6-0.5,2.9-1.6,4.2-2.5c15.4-10.2,30.8-20.5,46.2-30.7c3.6-2.4,3.3-2.6,7.1,0c17.2,11.9,32,26.3,44.6,42.9c0.7,0.9,1.3,1.8,2,2.7
		c4.8,7.3,4.8,4.7,0.1,11.8c-9.6,14.6-19.4,29.2-29.1,43.8c-1,1.4-2.1,2.8-2.7,4.6c4,6.7,7.8,13.5,11.1,20.6
		c3.3,6.9,6.2,14,8.8,21.2c2.6,7.3,4.7,14.9,6.8,22.5c1.6,0.4,3.1,0.9,4.7,1.2c17.2,3.5,34.3,6.9,51.5,10.4c2.3,0.5,4.7,0.7,7.1,1.7
		c0.3,1,0.6,2.1,0.8,3.2c3.1,16.4,3.7,32.9,2.7,49.5c-0.4,6.8-1.2,13.6-2.7,20.4c-0.1,0.6-0.3,1.3-0.5,1.9s-0.6,1.1-1.3,1.3
		c-2.5,0.6-5,1.1-7.5,1.7c-10.6,2.2-21.2,4.3-31.8,6.4c-7.2,1.4-14.4,2.9-21.6,4.3c-0.9,0.2-1.4,0.7-1.7,1.5
		c-0.3,0.7-0.5,1.5-0.7,2.3c-5.2,20.4-13.1,39.6-23.8,57.7c-0.6,1.1-1.3,2.2-1.9,3.3c0.3,1.5,1.3,2.6,2.1,3.8
		c8.4,12.6,16.8,25.2,25.1,37.8c2.2,3.3,4.4,6.6,6.6,10c0.5,0.8,1,1.6,1.4,2.2c-0.1,1.5-0.9,2.3-1.5,3.2c-6.1,9-13,17.3-20.6,25.1
		c-7.5,7.7-15.4,14.8-24.1,21.1c-2.3,1.7-4.6,3.4-7,4.6c-1.6,0-2.5-1-3.6-1.7c-9.8-6.5-19.6-13.1-29.5-19.6c-6-4-11.9-7.9-17.9-11.9
		c-0.9-0.6-1.9-1.2-2.9-1.7c-0.4-0.2-1-0.2-1.4,0c-1.3,0.6-2.5,1.4-3.8,2.1c-12,7-24.5,12.9-37.6,17.5c-6.9,2.4-13.9,4.5-21,6.3
		c-0.9,0.2-1.4,0.7-1.7,1.5c-0.2,0.6-0.4,1.2-0.5,1.8c-0.7,3.3-1.3,6.6-2,9.8c-2.1,10.6-4.3,21.2-6.4,31.9
		c-1.1,5.5-2.2,10.9-3.3,16.4c-0.2,0.8-0.5,1.5-0.7,2.2c-3.8,1.2-7.6,1.6-11.4,2.2c-5.4,0.8-10.8,1.2-16.2,1.6
		c-7.5,0.5-15,0.5-22.5,0c-5.2-0.4-10.5-0.7-15.7-1.5c-2.8-0.5-5.6-1-8.4-1.6c-0.6-0.1-1.2-0.4-1.8-0.6c-0.2-0.8-0.5-1.5-0.7-2.3
		c-3.6-17.8-7.1-35.6-10.7-53.4c-0.2-0.9-0.4-1.9-0.6-2.8c-0.3-1.5-0.2-3.3-1.4-4.5c-1-1.1-2.7-1-4-1.3c-20-5.2-38.9-13.1-56.7-23.6
		c-0.3-0.2-0.5-0.3-0.8-0.5c-2.7-1.6-2.7-1.6-5.5,0.3c-15.7,10.4-31.3,20.8-47,31.2c-1.3,0.9-2.5,1.9-4.2,2.5
		c-1-0.6-2.1-1.2-3.2-1.9c-7.6-5.3-14.8-11.1-21.6-17.4c-7.4-6.9-14.2-14.2-20.4-22.1c-2.1-2.6-4-5.4-6-8.1
		c-0.9-1.3-1.7-2.7-2.4-3.8c0.1-1.5,0.9-2.3,1.5-3.2c5.5-8.2,10.9-16.5,16.4-24.7c5-7.6,10.1-15.1,15.1-22.7
		C92.4,400.4,93.1,399.2,94,397.8z M282.1,101.5c-100.8-0.1-180.1,81.7-180.8,179.2c-0.8,97.9,77.9,181.8,180.4,182
		c101.6,0.1,180.9-82.4,180.8-180.6C462.5,183.3,382.5,101.7,282.1,101.5z"/>
	<path d="M146.7,284.7c-0.7-1.7-0.6-2.9-0.4-4.2c0.1-0.6,0.5-1.1,1.2-1.3c1.4-0.3,2.8-0.7,4.2-1c26.7-6.1,53.4-12.3,80.1-18.4
		c3.4-0.8,6.8-1.8,9.9-3.5c10-5.2,16.6-13.2,19.7-24.1c1.1-4,1.9-8.1,2.7-12.1c4.4-21,8.9-42.1,13.3-63.1c0.5-2.2,0.9-4.4,1.3-6.6
		c0.2-0.8,0.4-1.5,0.8-2.2c0.2-0.4,0.7-0.7,1.1-0.8c0.8-0.1,1.6-0.1,2.4-0.1c0.9,0,1.6,0.5,1.8,1.3c0.1,0.5,0.3,0.9,0.4,1.4
		c3.6,17.1,7.2,34.3,10.8,51.4c1.9,9.2,3.9,18.4,5.8,27.6c0.7,3.3,1.6,6.5,3.1,9.5c5.2,10.4,13.3,17.4,24.5,20.5
		c5.2,1.4,10.5,2.5,15.8,3.8c17.4,4,34.8,8,52.1,12c6.1,1.4,12.1,2.8,18.1,4.2c0.5,0.1,0.9,0.2,1.4,0.4c0.3,0.1,0.5,0.4,0.6,0.7
		c0.5,1.2,0.4,2.5,0.1,3.8c-0.1,0.3-0.3,0.7-0.5,0.8c-0.9,0.4-1.8,0.7-2.7,0.9c-7.4,1.7-14.9,3.4-22.4,5.1
		c-15.8,3.6-31.6,7.3-47.5,11c-4.7,1.1-9.3,2.2-14,3.2c-14.6,3.4-25.3,15.2-28.2,28.3c-1.2,5.6-2.4,11.2-3.6,16.8
		c-3.3,15.7-6.6,31.5-9.9,47.2c-1.1,5.5-2.3,10.9-3.5,16.4c-0.2,0.8-0.3,1.6-0.7,2.3c-0.2,0.4-0.6,0.8-1,0.9
		c-0.9,0.1-1.9,0.1-2.9,0.1c-0.7,0-1.2-0.4-1.4-1c-0.3-0.7-0.5-1.5-0.6-2.3c-5.5-26-10.9-52.1-16.4-78.1c-0.8-3.6-1.8-7.1-3.5-10.4
		c-5.3-10.4-13.6-17.1-24.9-20c-9.6-2.4-19.2-4.5-28.8-6.7c-14.6-3.4-29.2-6.7-43.8-10.1c-3.4-0.8-6.8-1.6-10.2-2.4
		C149.6,285.5,148.2,285.1,146.7,284.7z"/>
	<path d="M258.4,147.8c-1.4,0.4-2.7,0.8-4.1,1.1c-46.6,9.5-86.7,44.1-102,91.8c-1.6,4.9-2.9,9.8-3.8,14.8c-0.4,2.1-1.5,3-3.4,3.4
		c-3.6,0.8-7.2,1.6-10.7,2.4c-2.2,0.5-4.3,1-6.5,1.5c-0.8,0.2-1.6,0.2-2.4,0.3c-0.4,0-0.9-0.5-0.9-0.9c0-0.5,0-1,0-1.4
		c3.3-23.7,11.4-45.7,24.7-65.6c22.8-34.1,54.2-56.5,94-66.9c4.8-1.2,9.7-2,14.5-2.9c1.4-0.3,2.9-0.2,4.3-0.3c0.6,0,1.1,0.7,1,1.3
		c0,0.3,0,0.6-0.1,0.9c-1.3,6.2-2.6,12.5-3.9,18.7C259,146.5,258.7,147.1,258.4,147.8z"/>
	<path d="M439.2,303.4c-0.3,1.9-0.6,4.6-1.1,7.3c-6.2,32.7-21.1,61-44.8,84.4c-21.9,21.6-47.9,35.7-78,42.2
		c-4.4,0.9-8.8,1.6-13.2,2.3c-0.9,0.1-1.5-0.6-1.4-1.4c0.1-0.5,0.1-0.9,0.2-1.4c0.2-1.1,0.5-2.2,0.7-3.3c1-4.7,1.9-9.4,2.9-14
		c0.2-0.8,0.4-1.6,0.7-2.3c0.2-0.4,0.6-0.8,1-0.9c1.4-0.4,2.8-0.7,4.2-1c46.4-9.7,88.2-45.2,102.7-96.7c0.9-3.2,1.6-6.5,2.3-9.8
		c0.6-2.6,0.6-2.6,3.3-3.3c3.4-0.8,6.8-1.6,10.2-2.4c2.5-0.6,5-1.2,7.4-1.7c0.5-0.1,0.9-0.1,1.4-0.2
		C438.7,301,439.3,301.7,439.2,303.4z"/>
	<path d="M305.7,147.8c-0.7-0.7-0.8-1.5-1-2.3c-1.3-6.2-2.6-12.5-3.9-18.7c-0.1-0.3,0-0.6,0-0.9c0-0.4,0.5-0.9,0.9-0.9
		c1.6,0.1,3.2,0.1,4.8,0.4c26.6,4.3,50.8,14.5,72.1,31c28.1,21.8,47,49.9,56.6,84.2c1.8,6.4,3,13,4,19.6c0.1,0.8,0.1,1.6,0,2.4
		c0,0.2-0.4,0.5-0.7,0.5c-0.9,0-1.9-0.1-2.8-0.3c-5.7-1.3-11.5-2.6-17.2-4c-0.3-0.1-0.6-0.2-0.9-0.3c-1-0.3-1.6-0.9-1.9-2
		c-0.3-1.6-0.7-3.1-1-4.7c-7.9-35.3-31.2-69.4-67.9-89.4c-11.7-6.4-24-10.9-37.1-13.6C308.2,148.6,306.9,148.3,305.7,147.8z"/>
	<path d="M258.4,416.5c0.3,0.7,0.6,1.5,0.8,2.2c1.3,6.1,2.6,12.2,3.8,18.2c0.1,0.6,0.1,1.3,0,1.9c0,0.2-0.4,0.6-0.6,0.6
		c-2.1-0.2-4.1-0.3-6.2-0.7c-14.4-2.5-28.2-6.7-41.4-12.8c-41.7-19.5-73.7-57-86-102c-1.8-6.6-3.1-13.3-4.1-20.1
		c-0.1-0.6-0.1-1.3,0-1.9c0-0.2,0.4-0.5,0.7-0.6c0.3-0.1,0.6-0.1,0.9-0.1c6.7,1.5,13.3,3.1,20,4.6c1.3,0.3,1.7,1.2,2,2.4
		c1.5,8,3.8,15.8,6.8,23.4c16.8,42.9,53.3,72.8,94,82.6c2.6,0.6,5.3,1.2,7.9,1.8C257.4,416,257.9,416.3,258.4,416.5z"/>
	<path d="M245.8,207.7c-4.1,2.2-8,4.4-11.6,7s-7,5.5-10.2,8.6c-3.1,3-5.9,6.2-8.4,9.7c-2.5,3.6-4.9,7.4-7.4,11.2
		c-6,1.4-12,2.8-18.1,4.2c-2.3,0.5-4.7,1-7,1.5c-0.4,0.1-1-0.4-0.9-0.9c0.3-1.1,0.6-2.1,1-3.2c10.5-28.4,33.1-52.1,64.2-63.2
		c0.9-0.3,1.8-0.5,2.7-0.8c0.4-0.1,1,0.4,1,0.8c-0.1,0.9-0.2,1.9-0.4,2.8c-1.4,6.5-2.7,13.1-4.1,19.6
		C246.5,205.9,246.2,206.7,245.8,207.7z"/>
	<path d="M317.9,207.5c-0.3-1-0.6-1.9-0.8-2.8c-1.4-6.4-2.7-12.8-4-19.2c-0.2-0.9-0.2-1.9-0.3-2.8c0-0.4,0.6-0.8,1-0.7
		c1.4,0.4,2.7,0.9,4.1,1.4c27.2,9.8,51.5,31.8,62.9,62.8c0.2,0.6,0.4,1.2,0.6,1.8c0.5,1.6,0.1,2.2-1.4,1.9c-2-0.4-4-0.9-6.1-1.4
		c-5.7-1.3-11.5-2.6-17.2-4c-0.8-0.2-1.5-0.6-1.9-1.3c-0.5-0.8-1-1.6-1.5-2.5c-7.8-13.4-18.6-23.8-32.2-31.3
		c-0.8-0.5-1.7-0.9-2.5-1.4C318.5,208,318.4,207.9,317.9,207.5z"/>
	<path d="M381.7,315c-0.3,1.1-0.6,2.4-1.1,3.6c-11.5,30.9-36.3,53.8-65.8,63.4c-0.4,0.1-0.9,0.2-1.4,0.2c-0.2,0-0.7-0.4-0.6-0.5
		c0.1-1.1,0.2-2.2,0.4-3.3c1.3-6.2,2.6-12.5,3.9-18.7c0.1-0.6,0.3-1.2,0.5-1.8c0.2-0.8,0.6-1.4,1.4-1.9s1.7-0.9,2.5-1.3
		c13.1-7.3,23.5-17.3,31.3-30.1c0.6-1,1.1-1.9,1.7-2.9c0.6-1.2,1.7-1.8,3-2.1c7.1-1.6,14.3-3.3,21.4-4.9
		C379.7,314.4,380.7,314.1,381.7,315z"/>
	<path d="M250.9,379.4c0.1,1,0.2,1.5,0.2,2c0,0.4-0.5,0.9-0.9,0.8c-0.5-0.1-0.9-0.2-1.4-0.3c-28.7-9.4-54-32-65.7-63.6
		c-0.4-1-0.6-2.1-0.9-3.2c0-0.2,0.3-0.6,0.5-0.6c0.8,0,1.6,0,2.4,0.1c7.1,1.6,14.3,3.3,21.4,4.9c1.3,0.3,2.3,1,2.9,2.3
		c0.5,1,1.1,1.9,1.7,2.9c7.6,12.5,17.8,22.4,30.5,29.6c4.6,2.6,4.2,1.3,5.4,7.5C248.4,367.8,249.7,373.9,250.9,379.4z"/>
</g>
</svg>