<?xml version="1.0" encoding="utf-8"?>
<!-- Generator: Adobe Illustrator 25.1.0, SVG Export Plug-In . SVG Version: 6.00 Build 0)  -->
<svg version="1.1" id="Layer_1" xmlns="http://www.w3.org/2000/svg" xmlns:xlink="http://www.w3.org/1999/xlink" x="0px" y="0px"
	 viewBox="0 0 961.5 1177.1" style="enable-background:new 0 0 961.5 1177.1;" xml:space="preserve">
	<defs>
		<linearGradient id="gradient" x1="0%" y1="0%" x2="0%" y2="100%">
  <stop offset="0%" stop-color="#9b0909" />
  <stop offset="35%" stop-color="#9b0909" />
  <stop offset="65%" stop-color="#69452e" />
  <stop offset="100%" stop-color="#69452e" />
</linearGradient>
	</defs>
<g fill="url(#gradient)">
	<path d="M585,533.2c-1.1-3.1-0.6-6.3-0.7-9.5c-0.1-4.5-0.2-9-0.3-13.4c-0.1-2.9-0.7-5.7-1.8-8.4c-2.6-6.4-7.1-10.5-13.9-11.9
		c-0.9-0.2-1.9-0.4-2.8-0.5c-3.8-0.6-5.4,0.6-5.5,4.5c-0.1,3.8-0.1,7.7-0.1,11.5c0,11.2,0,22.4,0,33.6c0,3.2-0.1,6.4-0.1,9.7
		c-2,1.4-3.7,2.7-5.6,3.8c-8.6,4.9-17.2,9.8-25.8,14.7c-2.5,1.4-5.2,2.5-7.3,5c-0.1,2.3-0.2,4.8-0.2,7.4
		c-0.6,101.2-0.3,247.6,0.4,258c0.8,1.9,2.6,2.7,4.2,3.7c6.2,3.9,12.5,7.8,18.8,11.5c2.4,1.4,3.9,3.2,3.9,6.1c0,0.6,0.1,1.3,0.2,1.9
		c0.4,2.4-0.2,4.4-2.2,6c-1.5,1.2-2.9,2.5-4.4,3.8c-2.7,2.3-5.4,4.5-8,6.8c-10.1,8.8-8.7,5.6-8.7,18.5c-0.1,55.6,0,111.3,0,166.9
		c0,2.9,0.2,5.8,0,8.6c-0.3,4.1,1,7.3,3.7,10.4c9.4,10.5,18.6,21.1,27.8,31.8c1.4,1.7,2.7,3.5,4,5.3c-1.9,4.3-3.9,8.3-6.7,12.2
		c-2.2,0.2-4.4,0.5-6.6,0.5c-5.8,0.1-11.5,0.1-17.3,0.1c-2,0-3.7,0.8-5.2,2.2c-1.6,1.5-3.2,3.1-4.8,4.7
		c-10.9,10.9-21.7,21.7-32.6,32.5c-2,2-4.1,4-6.3,6c-1.1-0.5-2-0.7-2.7-1.3c-1.9-1.7-3.7-3.5-5.5-5.3
		c-10.2-10.2-20.3-20.3-30.5-30.5c-1.6-1.6-3.2-3.1-4.7-4.8c-2.3-2.5-5-3.7-8.5-3.6c-4.8,0.2-9.6,0-14.4,0c-1.6,0-3.2-0.1-4.8-0.1
		c-2.1,0-3.6-1.2-4.6-3c-1.2-2.2-2.4-4.5-3.6-6.8c-1.2-2.3-0.7-4.2,1-6.1c9.1-10.3,18.1-20.7,27.1-31.1c7-8.1,6.1-5.2,6.1-16.2
		c0-57.9,0-115.7,0-173.6c0-3.2-0.1-6.4-0.2-9c-1.1-2.3-2.7-3.4-4.1-4.7c-5.4-4.6-10.7-9.2-16.1-13.6c-2.2-1.8-3-4-2.7-6.7
		c0.1-1.3,0.1-2.6,0.4-3.8c0.2-0.9,0.8-1.8,1.5-2.3c1.5-1.2,3.1-2.2,4.7-3.2c5.2-3.2,10.3-6.4,15.5-9.6c1.6-1,3.1-2.1,4.6-3.1
		c0.2-1.2,0.6-2.1,0.6-3.1c0-86.6,0.1-173.3,0.1-259.9c0-1.3-0.3-2.5-0.4-4c-1.8-1.2-3.6-2.5-5.5-3.6c-8.6-4.9-17.3-9.7-25.9-14.6
		c-2.2-1.3-4.3-2.7-6.7-4.1c-0.1-2.3-0.4-4.5-0.4-6.7c0-14.4,0-28.8,0-43.2c0-2.6-0.1-5.1-0.2-7.7c0-1.1-1.5-2.4-2.6-2.5
		c-11.6,0-17.9,6.4-20.1,14.4c-1.1,3.7-1.7,7.5-1.6,11.4c0,4.2,0,8.3-0.1,12.5c0,1.9-0.2,3.8-0.3,5.4c-1.8,2.1-4,2.6-6.1,3.4
		c-19.6,7.6-39.3,15.2-58.9,22.9c-9.9,3.9-8.1,1.8-12.1,11.9c-21.6,54.3-43.1,108.7-64.7,163c-0.9,2.4-2,4.7-3.1,7
		c-0.3,0.7-1.8,1.1-2.5,0.8c-2.2-1.2-4.5-2.4-6.7-3.8c-15.5-9.6-30.2-20.4-44.3-32c-42.9-35.2-79.4-76-108.8-123
		c-29.4-47.1-49.6-97.9-60.5-152.4C5.8,415.5,3.6,400,2,384.4c-1.2-11.8-1.6-23.6-2-35.4C0,347.4,0,345.8,0,344.2
		c0-2.7,1.2-4.3,3.7-4.9c6.5-1.5,13.1-2.9,19.6-4.3c20.9-4.6,41.8-9.2,62.7-13.9c1.9-0.4,3.7-1.1,5.4-1.9c0.3-0.1,0.5-1.3,0.3-1.5
		c-2-2-4.1-4-6.2-5.9c-21-18.2-42-36.5-63-54.7c-3.6-3.1-7.3-6.3-10.8-9.5c-0.9-0.8-1.7-1.9-2.6-2.9c0.6-3.2,1.6-6.2,2.7-9.2
		c14.1-40.1,34-77.1,58.9-111.5c18.6-25.8,39.9-49.1,64.1-69.7c24.7-21.1,51.7-38.6,81.2-52.3c2-0.9,3.8-2.4,6.6-1.5
		c2.7,10.3,4.5,21,6.7,31.7c2.3,10.9,4.6,21.9,6.8,32.8c2.2,10.6,4.3,21.3,6.5,31.9c2.2,11,4.4,21.9,6.7,32.9
		c2.3,10.6,3.8,21.3,6.9,31.8c40.1,25.4,80.1,50.5,119.4,75.4c1.5,2.6,1.2,4.5,1.2,6.4c0.1,7.7,0.1,15.3,0.1,23
		c0,4.2,0.6,8.3,1.5,12.4c2.4,11.3,9.4,17.8,20.4,20.4c1.3,0.3,2.8-0.5,2.8-1.7c0.1-2.9,0.2-5.8,0.2-8.6c0-16,0-32,0-48
		c0-2.2,0.1-4.5,0.2-6.8c1.6-1.6,3.1-3.2,4.8-4.7c24.2-21.3,48.5-42.6,72.8-63.9c0.2-0.2,0.6-0.3,0.9-0.4c0.3-0.1,0.6-0.1,1.2-0.2
		c1.3,1.1,2.9,2.2,4.3,3.5c23.3,20.5,46.5,41,69.8,61.5c1,0.8,2,1.6,2.8,2.6c0.7,1,1.4,2.2,1.5,3.4c0.3,2.5,0.2,5.1,0.2,7.7
		c0,15.3,0,30.7,0,46c0,2.6,0.2,5.1,0.3,7.7c0.1,1.1,1.7,2.1,2.9,1.8c9.7-2.4,16.7-7.9,19.4-17.8c0.7-2.4,1.3-5,1.5-7.5
		c0.4-6.4,0.5-12.8,0.7-19.2c0.2-5.4-0.4-10.9,0.4-16c1.8-2.8,4.5-3.9,6.9-5.5c24-15.2,48.1-30.4,72.1-45.6
		c11.6-7.3,23.3-14.7,34.9-22c1.6-1,3.2-2.1,4.8-3.1c1.4-0.9,2.2-2.3,2.6-3.9c1.3-6.3,2.6-12.5,3.9-18.8
		c5.6-27.2,11.1-54.5,16.7-81.7c3.4-16.9,6.9-33.8,10.3-50.7c0.4-1.9,0.9-3.7,1.4-5.6c0.4-1.5,1.6-2.2,2.8-1.6
		c2.9,1.3,5.8,2.6,8.7,4c40.2,19.4,75.4,45.6,106,78.1c41.4,43.8,72.1,94.3,92.6,150.9c5,13.8,5.6,10.5-5.1,19.8
		c-23.6,20.6-47.3,41.1-71,61.6c-1.4,1.2-3.3,2.1-3.4,4.4c2.6,1.4,5.3,1.9,8.2,2.6c26.2,5.8,52.4,11.6,78.6,17.4
		c1.2,0.3,2.5,0.6,3.6,1.2c0.7,0.4,1.4,1.4,1.6,2.2c0.3,1.5,0.3,3.2,0.2,4.8c-0.3,15.4-1.5,30.6-3.2,45.9c-2,18.1-5.2,36-9.4,53.8
		c-13,55.1-35.7,105.8-67.5,152.5c-35,51.3-78,94.6-129,130c-6.3,4.4-12.9,8.3-19.4,12.3c-1.6,1-3,0.4-3.8-1.3
		c-0.4-0.9-0.9-1.7-1.2-2.6c-0.7-1.8-1.4-3.6-2.1-5.3c-21.1-53.2-42.1-106.3-63.2-159.5c-4.8-12.1-2.6-9.5-13.8-13.9
		c-19-7.5-38.1-14.9-57.1-22.3C589.4,535.8,586.9,535.2,585,533.2z M620.6,400.7c1.3-3,2.5-6,3.9-8.8c9.8-20.5,19.5-41,29.3-61.4
		c1.2-2.6,2.5-5.2,3.7-7.8c0.4-0.9,0.7-1.8,1-2.7c0.3-1-0.3-2.9-1.3-3.4c-0.8-0.4-1.9-0.7-2.7-0.5c-1.5,0.4-2.9,1.2-4.3,2
		c-19.5,10.9-39.1,21.8-58.6,32.7c-1.1,0.6-2.4,1.1-3.2,2c-0.8,0.9-1.4,2.1-1.8,3.2c-0.3,0.9-0.2,1.9-0.2,2.9c0,26.2,0,52.4,0,78.7
		c0,1.3,0,2.6,0.3,3.8c0.2,0.9,0.8,1.8,1.5,2.3c1,0.8,2.2,1.2,3.4,1.7c20.1,8.3,40.2,16.5,60.3,24.7c0.9,0.4,1.8,0.7,2.7,0.8
		c1.4,0.2,2.5-0.6,3.1-1.7c0.4-0.7,0.7-1.9,0.4-2.6c-1-2.3-2.3-4.5-3.6-6.8c-9.7-16.9-19.5-33.8-29.2-50.7
		C623.7,406.5,622.2,403.7,620.6,400.7z M374.2,353.7c-1.4-0.9-2.4-1.6-3.5-2.2c-20.4-11.4-40.7-22.7-61.1-34.1
		c-0.8-0.5-1.7-0.8-2.6-1.2c-1-0.4-2.7,0-3.4,1c-0.6,0.8-1.2,1.6-0.8,2.6c1.1,2.7,2.1,5.4,3.3,7.9c8.5,17.9,17.1,35.7,25.6,53.6
		c2.6,5.5,5.2,11,7.8,16.5c0.9,1.8,0.9,3.7-0.1,5.5c-1.9,3.3-3.8,6.7-5.7,10c-9.3,16.1-18.5,32.1-27.7,48.2c-1.1,1.9-2,4-2.9,6
		c-0.6,1.5,1.8,4.1,3.4,3.6c1.8-0.5,3.7-1.1,5.4-1.8c18.3-7.5,36.6-15.1,54.9-22.6c2.4-1,4.7-2,6.9-2.9c0.3-0.8,0.7-1.4,0.8-2
		c0.2-1.6,0.2-3.2,0.3-4.8C375.3,400.8,375,363.6,374.2,353.7z"/>
	<path d="M796,935.9c1.2,1.4,2.4,1.3,3.7,1c10.5-2.7,21-5.4,31.5-8.1c20.4-5.2,40.8-10.5,61.2-15.7c0.5-0.1,1.4,0,1.7,0.3
		c0.3,0.3,0.2,1.2-0.1,1.6c-1.1,1.6-2.3,3.1-3.5,4.5c-14.5,17.5-29,35-43.5,52.4c-30.2,36.4-60.4,72.9-90.6,109.3
		c-1.8,2.2-3.9,4.2-5.9,6.2c-0.2,0.2-1.5-0.2-1.5-0.5c-0.3-1.6-0.5-3.1-0.6-4.7c-0.6-23-1.1-46-1.6-69c0-1.9-0.3-3.8-0.6-5.7
		c-0.1-0.5-0.8-1.1-1.2-1.1c-2.2,0-4.5,0-6.6,0.5c-16.6,3.4-33.1,7-49.7,10.5c-9.4,2-18.8,3.9-28.1,5.9c-1.2,0.3-2.5,0.4-3.8,0.6
		c-2.1,0.3-3.8-0.2-4.9-2.1c-0.8-1.4-1.7-2.7-2.5-4.1c-0.9-1.5-0.9-3.1,0.1-4.5c1.7-2.3,3.5-4.6,5.3-6.8c19-24.1,38-48.2,57-72.3
		c44.3-55.9,88.6-111.7,133-167.5c4.4-5.5,8.8-11,13.3-16.4c0.8-1,1.8-1.8,2.7-2.6c0.7-0.6,2.7-0.5,3.5,0.4c0.6,0.6,1.4,1.7,1.2,2.4
		c-0.6,2.5-1.5,4.9-2.4,7.3c-9,23.9-18.1,47.8-27.2,71.7c-12.3,32.6-24.7,65.1-37,97.7C797.9,930,797,933.1,796,935.9z"/>
	<path d="M312.8,1015.5c-0.3,0.7-0.4,1.3-0.7,1.9c-4.3,7.2-3.4,7.6-12.9,5.7c-25.6-5.4-51.2-10.8-76.9-16.1
		c-1.6-0.3-3.2-0.4-4.8-0.6c-1.6-0.2-3,1.1-3.1,2.9c-0.2,2.2-0.3,4.5-0.4,6.7c-0.3,17.6-0.5,35.2-0.8,52.7
		c-0.1,5.8-0.3,11.5-0.5,17.2c0,0.5-0.5,1.1-0.9,1.6c-0.4,0.6-1.6,0.3-2.4-0.6c-0.6-0.7-1.3-1.4-1.9-2.2c-1.6-2-3.3-3.9-4.9-5.9
		c-43.5-52.4-86.9-104.8-130.4-157.2c-1.8-2.2-3.5-4.5-5.2-6.8c-0.2-0.2-0.3-0.8-0.2-0.9c0.4-0.3,1-0.8,1.3-0.7
		c8.1,2,16.1,3.9,24.2,6c22.6,5.8,45.1,11.6,67.7,17.4c0.9,0.2,1.9,0.5,2.8,0.7c1.4,0.3,2.7-0.8,2.3-2c-0.4-1.2-0.8-2.4-1.2-3.6
		c-5.4-14.3-10.8-28.7-16.2-43c-16.3-43-32.6-86-48.9-129c-1.1-3-2.1-6-3-9.1c-0.3-0.9,0.2-1.9,1.1-2.4c1.3-0.9,2.9-1.2,3.5-0.5
		c1.3,1.4,2.7,2.7,3.9,4.1c15.2,18.9,30.5,37.8,45.6,56.9c52.6,66.4,105.1,132.9,157.6,199.3
		C309.5,1010.1,311.9,1012.3,312.8,1015.5z"/>
</g>
</svg>