<?xml version="1.0" encoding="utf-8"?>
<svg version="1.1" id="Layer_1" xmlns="http://www.w3.org/2000/svg" xmlns:xlink="http://www.w3.org/1999/xlink" x="0px" y="0px"
	 viewBox="0 0 1080.8 986.5" style="enable-background:new 0 0 1080.8 986.5;" xml:space="preserve">
	<defs>
		<linearGradient id="gradient" x1="0%" y1="0%" x2="100%" y2="0%">
  <stop offset="0%" stop-color="#516de9" />
  <stop offset="50%" stop-color="#ae31e9" />
  <stop offset="100%" stop-color="#cddc39" />
</linearGradient>
	</defs>
<g fill="url(#gradient)">
	<path d="M1022.5,251.8c-3,0.7-5.6-0.4-8.3-1.5c-13.6-5.4-27.3-10.8-41-16.2c-4.2-1.6-8.4-3.1-12.6-4.5c-1.5-0.5-3.1-0.5-4.7-0.7
		c-0.8-0.1-1.9,1.1-1.7,2c0.3,1.5,0.6,3.1,1.2,4.6c4.8,12.9,9.7,25.7,14.5,38.6c10.2,27.6,19.9,55.3,28.2,83.5
		c6.8,23,12.7,46.2,16.9,69.8c1.2,6.6,2,13.3,2.9,19.9c3.1,22,1.6,44,1.5,66.1c-1.6,10.4-1.3,21-3,31.5c-0.9,5.3-1.3,10.8-2,16.2
		c-2.5,18.1-6.1,35.9-10.4,53.6c-9.6,38.9-23.5,76.3-41.7,112c-17.8,34.9-39.4,67.3-65,97c-22,25.5-46.3,48.6-73.2,68.9
		c-34.1,25.8-71.1,46.4-111,61.9c-22.1,8.6-44.7,15.3-67.8,20.5c-12.4,2.8-25,5.4-37.7,6.5c-8.4,2.2-17.2,1.3-25.6,3.2
		c-2.1,0.5-4.5,0.3-6.7,0.4c-9.6,0.2-19.2,0.6-28.7,1.4c-3.5,0.3-7,0.2-10.5,0c-9.6-0.4-19.2-1-28.7-1.4c-3.8-0.2-7.7-0.1-11.4-1
		c-1.5-0.4-3.2-0.6-4.7-0.6c-7.7,0.1-15.2-2.3-22.8-2.4c-13.5-2.5-27-4.7-40.4-8c-23-5.7-45.5-12.8-67.4-21.8
		c-23.7-9.7-46.4-21.3-68.2-34.9c-34.4-21.4-65.5-46.8-93.2-76.3c-25.1-26.7-46.8-55.8-65.3-87.4c-25.9-44.2-44.7-91.1-56.8-140.8
		c-3.7-15.2-6.6-30.6-9.2-46c-1.2-6.9-1.4-14-2.6-20.9c-2.1-12-1.4-24.2-3.2-36.3c-0.3-2.2-0.3-4.5-0.3-6.7
		c-0.1-8.6-0.2-17.3-0.1-25.9c0-7,0.1-14,1.3-21c1-5.7,1.2-11.4,2-17.1c2.3-15.5,5.5-30.8,9.2-46c7.3-29.8,16.6-59,26.8-88
		c7.5-21.1,15.4-42,23.2-63c1-2.7,2-5.4,2.8-8.1c0.8-2.8-0.8-4.5-3.5-3.7c-3.1,0.8-6.1,1.8-9.1,2.9c-16.5,6-32.9,12.4-49.1,19.2
		c-1.2,0.5-2.4,0.7-3.6,1c-0.3,0.1-0.7-0.1-0.8-0.3c-0.3-0.5-0.7-1.2-0.6-1.6c2.9-7.1,5.8-14.2,8.8-21.3c3.1-7.4,6.3-14.7,9.2-22.1
		c1.4-3.5,3.7-5.8,7.2-7.2c8.3-3.3,16.6-6.7,25-9.8c9.6-3.6,19.2-7,28.8-10.4c2.1-0.8,4.2-1.5,6.3-2.3c2.2-0.8,3.8-2.2,4.8-4.4
		c1-2.4,2.1-4.7,2.9-7.1c2.2-6.3,4.2-12.8,6.6-19c5.2-13.6,4.5-27.1-0.7-40.3c-9.3-23.6-25.8-40-50.2-48c-1.5-0.5-3-1-4.6-1.4
		c-2.8-0.8-4.4-2.5-4.4-5.5c0-1.6-0.1-3.2-0.1-4.8c0-12.1,0-24.3,0-36.4c0-1.3,0-2.6,0.1-3.8c0.2-4.7,1.6-6.2,6.5-6.3
		c11.8-0.2,23.6,0.1,35.4,1.6c13,1.7,25.9,4.2,38.3,8.2c13.1,4.2,25.6,10,37,17.8c21.8,14.9,35.9,35.2,42.4,60.7
		c2.8,10.8,4.4,21.9,4.3,33.2c-0.1,5.4-0.1,10.9-0.2,16.3c0,1.3,0,2.6,0.1,3.8c0,1.2,1.4,2.6,2.4,2.5c2.5-0.1,5.1-0.2,7.6-0.6
		c11.6-2.1,23.2-4.5,34.8-6.6c10.1-1.7,20.2-3.1,30.3-4.6c7.3-1.1,14.5-2.1,21.8-3c5.7-0.7,11.4-1.4,17.1-2c9.2-1,18.4-1.9,27.7-2.7
		c13.4-1.1,26.8-2.1,40.1-3.1c3.2-0.2,6.4-0.5,9.6-0.6c12.1-0.3,24.3-0.5,36.4-1c8.6-0.3,17.2-1,25.9-0.8c2.9,0.1,5.8,0.1,8.6,0.3
		c10.2,0.8,20.4,0.6,30.7,0.1c7-0.4,14.1-0.5,21.1-0.3c13.7,0.3,27.5,1,41.2,1.5c7,0.2,14.1,0.2,21.1,1.2c2.5,0.3,5.1,0.4,7.7,0.5
		c14.7,0.7,29.3,2.4,43.9,3.6c13.7,1.2,27.3,3.2,40.9,4.7c10.1,1.1,20.2,3.1,30.3,4.6c15.2,2.3,30.2,5,45.3,8.1
		c2.5,0.5,5.1,0.5,7.6,0.6c1,0.1,2.5-1.4,2.6-2.5c0.1-1.6,0.4-3.2,0.2-4.7c-1.4-9.3-0.7-18.4,0.2-27.7c0.8-8.3,2.1-16.5,4.5-24.5
		c4.8-16.2,12.8-30.5,24.6-42.8c12.5-13,27.4-21.9,43.8-28.5c15.5-6.2,31.6-9.9,48.2-11.9c11.2-1.3,22.3-1.8,33.5-1.7
		c7.2,0.1,8.4,1.2,8.5,8.4c0.1,13.4,0,26.9,0,40.3c0,1-0.1,1.9-0.2,2.9c-0.2,2.4-1.2,4.3-3.6,5.1c-1.5,0.5-3,1.1-4.5,1.5
		c-20.1,5.9-34.7,18.5-45.2,36.2c-4.1,6.9-6.8,14.4-8.6,22.2c-2.1,9-1.6,17.9,1.1,26.5c3.1,9.7,6.8,19.3,10.3,28.9
		c0.9,2.6,2.7,4.3,5.3,5.2c2.4,0.8,4.8,1.8,7.2,2.6c16.1,5.4,31.9,11.4,47.6,17.8c10.5,4.2,10.2,4.1,14.2,14
		c4.6,11.2,9.3,22.4,14.1,33.6c1,2.3,2.2,4.6,3.3,6.9L1022.5,251.8z M749.8,468.2c0,89.5,0,179,0,268.5c0,3.2-0.1,6.4,0.1,9.6
		c0.1,2.2,0.5,4.4,0.9,6.6c0.3,1.7,2.2,2.6,3.7,1.7c2.4-1.5,4.9-3,7.2-4.7c17.9-14,34.6-29.4,49.4-46.7c23.1-26.9,42-56.4,55.7-89.1
		c14.1-33.5,23.1-68.3,25.6-104.7c0.1-1.3,0.3-2.5,0.4-3.8c0.4-5.1,1-10.2,1-15.3c0.2-13.1,0.6-26.2-1.4-39.2
		c-0.2-14.1-2.5-28-4.6-41.9c-3.1-20.5-7.2-40.9-12-61.1c-8.4-35.8-18.8-71-30.5-105.8c-5-14.8-10.2-29.6-15.3-44.4
		c-0.3-0.9-0.8-1.8-1.1-2.7c-0.6-1.6-1.8-2.6-3.4-3.2c-1.5-0.5-3-1.1-4.6-1.4c-20-4.2-40.1-7.7-60.2-11.2c-1.9-0.3-3.8-0.3-5.7-0.3
		c-2.1,0-3.9,1.3-4.1,3.2c-0.4,3.2-0.8,6.3-0.9,9.5c-0.2,3.2-0.1,6.4-0.1,9.6C749.8,290.5,749.8,379.4,749.8,468.2z M331.5,468.1
		c0-90.2,0-180.3,0-270.5c0-3.2,0-6.4-0.1-9.6c-0.3-8.2-1.9-9.6-9.9-8.5c-0.9,0.1-1.9,0.3-2.8,0.5c-8.8,1.6-17.6,3.2-26.4,4.8
		c-10.7,2-21.3,4-32,6.1c-1.6,0.3-3.1,0.9-4.5,1.5c-1.5,0.6-2.8,1.6-3.4,3.2c-0.4,0.9-0.8,1.8-1,2.7c-3.4,12-8.2,23.5-12.2,35.3
		c-8.1,23.9-15.9,47.9-22.7,72.2c-5,18.2-9.7,36.4-13.7,54.8c-4.2,19.3-7.9,38.8-10.5,58.4c-0.8,6-1.3,12.1-2.2,18.1
		c-0.8,5.4-1.2,10.8-1.4,16.2c-0.1,2.6-0.3,5.1-0.5,7.7c-0.3,4.1-0.7,8.3-0.8,12.4c-0.4,16.6,0.9,33.2,2.9,49.7
		c1.2,10.2,2.8,20.3,5,30.2c6.9,31.7,18.1,61.9,33.7,90.4c21,38.3,48.4,71.3,82,99.2c3.9,3.3,8,6.4,12.1,9.5c1.3,1,2.7,1.7,4.1,2.5
		c1.3,0.7,3.4-0.4,3.7-2c0.3-1.2,0.6-2.5,0.6-3.8c0.1-3.5,0.1-7,0.1-10.5C331.5,648.4,331.5,558.2,331.5,468.1z M357.6,326.4
		c0,45.7,0,91.4,0,137.2c0,3.2,0,6.4,0.1,9.6c0,1.3,0.4,2.5,0.6,3.8c0.2,0.9,2,2.3,2.9,2.2c1.3-0.1,2.6-0.2,3.8-0.5
		c20-4.7,39.1-12,57.1-21.9c0.8-0.5,1.6-1,2.5-1.5c3.5-1.8,4.9-4.8,4.9-8.7c0-2.6,0.1-5.1,0.1-7.7c0-85.4,0-170.7,0-256.1
		c0-2.9,0-5.8-0.2-8.6c-0.1-1.3-0.4-2.5-0.8-3.7c-0.4-1.3-1.4-2.2-2.7-2.4c-5.4-0.7-10.9-0.4-16.2,0.5c-3.8,0.7-7.6,1-11.4,1.2
		c-2.5,0.1-5.1,0.5-7.6,0.8c-3.2,0.4-6.3,0.7-9.5,1.1c-6.3,0.8-12.7,1.6-19,2.5c-2.2,0.3-4,2.4-4.2,4.6c-0.2,3.5-0.3,7-0.3,10.5
		C357.6,234.9,357.6,280.6,357.6,326.4z M723.4,327.4c0-46.3,0-92.7,0-139c0-3.5-0.1-7-0.4-10.5c-0.1-1.7-1.4-2.8-3-3.4
		c-0.6-0.2-1.2-0.5-1.8-0.5c-7-0.3-13.8-2.5-20.9-2.4c-1.3,0-2.6-0.1-3.8-0.4c-4.4-1.1-8.9-1.2-13.3-1.4c-2.5-0.1-5.1-0.5-7.6-0.9
		c-5.4-0.9-10.8-1.1-16.2-0.8c-2,0.1-3.5,1.5-4,3.5c-1,4.1-0.7,8.3-0.7,12.4c0,84.7,0,169.4,0,254.1c0,2.6,0.1,5.1,0,7.7
		c-0.2,5.1,2.1,8.2,6.5,10.7c16.9,9.3,34.6,16.4,53.2,21.4c2.5,0.7,5,1,7.5,1.5c1.9,0.3,3.9-1.1,4-3.1c0.2-3.5,0.4-7,0.4-10.5
		C723.4,419.4,723.4,373.4,723.4,327.4z M429.5,661.4c0-42.5,0-85,0-127.5c0-2.9-0.2-5.8,0-8.6c0.4-5.9-2.3-9.4-7.3-12.1
		c-16.9-9.3-34.7-16.2-53.3-21.2c-2.2-0.6-4.4-1-6.6-1.4c-1.9-0.3-4.1,1.2-4.2,3c-0.3,3.2-0.5,6.4-0.5,9.5c0,86.9,0,173.8,0,260.8
		c0,11.8-0.7,11.1,10,17.2c11.1,6.3,22.8,11.5,34.7,16.3c6.8,2.8,13.7,5.2,20.7,7.5c3.9,1.3,6.1-0.3,6.3-4.6c0.2-3.5,0.2-7,0.2-10.5
		C429.5,747.1,429.5,704.2,429.5,661.4z M723.4,633.7c0-42.5,0-85,0-127.5c0-3.2,0-6.4-0.1-9.6c0-1.3-0.3-2.5-0.5-3.8
		c-0.1-0.9-1.9-2.3-2.9-2.2c-1.3,0.1-2.5,0.2-3.8,0.5c-20.7,4.8-40.1,12.7-58.6,23c-0.8,0.5-1.6,1-2.4,1.5c-1.7,1.1-2.8,2.7-3,4.7
		c-0.3,3.2-0.5,6.4-0.5,9.6c0,87.2,0,174.5,0,261.7c0,2.6,0,5.1,0.2,7.7c0.5,5.8,2.2,7.1,8.1,5.2c19.1-6.4,37.5-14.5,55.2-24.2
		c8.1-4.4,8.1-4.6,8.2-14.3c0-1.9,0-3.8,0-5.8C723.4,718.1,723.4,675.9,723.4,633.7z M455.6,675.7c0,6.1,0,12.1,0,18.2
		c0,35.5,0,70.9,0,106.4c0,3.5,0.1,7,0.4,10.5c0.2,2,1.4,3.6,3.4,4.2c3,0.9,6.2,1.7,9.3,2.4c16.3,3.3,32.7,5.4,49.3,6.5
		c1.6,0.1,3.2,0,4.8-0.2c2.5-0.3,4.3-1.9,4.4-4.2c0.2-3.5,0.3-7,0.3-10.5c0-47.3,0-94.6,0-141.8c0-8-0.4-15.9-1.6-23.9
		c-1.8-12.1-5.2-23.7-10.5-34.7c-4.2-8.7-9.3-16.8-14.8-24.6c-10.6-15.3-22.7-29.3-36.9-41.4c-1.2-1-2.6-1.9-3.9-2.7
		c-1.2-0.8-3.7,0.3-3.8,1.7c-0.2,3.5-0.5,7-0.5,10.5C455.6,593.3,455.6,634.5,455.6,675.7z M625.5,676.7c0-21.1,0-42.2,0-63.3
		c0-20.8,0-41.5,0-62.3c0-3.2-0.2-6.4-0.4-9.6c-0.1-1.5-2.4-2.7-3.7-1.8c-1.8,1.3-3.7,2.5-5.3,4c-18.1,16.4-33.4,35.1-45.7,56.3
		c-5,8.6-8.8,17.7-11.6,27.2c-3.5,12.1-5.1,24.4-5.1,36.9c-0.1,48.9,0,97.8,0,146.6c0,2.2,0.1,4.5,0.2,6.7c0,0.9,0.2,1.9,0.5,2.8
		c0.5,1.6,1.6,2.8,3.2,3.2c1.2,0.3,2.5,0.5,3.8,0.4c6.4-0.4,12.8-0.8,19.1-1.6c7.3-0.8,14.6-1.9,21.8-3.1c6.6-1.1,13.3-2.1,19.6-4.2
		c1.9-0.6,3.3-2.1,3.4-4.2c0.2-3.5,0.3-7,0.3-10.5C625.5,759.2,625.5,717.9,625.5,676.7z M455.6,298.8c0,39,0,78,0,116.9
		c0,2.9,0,5.8,0.1,8.6c0,1.3,0.3,2.5,0.5,3.8c0.2,1.4,2.6,2.4,3.8,1.7c3.9-2.2,7.2-5.3,10.4-8.4c15.3-14.7,28.4-31.2,39.3-49.4
		c5.1-8.5,9.4-17.5,12.2-27c3.7-12.6,5.8-25.5,5.8-38.7c0-43.5,0-86.9,0-130.4c0-2.2,0-4.5-0.1-6.7c0-0.9-0.2-1.9-0.5-2.8
		c-0.4-1.3-1.3-2.2-2.5-2.7c-3.4-1.3-6.9-1.3-10.4-0.8c-7.3,0.9-14.7,0.7-22,0.8c-8,0.1-16,0.2-24,0.4c-2.8,0.1-5.7,0.6-8.5,1.2
		c-2,0.4-3.3,2-3.5,4.1c-0.3,3.5-0.4,7-0.4,10.5C455.6,219.6,455.6,259.2,455.6,298.8z M625.5,298.7c0-39.6,0-79.2,0-118.8
		c0-3.5-0.1-7-0.3-10.5c-0.1-1.9-1.6-3.6-3.6-4c-2.8-0.5-5.7-1.1-8.5-1.2c-8.3-0.3-16.6-0.3-24.9-0.4c-7-0.1-14,0.1-21.1-0.7
		c-2.5-0.3-5.1-0.1-7.6,0.1c-3.5,0.3-5.3,2.1-5.5,5.4c-0.2,3.5-0.3,7-0.3,10.5c0,38.3,0,76.7,0,115c0,9.3,0.2,18.5,1.3,27.7
		c1.9,16.7,6.7,32.4,15.1,47.1c4.8,8.3,10.1,16.3,15.8,24c9.1,12.4,19.8,23.4,31.2,33.7c1.4,1.3,3,2.3,4.6,3.3
		c1.2,0.8,3.5-0.5,3.6-1.9c0.2-3.2,0.4-6.4,0.4-9.6C625.5,378.6,625.5,338.6,625.5,298.7z"/>
	<path d="M0,631.4c0.2-8.6-0.1-17.3,1.2-25.9c0.2-1.3,0.2-2.6,0.2-3.8c0-11.8,1.3-23.6,2.7-35.3c3.3-27.6,8.2-54.9,15.3-81.9
		c0.2-0.9,0.9-1.7,1.4-2.4c0.1-0.2,0.6-0.4,0.8-0.3c0.5,0.2,1,0.6,1.5,1c0.2,0.2,0.2,0.6,0.2,0.9c-0.9,10.2-1.9,20.3-2.8,30.5
		c-0.1,1.3-0.2,2.6-0.2,3.8c-0.6,20.1-0.6,40.3,0,60.4c1.6,10.4,1.5,21,2.9,31.5c1.3,9.8,2.6,19.6,4.2,29.4
		c2.7,17,6.6,33.8,11.1,50.5c7.9,29.1,18.6,57.1,31.8,84.2c16.6,34.1,37.6,65.3,62.8,93.7c35.3,39.8,76.6,72.4,122.3,99.4
		c6,3.6,12.3,6.8,18.4,10.3c1.4,0.8,2.6,1.8,3.7,2.8c0.3,0.3,0.1,1.2,0,1.8c0,0.2-0.5,0.5-0.7,0.5c-1.6,0-3.2,0.2-4.7-0.2
		c-20.9-5.8-41.6-12.5-61.6-21c-24.8-10.4-48.6-22.8-70.8-38.1c-38.2-26.4-69.5-59.2-92.8-99.5c-15-25.9-25.9-53.4-33.4-82.3
		c-4-15.2-7-30.5-9.1-46c-1.2-8.8-2.6-17.7-2.7-26.7c-0.1-5.7-0.9-11.5-1.2-17.2C0.2,644.8,0.2,638.1,0,631.4z"/>
	<path d="M1060.9,547.9c0-9.6,0.1-19.2,0-28.8c0-5.8-0.6-11.5-1.2-17.2c-0.7-6-0.7-12.1-0.9-18.2c0-0.5,0.5-1.2,1-1.4
		c0.4-0.1,1.3,0.3,1.5,0.7c0.7,1.8,1.3,3.6,1.7,5.5c2.1,9,4.3,18,6.1,27.1c2.1,10.3,3.9,20.7,5.5,31.1c1.1,7.2,1.5,14.6,2.7,21.9
		c1.9,11.4,1.5,23,3.1,34.4c0.4,2.5,0.3,5.1,0.3,7.7c0.1,11.5,0.1,23,0.1,34.5c0,7.3,0.1,14.7-1.2,22c-0.3,1.6-0.3,3.2-0.4,4.8
		c-1.7,26.6-6.6,52.5-13.8,78.2c-5.3,19.1-12.4,37.6-21.2,55.4c-13.7,27.7-31.1,52.8-52.5,75.2c-23.4,24.5-50.2,44.4-79.7,60.9
		c-26.1,14.5-53.5,25.8-81.9,34.6c-7,2.2-14,4.3-21.1,6.3c-1.5,0.4-3.1,0.2-4.7,0.2c-0.2,0-0.7-0.3-0.7-0.5
		c-0.1-0.6-0.2-1.5,0.2-1.7c2.6-1.8,5.3-3.6,8-5.2c6.6-3.9,13.4-7.5,20-11.5c26.9-16.2,52.1-34.7,75.7-55.4
		c22.7-19.9,43.2-41.7,61.5-65.7c20.2-26.6,36.7-55.3,50.2-85.9c12.6-28.8,22.4-58.4,29.3-89.1c2.9-12.8,5.4-25.6,7.2-38.6
		c1.4-10.8,3.3-21.5,3.7-32.3C1061.8,580.5,1060.7,564.2,1060.9,547.9z"/>
	<path d="M1022.6,252l-0.4,0.4c0,0,0.3-0.6,0.3-0.6C1022.5,251.8,1022.6,252,1022.6,252z"/>
</g>
</svg>