<?xml version="1.0" encoding="utf-8"?>
<svg version="1.1" id="Layer_1" xmlns="http://www.w3.org/2000/svg" xmlns:xlink="http://www.w3.org/1999/xlink" x="0px" y="0px"
	 viewBox="0 0 1206.6 1207.1" style="enable-background:new 0 0 1206.6 1207.1;" xml:space="preserve">
	 	<defs>
		<linearGradient id="gradient" x1="0%" y1="0%" x2="100%" y2="0%">
  <stop offset="0%" stop-color="#fffde7" />
  <stop offset="50%" stop-color="#ecf571" />
  <stop offset="100%" stop-color="#f5d109" />
</linearGradient>
	</defs>
<g fill="url(#gradient)">
	<path d="M691.7,898.7c-2.5,0.7-4.9,1.7-7.4,2.1c-6,1-12.1,1.4-18,2.6c-9.4,1.9-19.1,1.3-28.5,3.2c-2.2,0.4-4.5,0.3-6.7,0.3
		c-20.1,0-40.3,0-60.4,0c-3.2,0-6.4-0.5-9.5-0.8c-1.6-0.2-3.2-0.6-4.8-0.6c-8,0-15.9-1.4-23.8-2.5c-5.3-0.7-10.8-1.5-15.9-3.3
		c-2.2-0.8-2.8-2.3-1.8-4.5c0.3-0.6,0.6-1.2,0.8-1.7c0.7-1.4,1.5-2.8,2.2-4.3c3.4-6.5,6.6-13.1,10.3-19.5c2.8-4.9,4.3-9.9,3.8-15.5
		c0-0.3,0-0.6,0-1c0-55,0-110,0-165c0-3.2-0.2-6.4-0.5-9.6c-0.1-1.5-1.7-3-3.1-3.3c-0.9-0.2-1.9-0.4-2.8-0.4
		c-2.9-0.1-5.8-0.1-8.6-0.1c-53.7,0-107.4,0-161.1,0c-12.8,0-9.6-1.1-22.7,5.7c-6.5,3.4-13,6.9-19.5,10.3c-1.1,0.6-2.3,1-3.5,1.4
		c-0.7,0.3-2.2-0.4-2.4-1.2c-0.6-2.5-1.5-4.9-1.9-7.4c-1.7-12-3.4-24-4.6-36.1c-2.6-26.2-1.6-52.4-1.3-78.6
		c1.5-10.1,1.3-20.4,3.2-30.5c1-5.3,1.6-10.7,2.6-16.1c0.4-2.2,1.2-4.3,1.9-6.4c0.2-0.7,1.7-1.4,2.4-1.1c1.2,0.4,2.4,0.8,3.5,1.4
		c6.5,3.4,13,6.9,19.5,10.3c2.5,1.3,5.1,2.6,7.7,3.9c2.3,1.2,4.7,1.8,7.4,1.8c2.2,0,4.5,0,6.7,0c54.3,0,108.7,0,163,0
		c3.2,0,6.4-0.1,9.6-0.3c2.3-0.2,4-2,4.3-4.4c0.1-1.3,0.2-2.5,0.3-3.8c0-2.2,0-4.5,0-6.7c0-53.7,0-107.4,0-161.2
		c0-11.5,0.8-9.9-5.2-20.9c-3.7-6.7-7.1-13.6-10.6-20.4c-0.6-1.1-1.1-2.3-1.6-3.5c-0.5-1.2,0.2-2.8,1.4-3.1c2.5-0.6,4.9-1.4,7.5-1.8
		c12.7-1.7,25.3-3.5,38-4.7c24.3-2.2,48.6-2,72.8-1.1c16.6,0.6,33.1,2.3,49.5,5.5c2.2,0.4,4.4,0.9,6.3,2.1c0.8,0.5,1.7,2.5,1.3,3.4
		c-1.2,2.6-2.4,5.2-3.8,7.8c-3.5,6.8-7.1,13.6-10.7,20.4c-1.7,3.2-2.7,6.5-2.4,10.1c0.1,1.9,0,3.8,0,5.8c0,54,0,108.1,0,162.1
		c0,3.5,0.1,7,0.3,10.5c0.1,1.9,1.8,3.7,3.7,3.9c3.2,0.2,6.4,0.4,9.6,0.4c21.1,0,42.2,0,63.3,0c33.2,0,66.5,0,99.7,0
		c11.3,0,9.4,1,21.8-5.6c5.9-3.2,11.9-6.3,17.8-9.4c1.1-0.6,2.3-1.1,3.5-1.6c2-0.9,4.2-0.1,4.6,1.9c0.8,3.1,1.5,6.2,2.1,9.3
		c0.5,2.8,1.1,5.7,1.4,8.5c0.7,8.3,2.5,16.4,2.7,24.8c0,2.2,0.1,4.5,0.4,6.7c1.5,9.8,1.4,19.8,1.4,29.7c0.1,7,0,14.1,0,21.1
		c-0.1,8.6,0.1,17.3-1.3,25.8c-0.3,1.9-0.3,3.8-0.4,5.7c-0.4,11.8-2.5,23.5-4.4,35.1c-0.4,2.2-1.1,4.3-1.8,6.5
		c-0.3,1.2-2,1.8-3.2,1.3c-1.5-0.6-2.9-1.3-4.3-2c-7.1-3.7-14.2-7.4-21.3-11c-9.1-4.7-7.2-4.3-17.3-4.3c-34.8,0-69.7,0-104.5,0
		c-20.5,0-40.9,0-61.4,0c-12.4,0-12.4,0.1-12.4,12c0,56,0,111.9,0,167.9c0,1.3,0.1,2.6,0,3.8c-0.1,3,0.7,5.7,2.1,8.3
		c3.4,6.5,6.8,13,10.2,19.5c1.6,3.1,3.3,6.2,4.8,9.4C692,896.5,691.7,897.5,691.7,898.7z"/>
	<path d="M1073.1,167.4c-2.1,0.9-3.5,2.8-4.9,4.5c-17.5,20.8-34.9,41.6-52.4,62.5c-18.5,22-37,44.1-55.5,66.1
		c-25.5,30.4-50.9,60.7-76.4,91.1c-17.9,21.3-35.8,42.6-53.6,63.9c-3.1,3.7-6.2,7.3-9.2,11c-2.8,3.5-6.1,5.2-10.7,5.1
		c-11.8-0.2-23.7-0.1-35.5-0.1c-9.6,0-19.2,0-28.8,0c-1.9,0-3.8-0.2-5.7-0.5c-1-0.1-2.5-1.6-2.6-2.6c-0.2-2.2-0.5-4.4-0.5-6.7
		c0-14.1,0-28.1,0-42.2c0-8.3,0-16.6,0-24.9c0-1.9,0-3.8,0.2-5.7c0.1-1.7,1-3.1,2.2-4.1c1.5-1.2,3.1-2.3,4.7-3.4
		c35-23,70-46,105-68.9c15.8-10.3,31.5-20.7,47.3-31c39.6-25.9,79.1-51.9,118.7-77.8c16-10.5,32.1-21,48.1-31.5
		c2.9-1.9,5.7-4.2,9.4-4.4L1073.1,167.4z"/>
	<path d="M136.3,169.3c3.2,0.7,5.7,2.8,8.4,4.5c10.7,7,21.4,14,32.1,21c33.9,22.3,67.8,44.6,101.8,66.9
		c60.4,39.6,120.8,79.2,181.2,118.8c8,5.2,8.1,5.2,8.1,14.6c0,22.1,0.1,44.1,0,66.2c0,9.9-0.5,10.3-10.3,10.3c-20.1,0-40.3,0-60.4,0
		c-1.9,0-3.9,0-5.7-0.2c-1.2-0.2-2.5-0.7-3.4-1.5c-2.1-2-4-4.1-5.8-6.3c-11.7-13.9-23.4-27.9-35.2-41.8
		c-18.3-21.8-36.6-43.6-54.9-65.4c-21.4-25.5-42.7-50.9-64.1-76.4c-19.1-22.8-38.2-45.5-57.4-68.3c-10.5-12.5-21-25-31.5-37.4
		c-1.2-1.5-2.4-3-2.8-5L136.3,169.3z"/>
	<path d="M1041.2,1071.6c-0.9-2.2-2.7-3.5-4.4-5c-12.5-10.5-25-20.9-37.5-31.4c-22.8-19.1-45.5-38.3-68.3-57.4
		c-21.3-17.9-42.6-35.7-63.9-53.6c-21.8-18.3-43.6-36.6-65.4-54.9c-18.4-15.4-36.7-30.8-55.1-46.2c-10.8-9.1-9.2-7-9.3-20.2
		c-0.1-18.2,0-36.4,0-54.7c0-10.7,0.3-11.7,12-11.7c16,0.1,32,0,47.9,0c5.4,0,10.9,0,16.3,0c2.2,0,4.5,0.1,6.7,0.3
		c2,0.2,3.7,1.1,4.9,2.7c1.2,1.5,2.2,3.1,3.3,4.7c37.2,56.6,74.4,113.3,111.5,170c23.8,36.3,47.7,72.7,71.5,109.1
		c8.6,13.1,17.2,26.2,25.7,39.3c1.7,2.7,3.8,5.2,3.7,8.7L1041.2,1071.6z"/>
	<path d="M166,1068.7c-0.1-0.3-0.4-0.6-0.3-0.8c0.9-1.7,1.8-3.4,2.9-4.9c7.8-12.1,15.7-24.1,23.6-36.1
		c33.1-50.5,66.3-101,99.4-151.5c28.2-43,56.4-86.1,84.6-129.2c1.1-1.6,2.1-3.2,3.2-4.8c1.9-2.9,4.5-4.5,8-4.6
		c1.6,0,3.2-0.1,4.8-0.1c21.4,0,42.8,0,64.2,0c2.2,0,4.5,0.2,6.7,0.4c2.4,0.2,4.2,2,4.5,4.3c0.2,1.9,0.4,3.8,0.4,5.7
		c0,20.1,0,40.3,0,60.4c0,1.3-0.1,2.6-0.1,3.8c0,3.1-1.2,5.5-3.5,7.5c-3.7,3.1-7.3,6.2-11,9.3c-31.3,26.3-62.7,52.6-94,78.9
		c-25.5,21.4-51,42.7-76.4,64.1c-22.5,18.9-45,37.9-67.5,56.8c-15.9,13.4-31.8,26.7-47.7,40.1C167.2,1068.3,166.6,1068.5,166,1068.7
		z"/>
	<path d="M244.6,710.8c-0.5,1.9-1.4,2.8-2.6,3.4c-1.2,0.6-2.8,0.5-3.6-0.3c-0.9-0.9-1.8-1.8-2.6-2.8c-20.5-24.6-44.8-44.5-72.2-60.9
		c-29.1-17.3-60.3-29.1-93.3-36.3c-9.3-2-18.8-3.7-28.3-4.7c-6.4-0.7-12.7-1.4-19.1-1.7c-7-0.4-14-1.2-21-1.8
		c-0.3,0-0.7-0.2-0.9-0.4c-0.4-0.4-1-1-1-1.5c0-0.5,0.4-1.2,0.8-1.6c0.4-0.4,1.1-0.6,1.7-0.7c1.9-0.1,3.8-0.2,5.7-0.2
		c40-1,78.6-9,115.7-24.1c34.4-14,65-34.1,92.1-59.5c6.5-6.1,12.4-12.9,18.2-19.7c1.2-1.5,2.5-2.9,3.7-4.4c1.2-1.3,2.7-1.4,4.3-0.5
		c1.5,0.9,2.5,2.6,2.2,3.9c-0.2,0.9-0.5,1.9-0.7,2.8c-3.9,13.2-7.1,26.5-9.5,40.1c-1.2,6.6-1.7,13.3-2.9,19.9
		c-1.7,9.2-1.7,18.4-2.7,27.6c-1,9.5-0.7,19.2,0.1,28.7c0.2,2.5,0.6,5.1,0.6,7.6c0.3,15.1,2.8,29.9,5.3,44.7
		c2.2,13.3,5.5,26.2,9.2,39.1C244.3,708.8,244.4,710.1,244.6,710.8z"/>
	<path d="M497,243.7c-2.4,0.2-3.7-0.7-4.3-2c-0.6-1.2-0.7-2.5,0.2-3.6c1-1.2,2.1-2.4,3.4-3.4c26.1-21.7,46.7-47.9,63.5-77.3
		c15.6-27.4,26.3-56.7,33.1-87.4c2.1-9.3,3.4-18.8,4.7-28.3c1.7-12.4,2.1-24.8,3.2-37.2c0.1-1.2,0.4-2.5,0.9-3.7
		c0.2-0.5,1-0.9,1.5-0.9c0.5,0,1.2,0.4,1.5,0.9c0.4,0.5,0.6,1.1,0.6,1.7c0.1,2.9,0.2,5.7,0.2,8.6c0.2,7.3,0.4,14.7,1.5,22
		c0.9,5.7,1.3,11.4,2.2,17.1c3.4,22.5,9.2,44.3,17.2,65.6c11.9,31.4,28.7,59.8,50.1,85.5c9.8,11.8,20.7,22.6,32.4,32.5
		c1.5,1.2,2.9,2.5,4.3,3.8c1.1,1.1,1.2,2.7,0.2,4.4c-0.8,1.5-1.9,2.2-3,2c-1.9-0.4-3.8-0.6-5.6-1.2c-15.2-4.7-30.9-8-46.6-10.5
		c-7.5-1.2-15.1-2.8-22.8-2.7c-1.3,0-2.6-0.1-3.8-0.3c-15.6-2.6-31.2-1.8-46.8-0.9c-11.7,0.7-23.6,1.6-35.2,3.6
		c-15.7,2.7-31.4,5.6-46.7,10.2C500.6,243,498.1,243.5,497,243.7z"/>
	<path d="M495.5,962.6c0.8,0.1,2,0.3,3.3,0.6c9.6,2.4,19.2,4.9,28.8,7.1c10.6,2.5,21.3,4,32.1,5.5c8.9,1.3,17.8,1.8,26.7,2.5
		c10.8,0.9,21.7,0.6,32.6-0.2c2.5-0.2,5.1-0.5,7.6-0.6c13.7-0.6,27.3-2.6,40.9-5c13.2-2.3,26.2-5.6,39.1-9.2
		c1.2-0.3,2.5-0.6,3.7-0.8c1.8-0.3,4.3,2.8,3.8,4.6c-0.2,0.6-0.4,1.2-0.8,1.7c-0.6,0.7-1.3,1.4-2.1,2
		c-29.3,24.2-51.9,53.5-69.5,87.1c-12.7,24.2-21.8,49.7-27.8,76.3c-3.3,15-5.8,30.1-6.8,45.4c-0.5,8.3-1.4,16.5-1.7,24.8
		c0,0.6-0.3,1.3-0.6,1.7c-0.4,0.5-1,0.9-1.5,0.9c-0.5,0-1.3-0.5-1.5-1c-0.4-0.8-0.6-1.8-0.7-2.7c-0.1-2.9-0.1-5.8-0.2-8.6
		c-0.1-5.4-0.5-10.8-1.2-16.2c-0.9-6.6-1.3-13.3-2.3-20c-3.2-22.2-8.6-43.9-16.4-64.9c-11.6-31.1-27.7-59.6-48.7-85.4
		c-10.7-13.2-22.6-25.2-35.6-36.1c-1.5-1.2-2.9-2.6-4-4.1c-0.5-0.6-0.4-1.8-0.2-2.7C492.9,964.2,493.7,963.2,495.5,962.6z"/>
	<path d="M977.6,604.6c-0.2-6.1-0.4-12.1-0.6-18.2c-0.2-6.1-0.4-12.1-1.4-18.1c-0.9-5.7-1.3-11.4-2.1-17.1
		c-2.1-15.2-5.4-30.1-9.4-44.9c-0.8-3.1-1.5-6.2-2.2-9.3c-0.3-1.3,0.8-3.1,2.3-3.8c1.3-0.7,2.7-0.6,3.6,0.3c1.5,1.6,3.1,3.2,4.5,5
		c18.4,22,40.4,39.9,64.6,55.1c30.4,18.9,63.1,32,98.1,39.6c15,3.2,30.1,5.8,45.4,6.6c7,0.3,14,0.9,21,1.4c1.3,0.1,2.5,0.3,3.8,0.5
		c0.8,0.1,1.6,1.4,1.3,2.2c-0.2,0.5-0.7,1.2-1.1,1.4c-1.2,0.3-2.5,0.5-3.7,0.6c-3.8,0.1-7.7,0-11.5,0.2c-3.8,0.2-7.6,0.7-11.4,1
		c-1.3,0.1-2.5,0.4-3.8,0.5c-43,3.3-84.1,16.7-116.1,33.2c-28.6,14.8-54.3,33.5-76.6,56.8c-4,4.1-7.6,8.6-11.4,12.9
		c-1.1,1.2-2.1,2.4-3.2,3.5c-0.8,0.9-2.3,0.9-3.6,0.3c-1.2-0.7-2.1-1.6-2.1-3c0-1.6,0.3-3.1,0.7-4.7c2.5-10.2,5.3-20.4,7.5-30.7
		c2.2-10.6,3.7-21.3,5.2-32.1c1.5-10.8,1.3-21.7,2.5-32.5c0.2-2.2,0-4.5,0-6.7C977.8,604.6,977.7,604.6,977.6,604.6z"/>
	<path d="M134.4,166.4l-0.4-0.1c0,0,0.2,0.3,0.2,0.3C134.3,166.7,134.4,166.4,134.4,166.4z"/>
	<path d="M1072.9,167.7c0-0.2-0.1-0.4-0.1-0.6c-0.5,0.3-0.4,0.4,0.3,0.2C1073.1,167.4,1072.9,167.7,1072.9,167.7z"/>
	<path d="M136.6,169.1c-0.7-0.9-1.4-1.7-2.1-2.6c0,0-0.2,0.2-0.1,0.2c0.7,0.9,1.4,1.7,2.1,2.6C136.3,169.3,136.6,169.1,136.6,169.1z
		"/>
	<path d="M1040.9,1071.4c0.2,0,0.4-0.1,0.6-0.1c-0.2-0.5-0.3-0.4-0.3,0.3C1041.2,1071.6,1040.9,1071.4,1040.9,1071.4z"/>
</g>
</svg>