<?xml version="1.0" encoding="utf-8"?>
<!-- Generator: Adobe Illustrator 25.1.0, SVG Export Plug-In . SVG Version: 6.00 Build 0)  -->
<svg version="1.1" id="Layer_1" xmlns="http://www.w3.org/2000/svg" xmlns:xlink="http://www.w3.org/1999/xlink" x="0px" y="0px"
	 viewBox="0 0 925.3 1184.3" style="enable-background:new 0 0 925.3 1184.3;" xml:space="preserve">
	<defs>
		<linearGradient id="gradient" x1="0%" y1="0%" x2="100%" y2="0%">
  <stop offset="0%" stop-color="#fffde7" />
  <stop offset="50%" stop-color="#cddc39" />
  <stop offset="100%" stop-color="#2e7d32" />
</linearGradient>
	</defs>
<g id="druid-symbol" fill="url(#gradient)">
	<path d="M564.6,1039.5c0.8-2.9,3.1-4.8,5-6.9c16.8-17.6,32.3-36.3,46.7-55.9c17.1-23.2,32.3-47.6,45.2-73.4
		c15.4-30.7,27.3-62.7,34.4-96.3c2.1-10,3.6-20.1,5-30.2c2.8-20.7,1.9-41.5,1.3-62.2c-0.2-6.4-1.2-12.7-2.2-19
		c-3.9-25-10.7-49.3-20.5-72.7c-9-21.6-20.2-42.1-33.2-61.5c-9.6-14.3-20.1-28.1-31.4-41.1c-1.3-1.4-2.5-2.9-3.9-4.2
		c-2.1-2.1-5.6-2-7.6,0.4c-0.6,0.7-1.2,1.8-1,2.6c0.6,2.8,1.5,5.5,2.4,8.3c4.7,13.9,9.1,27.9,12.7,42.2c4.6,18,8.5,36,11.2,54.4
		c1.5,10.4,2.8,20.9,3.9,31.3c2.6,23.9,2.5,47.9,2,71.8c-0.1,5.4-0.3,10.9-0.5,16.3c-0.2,3.5-0.6,7-0.9,10.5
		c-0.2,1.6-0.5,3.2-0.6,4.8c-0.6,9.6-2.3,19-3.7,28.5c-2.3,15.8-5.9,31.4-9.9,46.8c-6,22.9-14,45.1-23.5,66.8
		c-19.9,45.1-46.4,86-78.8,123.1c-5,5.8-10.1,11.6-15.5,17c-3.3,3.4-5.2,7.1-6.1,11.6c-1.5,7.5-3.1,15-4.7,22.5
		c-4.1,19.7-8.2,39.4-12.3,59.1c-2.9,14.1-5.9,28.1-8.9,42.2c-0.2,0.9-0.3,1.9-0.5,2.8c-1.1,4.3-3.2,5.7-7.7,5.2
		c-1.7-0.2-3.2-0.9-3.6-2.6c-1.3-5.3-2.6-10.5-3.7-15.8c-4.6-21.6-9-43.1-13.6-64.7c-3.3-15.6-6.8-31.2-9.6-46.9
		c-1.1-6-3.6-10.6-7.8-14.9c-21.3-22.2-40.2-46.3-56.9-72.2c-25.2-38.9-44.4-80.5-57.2-125c-5.7-20-10.1-40.2-13.1-60.8
		c-1.7-11.4-3.3-22.7-3.8-34.3c0-0.6,0-1.3-0.1-1.9c-2.1-15.6-1.5-31.3-1.5-46.9c0-8.6-0.1-17.3,1.3-25.8c0.2-1.3,0.2-2.5,0.3-3.8
		c1.6-28.8,6.3-57.1,12.7-85.2c4.3-18.7,9.6-37.1,16-55.2c1-2.7,1.7-5.5,2.4-8.2c0.4-1.7-0.3-3.2-1.7-4.2c-1.9-1.4-4.8-1.5-6.3-0.1
		c-1.6,1.5-3.2,3.1-4.6,4.8c-3.5,4.1-7,8.3-10.4,12.5c-18.6,23.3-34.7,48.2-47.5,75.2c-11.7,24.7-20.3,50.3-25.1,77.2
		c-1.7,9.8-2.9,19.6-3.9,29.4c-1.2,11.2-1.3,22.3-1.2,33.5c0.1,4.8,0.7,9.6,1,14.3c0.1,1,0.3,1.9,0.3,2.9
		c0.7,17.6,4.3,34.9,8.3,51.9c5.8,24.3,14.3,47.7,24.7,70.4c18.4,40,41.9,76.8,69.6,111c9.5,11.7,19.3,23.1,29.8,33.8
		c2.2,2.3,4.2,4.8,7.1,6.4l-0.2-0.3c-4.3-0.4-7.8-2.8-11.4-4.8c-10.1-5.5-20.1-11.1-30.1-17c-32.8-19.3-64.6-40.2-95-63.1
		c-40.5-30.4-78-64.2-112.2-101.6c-30.7-33.6-57.9-69.9-80.4-109.5c-12.3-21.7-23.3-44.1-31.5-67.7c-0.9-2.7-2-5.4-2.2-8.3
		c-0.1-1.3,0.9-2.7,2.1-2.7c2.9-0.1,5.7-0.3,8.6-0.3c28.5,0,56.9,0,85.4,0c3.2,0,6.4-0.2,9.6-0.5c1.4-0.1,2.7-2.3,2.2-3.7
		c-0.4-1.2-0.8-2.4-1.4-3.5c-12.7-24.6-21.1-50.7-27.3-77.5c-3.4-14.9-6.3-30-8.1-45.2c-0.9-7.6-2.1-15.2-3.1-22.8
		c-0.3-1.9-0.3-3.8-0.4-5.7c-0.2-2.6-0.1-5.1-0.5-7.7c-1.5-8.9-1.3-17.8-1.8-26.8c-0.3-6.4-1.1-12.8-1.1-19.1
		c-0.2-18.5,0-37.1,0-55.6c1.3-10.2,1.3-20.4,1.5-30.6c0.2-8,1.6-15.9,2.2-23.8c0.1-1.4,1.9-3.1,3.3-3.1c3.2-0.1,6.4-0.1,9.6,0
		c8,0.4,16,1.1,23.9,1.2c15.3,0.2,30.7,1.2,46,1.8c1.6,0.1,3.2,0.2,4.8,0.2c17.9,0,35.8,1.6,53.7,2.1c1.6,0,3.2,0.1,4.8,0.3
		c1.6,0.2,3.1,1,4.1,2.3c1.4,1.7,2.7,3.5,4,5.4c5.5,7.9,10.9,15.8,16.3,23.7c1.1,1.6,2.4,3,3.6,4.4c0.7,0.8,2.9,0.4,3.4-0.5
		c0.8-1.4,1.6-2.8,2.2-4.2c15.4-37.2,33.5-73.2,52.2-108.9c12.9-24.6,26.6-48.8,40.5-72.9c21-36.3,42.6-72.1,65.1-107.4
		c17.2-26.9,34.9-53.5,52.4-80.3c1-1.6,2.3-3.1,3.4-4.6c0.5-0.7,2.1-0.7,2.6,0c1.4,1.8,2.8,3.5,4,5.4c19.4,28.6,38.1,57.6,56.5,86.8
		c17.5,27.9,34.7,56,51.3,84.4c14.5,24.8,28.7,49.8,42.4,75.1c13.2,24.5,25.7,49.3,37.9,74.3c7.3,15,14,30.1,20.5,45.4
		c0.9,2.1,1.8,4.1,2.8,6.1c1,2,3.5,2.4,4.8,0.8c1.4-1.7,2.8-3.5,4.1-5.3c4.5-6.6,9-13.2,13.5-19.8c8-11.6,5.4-9.8,19.2-10.5
		c20.7-1.1,41.5-1.4,62.3-2.5c16.6-0.9,33.2-0.9,49.8-1.8c5.4-0.3,10.8-0.8,16.3-1c6.2-0.2,8.4,0.4,9.2,8c0.2,1.9,0.1,3.8,0.3,5.7
		c0.5,6.7,1,13.4,1.5,20.1c0.2,2.2,0.3,4.5,0.3,6.7c0.8,30.4,0.8,60.7,0,91.1c-0.1,2.9-0.4,5.7-0.6,8.6c-0.2,2.2-0.7,4.4-0.7,6.7
		c0,10.6-1.7,21-2.6,31.5c-0.7,7.6-2.2,15.2-3.1,22.8c-1.4,11.4-3.8,22.7-6.1,33.9c-6,28.2-14.6,55.6-27.5,81.5
		c-0.7,1.4-1.4,2.9-2,4.4c-0.9,2.3,0.5,4.5,3.1,4.6c3.2,0.2,6.4,0.3,9.6,0.3c25.6,0,51.2,0,76.7,0c3.2,0,6.4,0,9.6,0
		c1.6,0,3.2,0,4.8,0.1c2.7,0.2,4.2,2.1,3.6,4.5c-0.7,2.5-1.5,4.9-2.3,7.3c-3.3,9.7-7.2,19.1-11.5,28.4c-15,32.7-33.3,63.3-54.5,92.3
		c-25.3,34.7-53.9,66.6-85.1,96.1c-29.3,27.7-60.6,53-93.5,76.4c-33.7,23.9-68.7,45.6-105,65.3c-3.1,1.7-6,3.6-9,5.4
		C564.4,1039.7,564.6,1039.5,564.6,1039.5z M522.3,682.2C522.2,682.2,522.2,682.2,522.3,682.2c-0.1-2.6-0.1-5.1-0.1-7.7
		c-0.2-10.2,0.1-20.5-0.8-30.7c-1.1-12.1-0.9-24.2-2.7-36.3c-1.3-8.5-1.5-17.2-2.6-25.7c-1.4-10.8-3.4-21.4-5-32.2
		c-2.4-16.1-5.8-32-9.5-47.9c-3.8-16.2-7.2-32.4-10.3-48.7c-2.8-15.1-5.9-30.1-8.7-45.1c-1.6-8.5-3-17-4.3-25.5
		c-1.6-10.4-3-20.8-4.5-31.3c-2.1-14.2-4.1-28.4-5.4-42.7c-0.2-2.5-0.9-5-1.6-7.4c-0.5-1.8-2.6-2.8-4.7-2.5c-1.7,0.2-3,1.1-3.6,2.7
		c-0.4,1.2-0.6,2.5-0.8,3.7c-0.8,7-1.5,14-2.5,20.9c-0.9,7.3-2.1,14.5-3.1,21.8c-1.5,10.4-2.8,20.9-4.5,31.3
		c-2.3,13.9-4.7,27.7-7.3,41.5c-3.4,18.2-6.9,36.4-10.7,54.5c-2.4,11.9-5.4,23.6-7.9,35.5c-3.2,15-6.1,30-8.5,45.2
		c-2.3,14.5-4.5,29-5.6,43.7c-0.1,1.3-0.4,2.5-0.5,3.8c-0.4,4.4-0.8,8.9-1.2,13.4c-0.2,2.2,0,4.5-0.4,6.7
		c-1.6,9.5-1.4,19.1-1.7,28.7c-0.2,6.4-0.6,12.8-0.8,19.1c-0.1,7.7-0.1,15.3,0,23c0.1,5.4,0.8,10.8,0.7,16.3
		c-0.2,15.4,1.9,30.6,2.5,45.9c0,1,0.2,1.9,0.3,2.9c1,8.2,2,16.5,3,24.7c0.8,7,1.4,14,2.6,20.9c2.2,12.9,4.3,25.8,6.8,38.7
		c6.3,33,14.8,65.4,25.2,97.3c3.9,11.8,8.5,23.4,12.8,35.1c1,2.7,2.4,5.2,3.6,7.8c0.7,1.3,3.2,1.1,4.1-0.2c2.5-3.8,3.9-8.1,5.5-12.2
		c7.1-18.5,13.4-37.2,18.9-56.3c6.3-21.8,11.8-43.8,16.1-66c3.8-19.7,7.5-39.5,9.8-59.5c1.2-10.8,3.1-21.5,3.5-32.4
		c0.1-1.3,0.1-2.6,0.4-3.8c1.1-6,1.2-12.1,1.4-18.1c0.1-2.9,0.2-5.7,0.4-8.6c0.3-5.4,0.9-10.8,1.1-16.2
		C522.1,700.7,522.1,691.4,522.3,682.2z"/>
	<path d="M743.4,276.8c-2.9,0-5.7,0.1-8.6,0c-1.3-0.1-2.5-0.8-3-2.1c-0.8-2.1-1.6-4.2-2.3-6.3c-3.3-10.4-6.3-20.8-9.8-31.1
		c-11.9-34.9-26.2-68.7-43.4-101.2c-13.6-25.7-28.5-50.7-45.5-74.4c-5.6-7.8-4.9-7.6,1.6-14.2c0.7-0.7,1.4-1.3,2.2-1.9
		c1.1-0.8,2.3-1.2,3.6-0.5c1.7,0.9,3.4,1.8,5,2.9c22.3,14.5,43.3,30.6,63.1,48.4c22.4,20.2,42.5,42.4,60.2,66.9
		c17.3,23.9,32,49.4,42.9,76.8c3.1,7.7,5.5,15.7,8.2,23.5c0.4,1.2,0.5,2.5,0.7,3.7c0.2,1.5-1,3.3-2.3,3.8c-3,1.1-6.1,1.7-9.4,1.8
		c-2.9,0-5.8,0.1-8.6,0.2c-3.2,0.1-6.4,0-9.6,0.5c-7.3,1.2-14.6,1.3-22,1.5c-3.2,0.1-6.4,0.4-9.6,0.7c-4.4,0.4-8.9,0.9-13.3,1.3
		C743.4,277.1,743.4,276.9,743.4,276.8z"/>
	<path d="M179.7,277c-2.4-0.2-6.5-0.8-10.6-1.1c-5.4-0.4-10.8-0.7-16.3-0.9c-4.1-0.2-8.3-0.5-12.4-0.9c-6.3-0.7-12.7-0.8-19.1-1
		c-4.2-0.1-8.3-0.6-12.3-1.8c-1.6-0.5-2.5-2-2-3.8c1.4-4.9,2.7-9.9,4.4-14.7c9.9-28.6,23.9-55,40.9-80
		c28-41.1,62.5-75.9,102.3-105.5c9-6.7,18.3-12.8,27.5-19.2c1.6-1.1,3.3-2,5-2.8c1.2-0.6,2.6-0.4,3.6,0.5c2.3,2.2,4.5,4.5,6.6,6.9
		c0.9,1,1.1,2.4,0.4,3.6c-1.3,2.2-2.7,4.3-4.1,6.5c-7.5,11.5-15.3,22.9-22.5,34.5c-14.1,22.9-26.7,46.5-38,70.9
		C220,196.8,209,226,199.6,255.9c-1.8,5.8-3.4,11.6-5.3,17.4c-0.8,2.3-2.6,3.5-5.1,3.6c-1,0-1.9,0.1-2.9,0.1
		C184.6,277,183,277,179.7,277z"/>
	<path d="M891.8,832c1.3,6.4,1.5,12.4,0.3,18.4c-0.3,1.6-0.4,3.2-0.6,4.8c-2.1,25.3-7.5,49.8-15.9,73.7
		c-5.1,14.5-11.6,28.3-19.5,41.6c-10.8,18.1-24.7,33.2-41.6,45.7c-23.8,17.6-49.4,31.6-77.1,42c-18.9,7.1-38.2,12.4-57.9,16.3
		c-10.9,2.1-21.9,4.4-33.1,4.7c-14.6,2.5-29.3,1.8-43.9,2.1c-1.3,0-2.5-0.3-3.8-0.5c-0.2,0-0.4-0.5-0.3-0.7c0-0.3,0.2-0.7,0.4-0.8
		c2-0.9,4-1.8,6.1-2.6c44.1-16.5,86.1-37.3,125.4-63.3c35.9-23.7,68.5-51.3,97.1-83.5c23.2-26.1,43.2-54.5,58.8-85.9
		C888.1,840.1,889.9,836,891.8,832z"/>
	<path d="M327.7,1080.3c-1.1,1.3-2.4,1-3.6,1c-11.5-0.2-23-0.3-34.5-0.7c-3.5-0.1-6.9-1.1-10.4-1.4c-5.4-0.4-10.8-1.2-16.1-2
		c-41.2-5.9-80.2-18.2-116.7-38.1c-16.6-9-32.1-19.7-46.5-31.9c-11.1-9.3-20.2-20.4-28-32.6c-11-17.3-19.2-36-25.4-55.6
		c-4.9-15.6-8.5-31.4-10.9-47.5c-1.7-11.7-3-23.4-3-35.3c0-1.5,0.5-2.6,1-2.2c0.7,0.6,1.5,1.2,1.8,2c4,8.7,8.5,17.1,13.2,25.5
		c13.5,24,29.9,46,48,66.8c30.3,34.6,65.4,63.6,103.9,88.6c35.8,23.2,73.8,42,113.5,57.4c3.9,1.5,7.8,2.9,11.6,4.4
		C326.4,1079.1,327,1079.8,327.7,1080.3z"/>
	<path d="M363,1039l-0.3,0.3c0,0,0.1-0.6,0.1-0.5C362.7,1038.8,363,1039,363,1039z"/>
	<path d="M564.4,1039.7l-0.5-0.2c0,0,0.7,0,0.7,0C564.6,1039.5,564.4,1039.7,564.4,1039.7z"/>
</g>
</svg>