<?xml version="1.0" encoding="utf-8"?>
<svg version="1.1" id="Layer_1" xmlns="http://www.w3.org/2000/svg" xmlns:xlink="http://www.w3.org/1999/xlink" x="0px" y="0px"
	 viewBox="0 0 1102.2 1037.6" style="enable-background:new 0 0 1102.2 1037.6;" xml:space="preserve">
	<defs>
<linearGradient id="gradient" x1="0%" y1="0%" x2="100%" y2="0%">
  <stop offset="0%" stop-color="#79aff5" />
  <stop offset="50%" stop-color="#7a71f5" />
  <stop offset="100%" stop-color="#000000" />
</linearGradient>
	</defs>
<g fill="url(#gradient)">
	<path d="M1000,321.5c12.4-1.1,24.8-2.2,37.2-3.3c8.6-0.8,17.2-1.6,25.8-2.3c1.2-0.1,2.6,0.1,3.7,0.5c0.8,0.3,1.7,1.1,1.9,1.9
		c1.2,3.4,0.9,6.9,0,10.4c-0.2,0.9-0.8,1.8-1.4,2.5c-1.9,2.1-3.9,4.2-6,6.2c-24.8,24.5-49.5,49.1-74.3,73.5
		c-22.5,22.2-45.1,44.4-67.7,66.6c-1.8,1.8-3.7,3.5-5.6,5.2c-0.7,0.7-2.2,0.4-2.4-0.5c-1.2-5-2.5-9.9-3.6-14.9
		c-4.5-20.7-11.2-40.6-19.2-60.2c-6.7-16.3-14.6-32-23.5-47.1c-1.8-3-3.7-6-5.7-8.9c-2.6-3.8-4.4-3.3-7.1-1.1
		c-1,0.8-1.9,1.7-2.8,2.6c-2,2-4.1,4.1-6.1,6.1C683.4,518.8,523.3,678.9,363.3,838.9c-29.4,29.4-58.8,58.8-88.1,88.2
		c-1.8,1.8-3.7,3.6-5.4,5.4c-2.7,2.9-5.9,4.6-9.8,5.6c-27.1,7.4-54.1,15.1-81.2,22.6c-14.8,4.1-29.5,8.2-44.3,12.3
		c-0.9,0.3-1.8,0.5-2.8,0.7c-1.4,0.3-3.2-1.5-3-3c0.2-1.6,0.6-3.1,1-4.7c4.1-15.1,8.3-30.2,12.5-45.3c6.8-24.3,13.6-48.6,20.4-72.9
		c1-3.7,1.7-7.6,3.6-10.9c1.9-3.2,5-5.8,7.7-8.5c175.9-175.9,351.8-351.8,527.7-527.7c15.4-15.4,30.7-30.8,46.1-46.2
		c2-2,3.9-4.2,5.8-6.4c0.9-1.1,0.6-3.5-0.6-4.3c-2.3-1.7-4.7-3.3-7.2-4.8c-11.2-6.8-22.7-13.1-34.6-18.7
		c-21.4-10.1-43.5-18.5-66.5-24.4c-8.3-2.1-16.7-4.1-25.3-5.2c-1.2-0.2-2.1-2.1-1.4-3c0.4-0.5,0.7-1.1,1.2-1.5
		c1.3-1.4,2.7-2.7,4-4.1c47-47,94.1-94.1,141.1-141.1c1.4-1.4,2.8-2.6,4.1-4.1c4.4-5,9.9-5.2,15.8-3.9c1,0.2,2.3,1.9,2.3,2.8
		c0,1,0,1.9-0.1,2.9c-0.3,3.8-0.6,7.6-0.9,11.5c-0.4,4.1-0.7,8.3-1.1,12.4c-0.1,1-0.3,1.9-0.3,2.9c-0.8,10.8-1.6,21.7-2.5,32.5
		c-0.2,2.9-0.7,5.7-0.9,8.6c-0.2,1.9-0.3,3.8-0.2,5.7c0.1,1.7,0.9,3,2.3,4c1,0.7,2.1,1.4,3.3,2c24,12.4,45.9,27.8,66.9,44.6
		c9.6,7.7,8.8,8,17.7-0.9c41.4-41.4,82.7-82.8,124.1-124.1c2.3-2.3,4.5-4.5,6.9-6.6c2-1.8,3.6-1.8,6.2-0.5c0.3,0.1,0.6,0.3,0.9,0.4
		c24.3,14.4,44.8,32.8,59.6,57.2c1.5,2.5,2.8,5,4.1,7.6c0.7,1.3,0.3,2.6-0.5,3.6c-2.1,2.4-4.3,4.7-6.5,7
		c-40.7,40.7-81.4,81.4-122.1,122.1c-2.3,2.3-4.5,4.5-6.7,6.8c-0.9,0.9-1.6,2-2.3,3c-0.8,1.2-0.8,2.5-0.1,3.6
		c1.4,2.1,2.9,4.2,4.5,6.2c6.9,9.2,14.1,18.2,20.8,27.5c9.2,12.7,17.3,26.1,24.3,40.1c2.2,4.4,5.2,6.2,9.9,5.6
		c2.2-0.3,4.5-0.4,6.7-0.6C1000,321.4,1000,321.4,1000,321.5z M813.6,298.9c-0.3-0.7-0.5-1.7-1.1-2.4c-2.2-2.3-4.5-4.6-6.8-6.7
		c-1.6-1.4-3.7-1.5-5.2-0.1c-2.4,2.1-4.7,4.3-7,6.6C727.1,362.6,660.7,429,594.3,495.5c-2,2-4.1,4.1-6,6.2c-0.9,0.9-1.7,2-2.2,3.1
		c-1.5,3.6-2.6,7.2-2.7,11.1c0,1.6,1.4,3.1,3,2.9c6.4-0.8,12.6-2,17.1-7.4c1.6-1.9,3.6-3.6,5.4-5.4
		c65.1-65.1,130.1-130.1,195.2-195.2c2.3-2.3,4.5-4.5,6.7-6.8c0.9-0.9,1.6-2,2.3-3C813.5,300.4,813.5,299.7,813.6,298.9z"/>
	<path d="M322.5,105.5c-0.5-5.2-1.1-10.6-1.6-16c-0.2-1.9-0.4-3.8-0.5-5.7c-0.1-1.9-0.1-3.8-0.3-5.7c-1-11.1-2.1-22.2-3.1-33.4
		c-0.2-2.5-0.3-5.1-0.2-7.6c0-1.9,1.7-3.7,3.7-3.8c2.2-0.2,4.5-0.2,6.7-0.1c2,0.1,3.7,0.9,5.2,2.3c1.9,1.7,3.8,3.5,5.6,5.3
		c47,47,94,94,141,141c1.8,1.8,3.5,3.7,5.2,5.6c1.1,1.3,0.3,3.6-1.2,3.8c-19.6,3.1-38.5,8.8-57.2,15.5
		c-20.5,7.3-40.1,16.7-59.1,27.3c-4.5,2.5-8.8,5.1-13.2,7.8c-1.3,0.8-2.6,1.9-3.6,3.1c-0.5,0.6-0.6,1.8-0.5,2.6
		c0.2,0.9,0.8,1.7,1.4,2.4c2.4,2.6,4.9,5.1,7.4,7.6c53.8,53.8,107.6,107.6,161.4,161.4c2.3,2.3,4.5,4.5,6.7,6.8
		c1.8,1.9,1.7,3.8-0.2,5.9c-0.6,0.7-1.3,1.4-2,2.1c-11.3,11.3-22.6,22.6-33.9,33.9c-0.9,0.9-1.9,1.7-2.9,2.4c-1,0.8-2.6,0.7-3.6-0.2
		c-1-0.8-2-1.6-2.9-2.5c-2.5-2.5-5-4.9-7.5-7.4c-54.2-54.2-108.5-108.5-162.7-162.7c-2.5-2.5-5-4.9-7.6-7.3c-1.9-1.7-4-1.5-6,0.2
		c-0.7,0.6-1.4,1.3-2.1,1.9c-7.1,6.8-7.1,7.3-0.1,14.4c2,2.1,4.1,4.1,6.1,6.1c54.2,54.2,108.5,108.5,162.7,162.7
		c2.5,2.5,4.9,5.1,7.3,7.6c0.9,0.9,0.9,2.6,0.2,3.6c-0.8,1-1.6,2-2.5,2.9c-11.3,11.3-22.6,22.6-33.9,33.9c-1.1,1.1-2.4,2.2-3.7,3
		c-0.7,0.4-1.9,0.4-2.7,0.1c-0.9-0.3-1.7-0.9-2.3-1.6c-2.3-2.2-4.6-4.5-6.8-6.7c-53.6-53.6-107.1-107.1-160.7-160.7
		c-2.3-2.3-4.5-4.5-6.8-6.7c-3.6-3.3-5.5-3-8.4,1.2c-1.3,1.9-2.4,3.8-3.6,5.7c-15.9,26-28,53.8-37.1,82.9c-3.7,11.9-6.6,24-9.2,36.2
		c-0.3,1.5-0.8,3.1-1.2,4.6c-0.2,0.7-1.9,1.3-2.5,0.9c-1.3-0.9-2.7-1.8-3.8-2.8c-6-5.7-12-11.5-17.9-17.3
		C126,420.8,84.4,379.6,42.8,338.5c-1.8-1.8-3.6-3.7-5.4-5.4c-2.4-2.3-3.7-5.2-3.9-8.5c-0.1-1-0.2-1.9-0.3-2.9
		c-0.5-4.8,1-6.2,6.1-5.9c1.6,0.1,3.2,0.3,4.8,0.4c12.7,1.1,25.5,2.2,38.2,3.3c8.6,0.7,17.2,1.3,25.8,2.2c8.6,0.9,9-0.5,12.6-7.2
		c2.6-4.8,5.1-9.6,7.8-14.3c10.3-17.7,22.4-34.2,35.2-50.2c2-2.5,3.9-5,5.7-7.7c0.7-1.1,0.7-2.5-0.1-3.6c-0.7-1-1.5-2.1-2.4-3
		c-2-2.1-4-4.1-6.1-6.1C120.5,189.4,80.3,149.1,40,108.9c-2.3-2.3-4.5-4.5-6.7-6.8c-3-3.3-3.2-4.8-1.2-8.5
		c4.8-8.7,10.5-16.8,16.9-24.4c12.5-14.9,27.4-26.7,44-36.7c0.8-0.5,1.7-0.9,2.5-1.4c2.6-1.3,4.2-1.3,6.1,0.5
		c2.3,2.2,4.6,4.4,6.9,6.7C149,78.8,189.5,119.3,230,159.7c2.3,2.3,4.5,4.5,6.8,6.7c0.9,0.9,2,1.7,3.1,2.2c0.8,0.3,2,0.5,2.7,0.1
		c2.2-1.3,4.3-2.8,6.3-4.3c7.4-5.6,14.6-11.4,22.1-16.9c14.1-10.5,28.9-20,44.7-27.9c1.4-0.7,2.8-1.5,4.2-2.3
		c1.8-1.1,2.7-2.7,2.6-4.8C322.4,110.2,322.5,108,322.5,105.5z"/>
	<path d="M974.5,972.1c-0.7,0.6-1.4,1.5-2.1,1.6c-1.2,0.1-2.5-0.2-3.7-0.5c-20.3-5.6-40.6-11.2-60.9-16.9c-20-5.5-40-11-59.9-16.7
		c-10.7-3.1-8.4-0.8-17.8-10.3C746.7,846,663.4,762.6,580,679.2c-1.8-1.8-3.4-3.8-5-5.7c-0.3-0.4-0.3-1.3-0.1-1.8
		c0.4-0.9,0.9-1.7,1.5-2.4c2-2.1,4-4.2,6-6.2c27.1-27.1,54.2-54.2,81.3-81.3c2.5-2.5,5.1-4.8,7.7-7.2c0.9-0.8,2.6-0.8,3.6,0.1
		c1.9,1.7,3.7,3.5,5.5,5.3C723,622.5,765.5,665,808,707.4c40.4,40.4,80.9,80.9,121.3,121.3c10,10,7.7,7.6,10.8,18.5
		c7.6,26.7,14.9,53.5,22.3,80.3c3.4,12.3,6.9,24.6,10.4,36.9C973.5,966.9,973.9,969.4,974.5,972.1z"/>
	<path d="M551.3,1037.6c-6.1,0-12.1,0-18.2,0c-6.4,0-12.8,0.1-19.1-1.3c-1.2-0.3-2.5-0.4-3.8-0.3c-8.7,0.3-17.2-1.4-25.7-2.5
		c-12-1.6-23.9-3.8-35.8-6.3c-32-6.8-62.9-17-92.8-30.1c-21.7-9.5-42.5-20.7-62.6-33.2c-1.3-0.8-2.6-1.9-3.8-2.8
		c-1-0.7-1.1-2.5-0.3-3.5c0.6-0.8,1.2-1.5,1.8-2.2c1.3-1.4,2.7-2.7,4-4.1c24-24,47.9-47.9,71.9-71.9c1.6-1.6,3.2-3.1,4.8-4.7
		c2-2,4.2-2.8,6.9-1.3c2.2,1.2,4.6,2.3,6.9,3.4c24,12.3,49,21.8,75.1,28.4c17,4.3,34.3,7.4,51.8,9.5c13.4,1.6,26.8,1.2,40.2,2.1
		c42.2-0.3,83.3-7.6,123-22c14.5-5.2,28.4-11.5,42.1-18.5c2.6-1.3,5.1-2.6,7.7-3.8c1.9-0.8,3.8-0.4,5.4,0.8c1.7,1.4,3.4,2.9,4.9,4.5
		c24.7,24.6,49.3,49.3,73.9,73.9c1.6,1.6,3,3.3,4.5,5c0.8,0.9,0.7,2.8-0.2,3.5c-1.2,1-2.5,2-3.8,2.8c-29.3,18.5-60.2,33.6-92.7,45.6
		c-21.3,7.8-43.1,13.9-65.3,18.8c-8.7,1.9-17.6,3.2-26.4,4.7c-7.2,1.3-14.6,1.3-21.8,3.1c-1.8,0.5-3.8,0.2-5.7,0.3
		c-2.6,0.1-5.2,0-7.7,0.5c-9.5,1.7-19.1,1.4-28.7,1.5C558.3,1037.7,554.8,1037.6,551.3,1037.6
		C551.3,1037.6,551.3,1037.6,551.3,1037.6z"/>
	<path d="M64.6,550.6c0.2-9.2,0.3-19.1,0.6-29c0.1-2.9,0.4-5.7,0.7-8.6c0.2-2.5,0.6-5.1,0.8-7.6c2.1-26.2,6.9-51.9,13.6-77.3
		c0.2-0.9,0.6-1.8,1-2.7c0.3-0.7,2-1,2.6-0.5c1.9,1.7,3.8,3.4,5.6,5.2c26.9,26.9,53.8,53.8,80.7,80.7c3.4,3.4,6.8,6.8,10.2,10.2
		c1.4,1.4,2.7,2.7,4,4.1c1.3,1.5,2.1,3.2,2,5.2c-0.1,1.6-0.1,3.2-0.2,4.8c-1.3,11.2-1.2,22.3,0,33.5c0.1,1.3,0.2,2.5,0.3,3.8
		c2.5,49.9,15.4,96.9,37.7,141.6c7.6,15.2,8.4,11-3.5,23c-23.2,23.4-46.5,46.6-69.8,69.9c-2.2,2.2-4.7,4.3-7.1,6.3
		c-0.3,0.3-1.4,0.2-1.7-0.2c-1.3-1.4-2.6-2.8-3.6-4.4c-4.3-7.1-8.6-14.2-12.7-21.5c-22.4-40.5-38.9-83.3-49.2-128.4
		c-2.8-12.5-5.2-25-7-37.7c-1.1-7.9-2.6-15.8-2.7-23.8c0-0.6-0.1-1.3-0.1-1.9c-0.9-7.3-1.7-14.6-1.7-22
		C65,566,64.8,558.7,64.6,550.6z"/>
	<path d="M1038.1,551c0,2.6,0.1,5.1,0,7.7c-0.5,9.9-1,19.8-1.6,29.7c-0.2,3.2-0.6,6.4-0.9,9.5c-0.2,1.9-0.6,3.8-0.7,5.7
		c-0.5,9.3-2.3,18.4-3.6,27.5c-2,13.6-5,27-8.4,40.3c-10.7,41.3-26.2,80.7-47.4,117.8c-3.5,6.1-7,12.2-10.6,18.2
		c-1,1.6-2.2,3.1-3.6,4.4c-0.5,0.5-1.8,0.5-2.6,0.2c-0.9-0.2-1.7-1-2.3-1.6c-1.6-1.5-3.2-3.1-4.8-4.7
		c-23.9-23.9-47.9-47.9-71.8-71.8c-8.3-8.3-7.7-7.3-2.8-17c14.2-27.7,24.7-56.8,31.4-87.2c2.1-9.7,3.6-19.4,5.1-29.2
		c1.6-10.4,2.4-20.9,3.1-31.4c0.6-10.8,0.2-21.7,0.2-32.6c0-2.2-0.1-4.5-0.1-6.7c0-2.7,0.8-5,2.7-7c1.3-1.4,2.7-2.7,4-4.1
		c29.8-29.8,59.6-59.6,89.5-89.5c1.4-1.4,2.7-2.7,4.1-4c1.9-1.8,3.6-1.4,4.4,0.8c0.5,1.5,1.1,3,1.5,4.5c4.2,17.4,8.1,34.8,10.2,52.6
		c1,8.2,2.1,16.5,3.2,24.7c0.2,1.6,0.2,3.2,0.3,4.8c0.6,10.2,1.1,20.4,1.6,30.6C1038.2,545.9,1038.1,548.5,1038.1,551z"/>
	<path d="M551.4,64.4c11.4-0.6,23.2,0.6,35,1.4c29.4,1.8,58.3,7,86.8,14.1c1.2,0.3,2.4,0.9,3.6,1.4c0.8,0.3,1.4,1.8,0.9,2.4
		c-0.6,0.8-1,1.6-1.7,2.3c-2.2,2.3-4.5,4.6-6.7,6.8c-27.6,27.6-55.1,55.2-82.7,82.7c-12.6,12.5-8.3,10.3-24.8,10.3
		c-9.9,0-19.8-0.1-29.7,0.2c-4.5,0.1-8.1-1.2-11.1-4.5c-1.3-1.4-2.7-2.7-4.1-4.1c-28.7-28.7-57.4-57.4-86.1-86.1
		c-2.3-2.3-4.4-4.6-6.6-7c-0.9-1-0.4-2.6,0.9-3.1c1.2-0.5,2.4-1,3.6-1.3c19.5-5,39.2-8.9,59.2-11.5c10.1-1.3,20.3-2.3,30.5-2.9
		C529.2,64.9,540.1,64,551.4,64.4z"/>
	<path d="M753.6,550.9c-0.4,7.6-0.5,15.3-1.1,22.9c-0.8,8.6-2.5,17-4.5,25.4c-0.7,2.7-2.3,3.4-4,1.6c-15.6-15.5-31.1-31.1-46.7-46.6
		c-0.2-0.2-0.4-0.5-0.6-0.7c-0.8-1-0.9-2.7-0.2-3.6c0.6-0.7,1.2-1.5,1.8-2.2c14.6-14.7,29.3-29.3,44-44c0.9-0.9,2-1.6,3.1-2.2
		c0.4-0.2,1.4,0.1,1.7,0.5c0.7,1,1.3,2.2,1.6,3.4C752,520.4,753.5,535.6,753.6,550.9z"/>
	<path d="M552.1,348.2c14.4,0.6,28.6,1.8,42.7,5.2c1.2,0.3,2.4,0.7,3.6,1.1c0.8,0.3,1.4,1.8,1,2.4c-0.7,1-1.4,2.2-2.2,3
		c-14.2,14.3-28.4,28.5-42.7,42.7c-0.9,0.9-1.9,1.8-3,2.4c-0.7,0.4-1.9,0.4-2.7,0.1c-0.9-0.3-1.6-1-2.3-1.7
		c-14.9-14.9-29.8-29.8-44.7-44.7c-0.2-0.2-0.4-0.5-0.6-0.7c-0.9-1-0.5-2.9,0.7-3.2c2.4-0.7,4.9-1.5,7.4-2c6.3-1.1,12.5-2.5,18.9-3
		C536.1,349.4,544,347.9,552.1,348.2z"/>
	<path d="M550.7,753.6c-3.8,0-7.7,0.1-11.5,0c-2.9-0.1-5.7-0.4-8.5-0.9c-6.3-1-12.7-1.1-18.9-2.8c-1.8-0.5-3.7-0.8-5.6-1.3
		c-5.6-1.3-5.9-2.9-2.1-6.7c14.2-14.3,28.4-28.5,42.7-42.7c0.9-0.9,2-1.6,3.1-2.2c0.5-0.3,1.3-0.2,1.8,0.1c1.1,0.6,2.2,1.4,3.1,2.3
		c14.3,14.2,28.5,28.4,42.7,42.7c0.9,0.9,1.5,2,2.3,3c0.5,0.7,0,2.1-0.8,2.4c-1.8,0.6-3.6,1.6-5.4,1.8c-5.4,0.7-10.6,2.6-16,2.6
		c-0.6,0-1.3,0-1.9,0.2C567.4,753.9,559,753.6,550.7,753.6z"/>
	<path d="M348.9,550.2c-0.7-14.1,1.6-27.9,4.2-41.6c0.4-2.2,1.3-4.2,2.2-6.3c0.1-0.3,1.2-0.5,1.6-0.3c0.8,0.4,1.6,1,2.3,1.7
		c14.2,14.2,28.4,28.4,42.6,42.6c0.9,0.9,1.6,1.9,2.4,2.9c0.7,0.9,0.6,2.6-0.2,3.6c-1.5,1.7-2.9,3.3-4.5,4.9
		c-10.1,10.2-20.3,20.3-30.4,30.4c-3.4,3.4-6.7,6.8-10.1,10.1c-2.7,2.7-4,2.3-4.9-1.6c-1.1-4.3-2.1-8.7-2.8-13
		C349.5,572.5,348.3,561.5,348.9,550.2z"/>
	<path d="M51.7,0.1C62-0.3,70.9,3.3,78.9,9.6c1,0.7,0.9,2.7-0.1,3.4c-1.3,0.9-2.6,1.8-4,2.6C51.3,29.9,32.2,48.8,17.6,72.3
		c-1.2,1.9-2.4,3.8-3.7,5.6c-0.9,1.3-3.1,1.3-4.1,0c-5.5-7-8.2-15.1-9.6-23.7C-0.2,51.7,0,49,0.4,46.6c1.4-8,4.2-15.4,9.1-21.9
		C14.6,18,20.4,12.2,27.3,7.5C34.6,2.4,42.7-0.2,51.7,0.1z"/>
	<path d="M1102.2,50.6c0.4,10-2.9,18.8-8.8,26.8c-1.7,2.3-3.5,2.1-5.2-0.5c-0.5-0.8-1-1.6-1.5-2.5c-0.9-1.4-1.7-2.7-2.6-4
		c-13.8-21.6-31.6-39.2-53.3-53c-2.2-1.4-4.3-2.7-6.4-4.2c-1.3-0.9-1.2-3,0.2-4.1c6.2-4.8,13.1-7.9,20.9-8.8
		c11.3-1.3,21.6,1.1,30.9,7.7c8.2,5.8,15.1,12.8,20.2,21.5C1100.3,36.1,1102.4,43,1102.2,50.6z"/>
</g>
</svg>