<?xml version="1.0" encoding="utf-8"?>
<!-- Generator: Adobe Illustrator 25.1.0, SVG Export Plug-In . SVG Version: 6.00 Build 0)  -->
<svg version="1.1" id="Layer_1" xmlns="http://www.w3.org/2000/svg" xmlns:xlink="http://www.w3.org/1999/xlink" x="0px" y="0px"
	 viewBox="0 0 945.1 1176.4" style="enable-background:new 0 0 945.1 1176.4;" xml:space="preserve">
	<defs>
		<linearGradient id="gradient" x1="0%" y1="0%" x2="100%" y2="0%">
  <stop offset="0%" stop-color="#5d77ee" />
  <stop offset="65%" stop-color="#e96531" />
  <stop offset="100%" stop-color="#cddc39" />
</linearGradient>
	</defs>
<g fill="url(#gradient)">
	<path d="M473.7,1176.3c-0.8-4.7-1.6-9.4-2.4-14.1c-1.7-10.1-3.4-20.2-5.1-30.2c-1.6-9.5-3.2-18.9-4.8-28.4
		c-1.6-9.5-3.2-18.9-4.7-28.4c-1.6-9.5-3.1-18.9-4.6-28.4c-1.7-10.1-3.4-20.2-5.1-30.2c-1.5-9.1-3-18.3-4.5-27.4
		c-1.7-10.4-3.4-20.8-5.2-31.2c-2.3-13.5-4.7-27.1-6.9-40.6c-2.2-13.6-4.4-27.1-6.6-40.7c-1.3-8.2-2.7-16.4-4.1-24.6
		c-1.2-7.6-2.4-15.1-3.7-22.7c-0.3-1.5-1-3-1.7-4.4c-0.2-0.4-1-0.5-1.6-0.6c-0.2,0-0.7,0.3-0.7,0.5c-0.8,2.8-1.7,5.5-2.2,8.3
		c-0.9,4.7-1.5,9.5-2.2,14.2c-1.7,11-3.5,22.1-5.2,33.1c-1.6,10.4-3.1,20.9-4.7,31.3c-1.5,9.8-3.2,19.6-4.7,29.3
		c-1.7,10.7-3.3,21.5-4.9,32.2c-0.8,5.1-1.5,10.1-2.3,15.2c-2.5,15.8-4.9,31.6-7.4,47.3c-0.5,3.4-1.3,6.8-2,10.2
		c-1.5-0.7-1.8-2-2.2-3.1c-7.6-23.4-15.2-46.8-22.8-70.2c-16-48.9-32-97.8-48-146.7c-14.8-45.3-29.5-90.6-44.3-135.9
		c-0.2-0.6-0.3-1.2-0.5-1.8c-2.9-7.8-1.5-7.1-8.9-13.2c-10.1-8.4-19.6-17.4-28.1-27.5c-21.6-25.6-36.5-54.6-43.6-87.5
		c-3-14.1-6.4-28-9.7-42c-6.9-29.9-13.8-59.8-20.7-89.7c-6.2-26.8-12.3-53.6-18.6-80.3c-0.7-3.1-0.4-5.7,1.5-8.1
		c0.6-0.8,1.1-1.6,1.8-2.3c12.5-15,23.4-31.2,34.9-47c5.5-7.5,11.4-14.6,16.9-22.1c3-4,6.7-5.7,11.5-5.4c1.9,0.1,3.8,0,5.8,0
		c85.7,0,171.5,0,257.2,0c3.2,0,6.4,0.1,9.6,0.3c2.4,0.2,4,1.9,4.2,4.4c0.1,1.6,0.2,3.2,0.2,4.8c0,15.7,0.1,31.4,0,47
		c-0.2,16.7-6.2,31.1-17.6,43.4c-10.4,11.2-23.2,17.8-37.8,21.5c-1.8,0.5-3.8,0.6-5.7,0.7c-6.1,0.3-12.1,0.6-18.2,0.6
		c-37.4,0.1-74.9,0-112.3,0c-3.5,0-7,0.1-10.5,0.4c-0.9,0.1-1.8,0.6-2.5,1.2c-0.4,0.3-0.6,1.2-0.4,1.7c0.5,1.6,1.9,2.5,3.3,3.3
		c11.1,6.9,22.4,13.7,33.4,20.7c4,2.5,8.1,3.6,12.7,3.5c2.9-0.1,5.8,0,8.6,0c36.8,0,73.6,0,110.4,0c3.2,0,6.4,0.1,9.6,0.1
		c2.7,0,4.9,1.1,6.8,3.1c2,2.1,4,4.2,5.8,6.4c23.5,27,47.1,54,70.6,81c1.9,2.1,3.5,4.7,6.2,5.8c0.4,0.2,1.2-0.2,1.6-0.6
		c0.3-0.4,0.5-1.2,0.4-1.8c-0.6-2.1-1.3-4.3-2.1-6.4c-11.7-30.5-23.3-60.9-35-91.4c-3.3-8.7-6.7-17.3-10-26
		c-0.8-2.1-1.5-4.2-2.2-6.4c-0.4-1.3,0.9-3.5,2.3-3.7c1.3-0.2,2.5-0.5,3.8-0.5c2.9-0.1,5.8-0.1,8.6-0.1c85.4,0,170.8,0,256.2,0
		c3.8,0,7.7,0.2,11.5,0.4c1.9,0.1,3.5,2,3.5,4c0,1.6,0,3.2-0.2,4.8c-0.2,2.2-0.8,4.4-0.9,6.7c-0.5,9.3-1.4,18.5-2.2,27.7
		c-1.1,13.7-2.3,27.4-3.5,41.1c-1.1,11.8-1.8,23.6-2.6,35.4c-0.2,2.5-0.4,5.1-0.7,7.6c-0.1,1.3-0.5,2.5-0.5,3.8
		c-0.4,9.9-1.8,19.7-2.3,29.6c-0.8,15.7-3.3,31.1-7.8,46.2c-7.9,26.7-20.8,50.8-38.8,72.2c-7,8.3-14.4,16.3-22.8,23.3
		c-3.9,3.2-6.2,7.1-7.6,11.9c-5,16.5-10.2,33-15.2,49.5c-12.4,40.3-24.8,80.7-37.3,121c-7,22.6-14,45.2-21,67.8
		c-9,29-17.8,58-26.8,87.1c-2.8,9.2-5.8,18.3-8.8,27.4c-0.1,0.3-0.5,0.7-0.6,0.6c-0.5-0.2-1-0.5-1.3-0.9c-0.3-0.5-0.5-1.2-0.6-1.8
		c-2.1-13.9-4.2-27.8-6.4-41.7c-2.3-14.2-4.7-28.4-7-42.6c-2.2-13.9-4.2-27.8-6.5-41.7c-2.2-13.6-4.5-27.1-6.7-40.7
		c-1.6-9.8-3-19.6-4.6-29.4c-0.8-5.1-1.5-10.1-2.4-15.1c-0.4-2.2-1.2-4.3-2-6.4c-0.1-0.3-1-0.5-1.6-0.6c-0.2,0-0.7,0.2-0.8,0.4
		c-0.6,1.1-1.4,2.2-1.6,3.4c-1.5,8.8-2.9,17.6-4.4,26.5c-1.6,9.8-3.3,19.5-4.9,29.3c-1.6,9.5-3.1,18.9-4.7,28.4
		c-1.6,9.8-3.3,19.5-4.9,29.3c-1.6,9.5-3.1,18.9-4.7,28.4c-1.6,9.8-3.3,19.5-4.9,29.3c-1.6,9.5-3.1,18.9-4.7,28.4
		c-1.6,9.5-3.1,18.9-4.7,28.4c-1.7,10.1-3.3,20.2-5,30.3c-2.3,13.9-4.7,27.7-7,41.6c-1.6,9.5-3,18.9-4.6,28.4
		c-1.2,6.9-2.4,13.8-3.6,20.7C474.4,1176.3,474.1,1176.3,473.7,1176.3z M473.7,600.9c-1.9,0.8-4.3,1.7-6.6,2.8
		c-15.3,7.3-30.5,14.7-45.7,22.1c-16.1,7.8-32.2,15.6-48.3,23.4c-10.3,5-20.7,10.1-31,15.2c-2,1-3.9,2.1-5.8,3.3
		c-0.5,0.3-0.9,0.9-1.2,1.4c-0.1,0.2,0,0.7,0.2,0.9c0.5,0.4,1,0.8,1.6,0.9c4.2,0.3,8.2-1.1,12.3-1.9c16-3.1,32-6.1,47.9-9.2
		c16.9-3.3,33.8-6.5,50.8-9.8c0.9-0.2,1.9-0.2,2.9-0.1c1.7,0.2,3.1,1,3.7,2.6c0.6,1.5,0.9,3.1,1.1,4.6c0.4,3.2,0.6,6.4,0.9,9.5
		c0.9,7.3,1.9,14.6,2.8,21.8c1.3,10.1,2.5,20.3,3.6,30.4c0.8,6.7,1.5,13.3,2.2,20c0.9,7.9,1.7,15.9,2.6,23.8
		c1.1,9.2,2.2,18.4,3.3,27.6c0.4,3.5,0.7,7,2.2,10.2c0.2,0.4,0.9,0.7,1.4,0.9c0.2,0.1,0.7-0.3,0.7-0.5c1.3-3.9,2.2-8,2.5-12.2
		c0.2-2.5,0.4-5.1,0.7-7.6c1-7.9,2.1-15.8,3.1-23.7c0.7-5.7,1.4-11.4,2-17.1c0.9-7.9,1.6-15.9,2.6-23.8c0.9-7.6,2.1-15.2,3-22.8
		c1.5-13,2.9-26,4.4-39c0.4-3.4,2.5-5.2,5.8-4.9c0.9,0.1,1.9,0.2,2.8,0.4c4.7,1,9.4,2,14.1,2.9c26.6,5.1,53.3,10.2,79.9,15.3
		c3.1,0.6,6.3,1.3,9.4,1.8c2.2,0.3,4.4,0.5,6.7,0.5c0.5,0,1.2-0.6,1.3-1c0.2-0.5-0.1-1.4-0.5-1.6c-2.4-1.5-4.9-3-7.5-4.2
		c-16.1-7.8-32.2-15.6-48.3-23.4c-24.7-12-49.4-24-74.1-36C480.2,603.1,477.5,601.4,473.7,600.9z"/>
	<path d="M502.3,189.6c0-47.3,0-94.7,0-142c0-3.5,0.1-7,0.4-10.5c0.2-2.3,2.6-4,4.9-3.4c4.6,1.2,9.3,2.4,13.9,3.7
		c29.5,8.4,59,16.8,88.5,25.2c2.2,0.6,4.3,1.2,6.4,1.9c5.7,2,8.8,6.2,9.6,12.1c0.3,2.2,0.2,4.5,0.2,6.7c0,10.9,0,21.8,0,32.6
		c0,62.7,0,125.4,0,188.1c0,3.2,0.1,6.4-0.1,9.6c-0.2,5-2.1,9.3-5.8,12.7c-1.7,1.5-3.5,2.8-5.8,3.3c-2.5,0.6-5,1.3-7.5,1.7
		c-16.1,2.5-32.2,5-48.3,7.5c-10.4,1.6-20.9,3-31.3,4.5c-5.7,0.9-11.3,1.9-17,2.8c-1.3,0.2-2.5,0.4-3.8,0.4c-1.9,0.1-3.7-1.5-4-3.5
		c-0.2-1.3-0.3-2.5-0.3-3.8c-0.1-2.9,0-5.8,0-8.6C502.3,283.7,502.3,236.7,502.3,189.6z"/>
	<path d="M179.6,871.7c22.2-0.4,41.5,5.5,58.9,17.4c23.3,15.9,37.8,37.8,43.6,65.3c1.5,6.8,2.6,13.8,2.4,20.9
		c-1.2,50.3-33.1,87.1-73.5,99.5c-7.1,2.2-14.2,3.6-21.6,4c-8,0.4-16,0.4-24-0.4c-9-1-17.5-3.6-25.8-7.1
		c-25.6-11-43.9-29.3-55.1-54.7c-5.1-11.5-7.9-23.6-8.1-36.2c0-2.2,0-4.5,0-6.7c-0.3-40.9,26.7-80.7,67.6-95.7
		C155.9,873.4,168,871.3,179.6,871.7z M153.5,928.7c-0.6-2.6-1-5.1-1.8-7.5c-3.1-9-10.4-11.4-18.3-9.2c-0.6,0.2-1.2,0.5-1.8,0.7
		c-3.6,1.4-6.8,3.5-9.8,6c-6.8,5.9-12.6,12.7-16.7,20.8c-11,21.5-11.8,43.5-2.8,65.7c4,9.9,10.1,18.5,18.2,25.5
		c1.7,1.4,3.7,2.5,5.6,3.6c0.4,0.2,1.3-0.1,1.7-0.4c0.4-0.4,0.7-1.2,0.5-1.7c-0.9-2.4-1.9-4.7-3.1-7c-3.9-7.7-7.1-15.7-9.2-24.1
		c-2-7.7-3.5-15.6-3.1-23.6c0.1-2.6,0.9-3.8,3.2-3.8c7.8-0.1,14.1-3.5,19.7-8.7c7.6-7.2,13-15.8,15.5-25.9
		C152.4,935.7,152.9,932.2,153.5,928.7z"/>
	<path d="M765.4,1078.9c-14.8,0.6-28.7-2.3-42.1-8.1c-10.7-4.6-20.3-10.9-28.7-18.9c-6-5.7-11.6-11.8-16.3-18.8
		c-8-11.9-13.2-24.8-15.7-38.8c-1.4-7.9-1.5-15.9-1.2-23.9c0.9-26.5,11-48.9,29.3-67.8c15.4-15.9,34.2-25.5,55.7-29.8
		c1.6-0.3,3.2-0.4,4.8-0.5c7.7-0.6,15.3-0.6,23-0.4c6.1,0.2,12.1,1.3,17.9,3c22.6,6.2,41.2,18.7,55.5,37.3
		c9.3,12,15.7,25.6,18.7,40.5c5.3,26.4,2.1,51.5-11.5,75c-11.8,20.3-28.6,35-50.3,44C792,1076.8,779,1079.5,765.4,1078.9z
		 M848.6,975.8c-0.3-4.5-0.1-9-0.9-13.4c-2.2-12.1-6.8-23.2-14.3-33.1c-3.1-4.1-6.7-7.7-10.6-11c-3.2-2.7-6.8-4.8-10.7-6.2
		c-8.5-2.9-16.1,0.3-19.1,9.1c-1.3,3.7-1.7,7.5-1.1,11.3c2.2,13.8,8.5,25.3,19.3,34.3c4.8,4,10.2,6.6,16.6,6.6c0.3,0,0.6,0,1,0
		c2.3,0.2,3.2,1.3,3.3,3.8c0,1,0.1,1.9,0,2.9c-0.3,13.3-3.5,25.9-9,37.9c-1.8,4.1-4,8-5.9,12.1c-0.4,0.8-0.4,1.8-0.6,2.8
		c-0.1,0.7,1.4,1.9,2,1.6c1.1-0.6,2.4-1,3.4-1.8c4.6-3.5,8.6-7.6,12-12.3C843.5,1007.2,848.9,992.4,848.6,975.8z"/>
	<path d="M472.7,120.6c0,32.6,0,65.2,0,97.8c0,3.2-0.1,6.4-0.2,9.6c-0.1,2.3-2,4-4.4,4.3c-1.6,0.2-3.2,0.3-4.8,0.3
		c-2.9,0.1-5.8,0-8.6,0c-31.6,0-63.3,0-94.9,0c-3.2,0-6.4-0.1-9.6-0.3c-3.2-0.2-5.1-2.3-5.4-5.7c-0.2-1.9-0.2-3.8-0.2-5.7
		c0-3.8,0-7.7,0-11.5c0-61.4,0-122.7,0-184.1c0-3.5,0.1-7,0.3-10.5c0.1-2.4,1.5-4.2,3.8-5c3.3-1.1,6.7-2.3,10.1-3
		c9.4-2,18.8-3.7,28.2-5.5c1.9-0.4,3.8-0.4,5.7-0.5c11.5-1,23-1,34.5,0.2c13.7,1.4,27.1,4.5,40.3,8.2c0.6,0.2,1.2,0.5,1.8,0.8
		c1.9,0.8,3.2,2.2,3.3,4.3c0.1,2.6,0.2,5.1,0.2,7.7c0,14.1,0,28.1,0,42.2C472.7,82.9,472.7,101.7,472.7,120.6z"/>
	<path d="M91.2,852.3c-15.1,0.6-30.3-3.7-44.5-11.8c-19.3-11.1-32.9-27.1-40.7-48C2,781.9-0.3,771,0,759.6
		c0.6-22.5,7.8-42.6,22.6-59.7c14.3-16.6,32.6-26.6,54-30.6c5.6-1,11.5-0.8,17.2-0.9c35.2-0.8,70.8,22.5,84.7,58.4
		c5.3,13.6,7.5,27.9,5.9,42.4c-4.8,43.6-34.7,70.2-64.6,79.4C111,851.3,101.8,852.4,91.2,852.3z M73.4,713.7
		c-0.2-1.7-0.3-4.2-0.8-6.7c-1.4-6.8-6.9-11.1-13.7-11.1c-3.6,0-6.9,1-10,2.8c-5.9,3.4-11,7.8-15.2,13.1
		c-14.2,17.9-20.2,38-16.3,60.9c2,12.3,6.9,23.2,14,33.2c3,4.2,6.6,7.8,10.6,11c1.2,1,2.7,1.6,4.2,2.3c0.4,0.2,1.3-0.1,1.7-0.5
		c0.4-0.4,0.7-1.2,0.5-1.7c-1.1-2.7-2.1-5.3-3.4-7.9c-6.8-12.9-10.3-26.8-12.1-41.1c-0.3-2.5-0.1-5.1,0-7.6c0-1.3,1.2-2.5,2.5-2.4
		c9.8,0.7,17.2-4.1,23.6-10.8c5.5-5.9,9.6-12.7,12.2-20.4C72.5,722.8,73,718.7,73.4,713.7z"/>
	<path d="M852.9,852.3c-14.9,0.5-29-2.9-42.4-9.8c-22-11.5-37.1-28.9-45.2-52.3c-3.5-10.1-5.6-20.5-5.1-31
		c1.7-35.6,17.7-62.7,49.2-80.3c8.5-4.7,17.6-7.5,27.1-9.4c3.1-0.6,6.4-0.7,9.5-0.8c9.3-0.3,18.5-0.1,27.6,1.9
		c32.7,7.1,62.5,35.1,69.5,71.7c1.7,8.9,2.4,17.8,1.5,26.7c-1.7,17.2-7.5,33-18,46.8c-11.3,14.8-25.7,25.7-43.4,31.9
		C873.5,851,863.4,852.5,852.9,852.3z M929,760.6c-0.4-17.2-5.3-33.1-16-46.9c-4.7-6.1-10.5-11.2-17.2-15c-3.7-2.1-7.7-3-12-2.6
		c-3,0.2-5.5,1.5-7.6,3.6c-2.3,2.3-3.7,5.1-4.3,8.4c-1,5.8-0.4,11.4,1.1,17c2.3,8.1,6.4,15.3,12.1,21.5c6.5,7,14,12.1,24.2,11.4
		c1.4-0.1,2.5,1,2.7,2.2c0.1,0.9,0.2,1.9,0.3,2.9c0.3,7.4-1.4,14.6-2.9,21.7c-1.9,8.8-5.4,17-9.3,25.1c-0.8,1.7-1.8,3.4-2.7,5.1
		c-0.3,0.6-0.4,1.2-0.6,1.8c-0.3,0.8,0.3,2.4,0.9,2.5c0.6,0,1.3,0.1,1.8-0.1c5-2.4,8.7-6.4,12.2-10.6
		C923.1,794.7,928.3,778.7,929,760.6z"/>
	<path d="M654.6,241.4c0-30.7,0-61.4,0-92.1c0-2.9,0.1-5.8,0.2-8.6c0.1-1.7,1.7-2.7,3.5-2.2c1.8,0.6,3.6,1.2,5.4,1.9
		c16.5,6.2,32.9,12.3,49.4,18.6c17.3,6.6,34.7,13.2,52,19.8c2.7,1,5.4,2.1,7.8,3.6c3.1,1.9,5.1,4.8,5.3,8.7c0.2,2.6,0.3,5.1,0.3,7.7
		c0,34.6,0,69.1,0,103.7c0,2.6,0,5.1-0.2,7.7c-0.5,6.9-4.5,11.1-10.8,13.3c-3,1-6.2,1.6-9.3,2.2c-29.7,6.3-59.4,12.6-89.1,18.9
		c-3.4,0.7-6.9,1.4-10.3,2c-1.8,0.3-3.8-1.3-3.9-3.3c-0.1-2.9-0.2-5.8-0.2-8.6C654.6,303.5,654.6,272.5,654.6,241.4z"/>
	<path d="M315.2,150.8c0,22.7,0,45.4,0,68c0,2.9,0,5.8-0.2,8.6c-0.1,2.8-2,4.6-4.9,4.9c-2.5,0.2-5.1,0.3-7.7,0.3
		c-33.9,0-67.7,0-101.6,0c-2.9,0-5.7-0.1-8.6-0.4c-2.7-0.2-4.6-2.3-4.9-5.1c-0.2-2.5-0.3-5.1-0.3-7.6c0-8.3,0-16.6,0-24.9
		c0-20.8,0-41.5,0-62.3c0-3.2,0.1-6.4,0.3-9.6c0.3-4.2,2.5-7.2,6.1-9.1c2.5-1.3,5.2-2.4,7.9-3.4c9.2-3.5,18.5-7,27.8-10.5
		c25.4-9.6,50.8-19.2,76.1-28.8c1.8-0.7,3.6-1.3,5.4-1.9c2.5-0.8,4.3,0.5,4.4,3.4c0.1,2.6,0.1,5.1,0.1,7.7c0,12.5,0,24.9,0,37.4
		C315.2,128.5,315.2,139.7,315.2,150.8z"/>
	<path d="M805.5,639.8c-8-0.4-16-0.9-23.6-3.7c-1.5-0.5-2.9-1.3-4.3-2.1c-0.5-0.3-0.9-1.1-0.8-1.6c0.2-1.6,0.5-3.1,0.9-4.7
		c1.9-7.1,4.1-14.1,5.8-21.2c2.9-11.8,4.4-23.8,5.3-35.9c0.2-2.5,0.5-5.1,0.8-7.6c0.1-1.3,0.4-2.5,0.6-3.8
		c0.8-9.2,1.7-18.4,2.5-27.6c0.2-2.2,0.5-4.4,0.7-6.7c0.4-3.5,0.7-7,1.1-10.5c0.8-7.3,1.5-14.6,2.3-21.9c0.2-1.9,1.9-3.7,3.7-3.9
		c0.9-0.1,1.9-0.3,2.9-0.3c13.7-0.7,26.7,2.3,38.6,9c20.4,11.3,33.1,28.5,38.1,51.4c8.1,37.3-14,79.2-57.4,89.3
		C817.1,639.3,811.2,639.2,805.5,639.8z M867.6,564.1c0.3-5.6-0.8-10.9-2.3-16.1c-4.2-14.7-12.4-26.6-25.6-34.7
		c-2.2-1.3-4.5-2.5-6.9-3.2c-8.4-2.4-13.8,2.9-14.1,10.9c0,0.6,0,1.3,0.1,1.9c1.3,7.5,4.8,13.8,10.2,19.1c4.7,4.6,9.9,8,16.8,8.1
		c2.2,0,4.1,2.2,4.5,4.3c0.1,0.3,0.2,0.6,0.2,0.9c0.8,10.3,0.3,20.4-2.9,30.4c-2.5,8-6.1,15.5-10.2,22.7c-0.9,1.6-1.6,3.4-2.3,5.2
		c-0.3,0.8,0.8,2,1.6,1.9c2-0.1,3.6-1.2,5.2-2.3C858.8,601.1,866.8,584.5,867.6,564.1z"/>
	<path d="M139.6,639.6c-13.1,0.4-25.4-2.7-36.8-9.2c-20.5-11.7-33.5-29.1-37.9-52.6c-0.7-3.8-1.5-7.5-1.6-11.4
		c-0.5-32.3,18.3-64.4,55.1-75.5c0.6-0.2,1.2-0.3,1.9-0.3c1.4-0.1,2.6,0.4,3.3,1.6c0.8,1.4,1.4,2.9,1.8,4.4
		c3.8,15.5,7.6,31,11.3,46.5c4.4,18.3,8.9,36.6,13.3,54.9c2.3,9.6,5.2,19.1,8.6,28.4c0.9,2.4,1.7,4.8,2.4,7.3
		c0.4,1.1-0.5,2.6-1.6,3.2c-2,1-4.1,1.7-6.4,1.9C148.5,639,144,639.3,139.6,639.6z M77.4,563.9c-0.3,4.9,0.9,9.6,2,14.3
		c3.5,14.9,11.7,26.8,24.3,35.6c1.3,0.9,2.9,1.2,4.4,1.7c0.8,0.3,1.9-0.9,1.8-1.7c-0.2-2.4-1.6-4.2-2.7-6
		c-6.2-10.2-10.4-21.2-12.4-33c-1-6.1-0.8-12.1-0.5-18.2c0-0.6,0.2-1.3,0.4-1.9c1-3.4,2.2-4.5,5.3-4.6c4-0.2,7.5-1.4,10.7-3.7
		c7.3-5.1,12.5-11.9,14.8-20.6c0.6-2.1,0.8-4.4,0.6-6.6c-0.5-6.4-5.5-10.3-11.9-9.5c-3.3,0.4-6.1,1.8-8.8,3.5
		C87,525,78.6,542.5,77.4,563.9z"/>
</g>
</svg>