<?xml version="1.0" encoding="utf-8"?>
<!-- Generator: Adobe Illustrator 25.1.0, SVG Export Plug-In . SVG Version: 6.00 Build 0)  -->
<svg version="1.1" id="Layer_1" xmlns="http://www.w3.org/2000/svg" xmlns:xlink="http://www.w3.org/1999/xlink" x="0px" y="0px"
	 viewBox="0 0 334.8 383.4" style="enable-background:new 0 0 334.8 383.4;" xml:space="preserve">
	<defs>
		<linearGradient id="gradient" x1="0%" y1="0%" x2="100%" y2="0%">
  <stop offset="0%" stop-color="#516de9" />
  <stop offset="50%" stop-color="#ae31e9" />
  <stop offset="100%" stop-color="#cddc39" />
</linearGradient>
	</defs>
<g fill="url(#gradient)">
	<path d="M162.2,383.4c-1.2-0.4-2.3-0.8-3.5-1.1c-9.8-2.6-17-8.6-22-17.3c-11.9-20.8-24-41.4-35.8-62.2c-1.5-2.7-3.2-3.5-6.1-3.5
		c-19.6,0.1-39.2,0.1-58.8,0C18.3,299.2,4.7,288.6,0.9,272c-2.1-9.1-0.4-17.6,4.2-25.5c9.9-17,19.6-34.1,29.6-51.1
		c1.6-2.7,1.6-4.7-0.1-7.4c-10.1-17.2-20.2-34.4-29.9-51.8c-10.5-18.7-2.5-41.8,17.2-49.4c3.8-1.5,7.9-2.2,12-2.5
		c6.2-0.4,12.5-0.2,18.7-0.1c4.1,0.1,6.5,2.2,6.6,5.6c0,3.4-2.3,5.5-6.5,5.6c-5.4,0.1-10.7,0-16.1,0c-20.7,0.2-31.5,18.9-21.2,36.8
		c10.4,18.2,20.9,36.3,31.5,54.4c2.2,3.7,2.1,6.7,0,10.4c-10.8,18.4-21.5,36.8-32,55.3c-7.5,13.2-2.1,29.1,11.6,34.1
		c3.4,1.2,7.3,1.7,11,1.7c20.6,0.2,41.2,0.2,61.7,0c4.6,0,7.2,1.6,9.5,5.6c12.5,22,25.2,43.9,37.9,65.7
		c6.5,11.1,18.1,15.5,29.4,11.2c6-2.3,10-6.7,13.1-12.2c12.2-21.3,24.7-42.5,36.7-63.9c2.7-4.8,5.7-6.9,11.2-6.5
		c6.8,0.4,13.7,0.1,20.6,0.1c4.3,0,6.5,2,6.6,5.4c0,3.5-2.2,5.6-6.4,5.7c-5.9,0.1-11.7,0.2-17.6,0c-3-0.1-4.6,0.8-6.1,3.5
		c-10.6,18.6-21.7,37-32,55.8c-6.7,12.3-15,22-29.3,24.8C169.2,383.4,165.7,383.4,162.2,383.4z"/>
	<path d="M267,95.4c-10.5,0-21-0.2-31.4,0.1c-4.5,0.1-7-1.6-9.2-5.4c-12.6-22.1-25.3-44.1-38.1-66.1c-7.1-12.2-21-16.4-32.4-9.4
		c-3.8,2.4-7.2,6.2-9.6,10.1c-12.8,21.6-25.4,43.5-37.8,65.4c-2.2,3.8-4.8,5.6-9.2,5.4c-6.1-0.3-12.2,0-18.3-0.1
		c-4.3,0-6.5-2-6.6-5.5c0-3.4,2.3-5.6,6.4-5.7c4.9-0.1,9.7-0.2,14.6,0c2.6,0.1,4-0.8,5.3-3C112.7,60.1,124.8,39,137.1,18
		c11.1-19.1,35.4-23.9,52.1-10.2c3.6,2.9,6.6,6.9,9,10.9c12.2,20.6,24.1,41.4,35.9,62.1c1.4,2.5,3,3.3,5.8,3.3
		c19.7-0.1,39.4-0.1,59.1,0c17.5,0.1,30.9,10.6,34.9,27.1c2.2,9.2,0.4,17.8-4.2,25.9c-9.9,17.2-19.8,34.3-29.8,51.4
		c-1.4,2.4-1.3,4.1,0,6.4c10.1,17.3,20.3,34.6,30.1,52.1c11.7,20.8,0.8,46.2-22.2,51.1c-7.6,1.6-15.6,1-23.5,1
		c-3.2,0-5.3-2.9-5.1-5.8c0.2-2.9,2.5-5.1,5.8-5.2c4.5-0.1,9,0,13.5-0.1c20.4-0.2,31.3-19,21.1-36.7c-10.5-18.3-21-36.5-31.6-54.7
		c-2.1-3.6-2.1-6.5,0-10c10.8-18.4,21.5-36.8,32-55.3c8-14,1.5-30.7-13.5-34.9c-2.8-0.8-5.9-1-8.9-1C287.4,95.3,277.2,95.4,267,95.4
		z"/>
	<path d="M167.4,270.6c-15.6,0-31.2-0.1-46.8,0.1c-3.8,0-6.2-1.4-8.1-4.7c-13.3-23.3-26.7-46.4-40.2-69.6c-1.8-3.1-1.9-5.8-0.1-9
		c13.6-23.4,27.1-46.8,40.6-70.2c1.7-2.9,3.8-4.2,7.2-4.2c31.6,0.1,63.1,0.1,94.7,0c3.4,0,5.6,1.3,7.2,4.2
		c13.5,23.4,27,46.9,40.6,70.2c1.9,3.2,1.7,5.9-0.1,9.1c-13.5,23.2-26.9,46.3-40.2,69.6c-1.9,3.3-4.3,4.7-8.1,4.7
		C198.6,270.5,183,270.6,167.4,270.6z M167,259.4c14.2,0,28.4-0.1,42.7,0.1c2.4,0,3.8-0.7,5-2.8c11.9-20.8,23.8-41.5,35.9-62.2
		c1.2-2,1.2-3.4,0-5.4c-12-20.7-24-41.4-35.9-62.2c-1.2-2.2-2.6-2.8-5-2.8c-28.2,0.1-56.4,0.1-84.6,0c-2.4,0-3.8,0.7-5,2.8
		c-11.9,20.8-23.8,41.5-35.9,62.2c-1.2,2-1.2,3.4,0,5.4c12,20.7,24,41.4,35.9,62.2c1.2,2.2,2.6,2.8,5,2.8
		C139.1,259.3,153.1,259.4,167,259.4z"/>
	<path d="M167.5,95.4c-10.2,0-20.5,0-30.7,0c-6.9,0-9.1-4-5.6-10c9.9-17.3,19.9-34.5,29.9-51.8c3.8-6.5,8.8-6.5,12.6,0.1
		c9.9,17.2,19.8,34.3,29.7,51.5c3.7,6.4,1.5,10.2-6,10.2C187.5,95.4,177.5,95.4,167.5,95.4z M189.9,83.9
		c-7.5-13-14.8-25.7-22.4-38.9C159.8,58.3,152.5,71,145,83.9C160.2,83.9,174.7,83.9,189.9,83.9z"/>
	<path d="M167.3,288.1c10.2,0,20.5,0,30.7,0c6.9,0,9.1,3.9,5.6,10c-9.9,17.3-19.9,34.5-29.9,51.8c-3.8,6.5-8.8,6.5-12.6-0.1
		c-10-17.3-20-34.5-29.9-51.8c-3.4-6-1.1-9.9,5.8-9.9C147.1,288.1,157.2,288.1,167.3,288.1z M167.4,338.4
		c7.6-13.2,14.9-25.9,22.4-38.9c-15.2,0-29.7,0-44.9,0C152.5,312.5,159.8,325.2,167.4,338.4z"/>
	<path d="M34.8,343.9c0-4.1,1.5-7.7,5.2-9.3c8.1-3.6,13.5-9.3,17.5-17.3c3.8-7.7,14.7-7.7,18.5,0c3.9,7.8,9.3,13.2,17.1,17.1
		c7.9,3.9,7.5,14.3-0.1,18.9c-0.1,0.1-0.2,0.1-0.3,0.2c-7.8,3-12.7,8.7-16.4,16.2c-4.1,8.3-15.1,8.3-19.1,0
		c-3.7-7.7-8.9-13.1-16.7-16.5C36.5,351.6,34.9,348,34.8,343.9z M66.8,323.4c-3.6,10.1-10.3,16.6-20.2,20.5
		c10.1,3.6,16.5,10.4,20.3,20.2c3.6-10,10.1-16.6,20.1-20.2C77.1,340,70.3,333.6,66.8,323.4z"/>
	<path d="M236.2,39.1c0.1-3.6,1.7-7.1,5.4-8.7c8.1-3.5,13.3-9.1,17.2-17c3.9-7.9,14.8-7.9,18.7,0c3.8,7.7,9.1,13.1,16.9,16.9
		c7.9,3.9,8,14.8,0.1,18.8c-7.8,3.9-13.2,9.3-17.1,17.1c-3.8,7.7-14.7,7.6-18.5,0c-3.9-7.8-9-13.6-17.2-17.1
		C237.8,47.4,236.1,43.8,236.2,39.1z M268.1,19.4c-3.5,10-10.3,16.4-20.6,19.9c5,3,9.8,4.7,12.9,7.9c3.3,3.3,5.1,8.1,8,13.1
		c3.2-10.4,9.9-17,19.8-20.7C278.4,35.9,271.8,29.4,268.1,19.4z"/>
	<path d="M275,112.9c8,0,15.9-0.1,23.9,0c6.3,0.1,9,4.6,5.9,10c-8,14-16.1,28.1-24.3,42c-3,5.1-7.8,5.1-10.8,0
		c-8.3-14.2-16.5-28.4-24.6-42.7c-3.1-5.3-0.7-9.3,5.6-9.4C258.8,112.8,266.9,112.9,275,112.9z M275.1,151.9
		c5.5-9.5,10.6-18.4,15.9-27.5c-10.9,0-21,0-31.7,0C264.6,133.6,269.6,142.4,275.1,151.9z"/>
	<path d="M60.4,112.9c7.8,0,15.7,0,23.5,0c6.7,0,9,4,5.6,9.8c-8,13.9-16,27.8-24.1,41.7c-3.4,5.8-8,5.9-11.4,0.1
		c-8-13.8-16-27.6-23.9-41.4c-3.3-5.7-0.7-10.2,5.8-10.3C44.2,112.8,52.3,112.9,60.4,112.9z M43.8,124.2c5.5,9.4,10.6,18.3,16,27.6
		c5.5-9.5,10.6-18.4,15.9-27.6C64.8,124.2,54.7,124.2,43.8,124.2z"/>
	<path d="M59.9,270.6c-8,0-15.9,0.1-23.9,0c-6.3-0.1-9-4.6-5.8-10.1c8-14,16.1-28.1,24.3-42c3-5.1,7.8-5.1,10.8,0.1
		c8.3,14.2,16.5,28.4,24.6,42.7c3,5.3,0.6,9.3-5.6,9.3C76,270.6,67.9,270.6,59.9,270.6z M59.7,231.6c-5.5,9.5-10.6,18.3-15.9,27.5
		c10.8,0,21,0,31.7,0C70.3,249.8,65.2,241,59.7,231.6z"/>
	<path d="M274.7,270.6c-8,0-15.9,0-23.9,0c-6.5,0-8.8-4-5.6-9.6c8.1-14.1,16.2-28.3,24.4-42.4c3.1-5.3,7.8-5.3,11,0.1
		c8.1,13.9,16.1,27.8,24.1,41.7c3.2,5.7,0.6,10.1-6,10.2C290.7,270.6,282.7,270.6,274.7,270.6z M275.1,231.6
		c-5.4,9.4-10.6,18.3-15.8,27.4c10.8,0,21,0,31.6,0C285.6,249.7,280.5,241,275.1,231.6z"/>
	<path d="M169.7,237.9c-16.3-0.2-29.1-5.4-40.3-14.2c-7.7-6-14.8-12.9-21.6-20c-5.9-6.2-6.6-15.6-1.4-22.1
		c11.4-14.3,25-26,42.5-32.5c16.1-6,31.6-3.9,46.5,4.1c12.7,6.8,23.3,16.2,32.4,27.3c5.1,6.2,5.7,15.4,0.7,21.6
		c-12.9,15.8-28,28.7-48.3,34.1C176.2,237.2,172,237.5,169.7,237.9z M164.3,156.9c-2.2,0.5-6.7,1.1-10.9,2.6
		c-15.5,5.3-27.2,15.9-37.5,28.1c-2.4,2.8-2,6.1,0.6,9.2c7,8.2,14.9,15.5,24.1,21.2c11.2,6.9,23.1,10.8,36.3,7.5
		c17.8-4.5,30.6-16.1,42.1-29.5c2.4-2.8,2-6.1-0.4-8.9c-8.7-10.1-18.5-18.9-30.5-24.9C181.3,158.7,174.1,156.8,164.3,156.9z"/>
	<path d="M167.4,166.1c14.3,0,25.6,11.2,25.7,25.5c0.1,14.4-11.4,25.9-25.8,25.8c-14.2-0.1-25.6-11.5-25.5-25.7
		C141.8,177.4,153.1,166.1,167.4,166.1z M167.5,177.3c-8.1,0-14.5,6.2-14.5,14.3c0,8.1,6.3,14.5,14.3,14.5c8.1,0,14.5-6.2,14.5-14.3
		C181.9,183.7,175.6,177.3,167.5,177.3z"/>
</g>
</svg>