<?xml version="1.0" encoding="utf-8"?>
<!-- Generator: Adobe Illustrator 25.1.0, SVG Export Plug-In . SVG Version: 6.00 Build 0)  -->
<svg version="1.1" id="Layer_1" xmlns="http://www.w3.org/2000/svg" xmlns:xlink="http://www.w3.org/1999/xlink" x="0px" y="0px"
	 viewBox="0 0 1237.2 1121.9" style="enable-background:new 0 0 1237.2 1121.9;" xml:space="preserve">
	 	<defs>
		<linearGradient id="gradient" x1="0%" y1="0%" x2="0%" y2="100%">
  <stop offset="0%" stop-color="#000000" />
  <stop offset="75%" stop-color="#e96b31" />
  <stop offset="100%" stop-color="#dc3939" />
</linearGradient>
	</defs>
<g fill="url(#gradient)">
	<path d="M523.1,292.6c0,41.2,0,82.5,0,123.7c0,3.5,0.2,7,0.4,10.5c0.1,1.5,2.4,2.5,3.7,1.7c0.8-0.5,1.7-0.9,2.4-1.5
		c7-6.1,14-12.2,20.9-18.3c1-0.8,1.8-1.8,2.7-2.7c1.1-1.2,1.8-2.6,1.9-4.3c0.1-3.5,0.2-7,0.2-10.5c0-79.3,0-158.6,0-237.9
		c0-3.5,0-7,0-10.6c-0.1-8.5-0.4-8.8-7.9-12.3c-3.2-1.5-6.7-2.3-9.5-4.4c-1-0.7-1.2-2.6-0.2-3.3c2.1-1.5,4.1-3,6.3-4.4
		c19.8-12.3,39.7-24.6,59.5-36.9c4.1-2.5,8.1-5.1,12.2-7.6c1.8-1.1,3.6-1.1,5.5-0.1c1.9,1.1,3.9,2.2,5.8,3.4
		c23.4,14.5,46.7,29,70.1,43.5c1.1,0.7,2,1.5,3,2.3c0.6,0.5,0.6,2.2,0,2.6c-1.1,0.7-2.1,1.5-3.2,2c-3.8,1.7-7.7,3.2-11.4,4.9
		c-2.2,1-3.4,2.8-3.7,5.2c-0.2,1.3-0.3,2.5-0.4,3.8c-0.1,1.9-0.1,3.8-0.1,5.8c0,81.5,0,163.1,0,244.6c0,3.2,0.1,6.4,0.4,9.6
		c0.2,2,1,3.7,2.5,5c8.2,7.1,16.4,14.3,24.6,21.4c0.5,0.4,1.1,0.6,1.7,0.9c0.9,0.5,3-0.3,3.2-1.3c0.3-1.2,0.6-2.5,0.7-3.7
		c0.1-3.2,0.1-6.4,0.1-9.6c0-82.2,0-164.3,0-246.5c0-3.5,0.2-7,0.4-10.5c0.1-1.4,1.8-3,3.3-3c2.5,0,5.1,0,7.6,0.3
		c4.1,0.5,8.2,1.3,12.3,2c4.2,0.7,7.8,2.8,11,5.5c8,6.8,16.2,13.5,24.2,20.4c23.9,20.8,47.1,42.3,69.1,65.1
		c24.9,25.8,48.5,52.7,70,81.4c14.8,19.7,28.7,40,40.8,61.5c2,3.6,3.9,7.3,5.9,11c1.8,3.3,2.1,6.7,1.2,10.2
		c-1.4,5.6-2.9,11.1-4.4,16.7c-4,14.8-8,29.6-11.9,44.4c-0.4,1.5-0.3,3.1-0.3,4.7c0,0.3,0.3,0.7,0.5,0.7c0.6,0.1,1.5,0.2,1.7-0.1
		c1.2-1.4,2.5-2.9,3.4-4.5c9.4-15.6,18.8-31.2,28.1-46.9c24-40,48-80.1,71.9-120.1c28.9-48.3,57.7-96.6,86.6-144.8
		c27.4-45.8,54.9-91.6,82.3-137.4c4.8-7.9,9.5-15.9,14.4-23.8c0.2-0.4,1.1-0.4,1.6-0.4c0.1,0,0.4,0.4,0.5,0.7
		c0.1,0.3,0.2,0.6,0.2,0.9c0.4,15.3,1.8,30.6,1.9,46c0.4,39,0.3,78-0.2,117c-0.2,13.5-1,13-7.1,21.1c-28.1,38-56.3,76-84.5,114.1
		c-17.7,23.9-35.3,47.8-53,71.8c-1.5,2-2.8,4.2-4.2,6.4c-0.5,0.8-0.1,2.5,0.8,3.5c1.2,1.3,3.2,2,4.3,1.4c1.1-0.7,2.2-1.3,3.1-2.2
		c3.8-3.9,7.5-7.9,11.1-12c21.4-23.8,42.7-47.6,64.1-71.3c18.8-20.9,37.6-41.8,56.4-62.8c0.9-0.9,1.7-2,2.6-2.8
		c0.4-0.3,1.1-0.3,1.7-0.3c0.2,0,0.5,0.4,0.5,0.7c0.5,3.5,0.1,7-0.4,10.5c-0.5,3.8-0.8,7.6-1.2,11.4c-1,8.9-1.9,17.8-3,26.6
		c-0.8,6.3-1.7,12.7-2.6,19c-2.8,20.3-6.8,40.3-11.3,60.2c-0.9,3.9-2.5,7.1-5.4,9.8c-7.6,6.9-15,13.9-22.5,20.8
		c-14.6,13.4-29.2,26.8-43.8,40.3c-18.6,17.1-37.2,34.2-55.8,51.3c-2.3,2.2-4.6,4.5-6.8,6.8c-1,1-0.8,3.1,0.1,4.5
		c1.2,1.7,3.4,2.4,5,1.5c2.5-1.4,5-2.9,7.3-4.6c22.4-15.4,44.7-30.9,67.1-46.3c11.3-7.8,22.6-15.6,33.9-23.4c1-0.7,2.2-1.2,3.4-1.7
		c0.2-0.1,0.6,0.1,0.9,0.2c0.2,0.2,0.5,0.5,0.5,0.8c-0.1,0.9-0.1,1.9-0.4,2.8c-4.4,13.4-9.6,26.4-15.2,39.3
		c-10.5,24.1-22.5,47.3-35.3,70.2c-0.9,1.7-1.9,3.3-2.9,5c-6.8,10.5-6.7,10.6-17.6,17c-28.3,16.9-56.6,33.7-84.8,50.6
		c-3.8,2.3-7.6,4.7-11.3,7.1c-1.1,0.7-1.4,2.7-0.7,4.4c0.5,1.5,2.4,3,3.6,2.7c2.5-0.5,5-1.1,7.4-1.9c13-4.4,26-9,39-13.4
		c8.8-3,17.6-5.9,26.3-8.9c1.2-0.4,2.5-0.6,3.7-0.8c0.2,0,0.7,0.2,0.8,0.4c0.2,0.5,0.6,1.3,0.4,1.7c-1.1,1.9-2.2,3.9-3.5,5.7
		c-13.2,18.1-27.2,35.5-42.1,52.3c-17.8,20.1-36.7,39.2-56.3,57.6c-12.6,11.8-25.5,23.3-38.8,34.2c-3,2.4-5.8,5-8.7,7.6
		c-1.5,1.3-2.2,3.1-2.4,5.1c-0.1,2.2-0.2,4.5-0.2,6.7c0,29.1,0,58.2,0,87.3c0,17.6,4.3,34.1,12.9,49.5c4.2,7.5,8.5,15,12.7,22.6
		c1.9,3.3,3.7,6.7,5.4,10.1c1.2,2.4,0.7,4.1-1.7,5.7c-1.6,1.1-3.2,2.1-4.8,3.1c-58.6,35.8-117.3,71.7-175.9,107.5
		c-36.8,22.5-73.6,45-110.4,67.6c-1.6,1-3.3,1.9-5,2.7c-0.8,0.4-2.2-0.2-2.3-1.1c-0.2-1.6-0.4-3.2-0.5-4.7c-0.2-7-0.2-14.1-0.5-21.1
		c-0.2-4.8-0.6-9.6-0.8-14.4c-0.2-3.5-0.3-7-0.4-10.5c-0.2-12.1-0.3-24.3-0.6-36.4c-0.1-5.7-0.7-11.5-0.9-17.2
		c-0.2-3.5-0.3-7-0.3-10.5c-0.2-11.8-0.3-23.7-0.6-35.5c-0.2-6.4-0.7-12.8-1-19.1c-0.2-3.2-0.3-6.4-0.3-9.6
		c-0.2-12.5-0.3-24.9-0.6-37.4c-0.1-6.1-0.7-12.1-1-18.2c-0.2-3.2-0.3-6.4-0.3-9.6c-0.2-12.5-0.3-24.9-0.6-37.4
		c-0.1-5.4-0.6-10.8-0.9-16.3c-0.2-3.5-0.3-7-0.4-10.5c-0.2-12.1-0.3-24.3-0.6-36.4c-0.2-6.1-0.7-12.1-1-18.2
		c-0.2-3.2-0.3-6.4-0.3-9.6c-0.2-12.8-0.3-25.6-0.7-38.4c-0.1-5.7-0.6-11.5-0.9-17.2c-0.1-2.2-0.3-4.5-0.3-6.7
		c-0.3-15.3-0.5-30.7-0.8-46c0-2.5,0.1-5.1,0.3-7.6c0.2-1.9,1.9-3.7,3.7-4c1.3-0.2,2.5-0.4,3.8-0.5c2.9-0.1,5.8-0.1,8.6-0.1
		c34.8,0,69.7,0,104.5,0c14.1,0,14.2,0,25.2-9c19.3-15.8,34.8-34.8,46.1-57c5.7-11.1,10-22.8,13-35c0.3-1.2,0.5-2.5,0.7-3.8
		c1.4-7.9,1.6-9.9-8.6-10.1c-2.9-0.1-5.8,0-8.6,0c-52.1,0-104.2,0-156.3,0c-3.5,0-7-0.2-10.5-0.4c-1.2-0.1-2.5-1.5-2.4-2.6
		c0.2-1.6,0.4-3.2,0.7-4.7c2.2-11.8-1.6-21.5-10.3-29.2c-6.4-5.7-7.8-5.6-12.3,1.8c-10.5,17.5-21.1,35.1-31.6,52.6
		c-6.1,10.1-12.2,20.3-18.3,30.4c-1,1.6-2.2,3.1-3.3,4.7c-0.5,0.7-2.1,0.6-2.6-0.1c-2-3.2-4.1-6.5-6.1-9.7
		c-14.3-23.8-28.6-47.7-43-71.5c-2-3.3-4.1-6.5-6.2-9.7c-1.6-2.3-3.6-2.7-5.8-1.4c-8.5,5.2-13.2,12.8-14.9,22.4
		c-0.5,2.9-0.4,5.7,0.1,8.6c0.3,1.6,0.6,3.1,0.7,4.7c0.2,1.4-1.2,3.3-2.7,3.5c-1.3,0.2-2.5,0.5-3.8,0.5c-3.2,0.1-6.4,0.1-9.6,0.1
		c-51.2,0-102.3,0-153.5,0c-3.2,0-6.4,0-9.6,0.1c-1.6,0.1-3.2,0.4-4.7,0.7c-2,0.4-3.4,2.3-3.2,4.1c0.1,1.3,0.4,2.5,0.6,3.8
		c3.1,15.8,8.7,30.7,16.5,44.8c12.2,22.2,28.2,41,48.4,56.3c4.6,3.5,9.3,5.4,15,5.2c2.9-0.1,5.8,0,8.6,0c34.2,0,68.4,0,102.6,0
		c3.5,0,7,0.1,10.5,0.4c2.4,0.2,4.3,2,4.4,4.3c0.2,2.2,0.2,4.5,0.2,6.7c-0.1,10.9-0.3,21.7-0.4,32.6c0,1.6,0,3.2-0.1,4.8
		c-1.7,17.9-1.4,35.8-1.7,53.7c-0.1,6.4-0.1,12.8-0.9,19.2c-0.4,2.8-0.3,5.7-0.4,8.6c-0.2,11.2-0.4,22.4-0.6,33.6
		c-0.1,8-0.3,16-0.9,23.9c-0.7,8.3-0.5,16.6-0.8,24.9c-0.4,13.7-0.4,27.5-1.2,41.2c-0.9,14.3-0.6,28.8-1,43.1
		c-0.1,6.1-0.6,12.1-0.9,18.2c-0.1,2.9-0.3,5.7-0.4,8.6c-0.2,11.2-0.4,22.4-0.6,33.6c-0.1,8,0,16-1,23.9c-0.3,2.5-0.3,5.1-0.3,7.7
		c-0.2,12.8-0.4,25.6-0.7,38.4c-0.1,5.1-0.5,10.2-0.7,15.3c-0.2,3.2-0.4,6.4-0.5,9.6c-0.3,12.1-0.4,24.3-0.7,36.4
		c0,1.6-0.3,3.2-0.5,4.7c-0.1,0.7-1.6,1.4-2.4,1c-1.4-0.7-2.9-1.4-4.2-2.2c-28.9-17.7-57.8-35.3-86.7-53
		c-33.3-20.3-66.5-40.7-99.8-61c-33.5-20.5-67.1-41-100.6-61.6c-2.2-1.3-4.2-2.8-6.3-4.3c-0.9-0.6-1.3-2.6-0.9-3.5
		c0.7-1.4,1.3-2.9,2.1-4.3c5.4-9.8,10.8-19.6,16.4-29.3c8.8-15.4,12.9-32,13.1-49.5c0.3-29.4,0.1-58.8,0.1-88.2
		c0-1.6-0.1-3.2-0.2-4.8c-0.2-3-1.4-5.5-3.7-7.5c-4.6-3.9-9.3-7.8-13.9-11.8c-25.7-21.6-49.9-44.9-73-69.3
		c-20.9-22.1-40.4-45.4-58.2-70c-1.3-1.8-2.5-3.7-3.6-5.6c-0.2-0.4,0.2-1.1,0.4-1.6c0.1-0.2,0.6-0.3,0.8-0.3c1.2,0.3,2.5,0.6,3.7,1
		c21.5,7.3,42.9,14.7,64.4,22c2.7,0.9,5.5,1.5,8.3,2.2c1.3,0.3,2.9-0.8,3.8-2.4c0.7-1.4,0.5-3.6-0.6-4.4c-1.5-1.2-3.1-2.3-4.7-3.3
		c-19.7-11.8-39.5-23.6-59.3-35.4c-11.5-6.9-23-13.8-34.7-20.5c-5.1-3-9.4-6.6-12.4-11.7c-4-6.9-8.3-13.6-12-20.7
		c-7.9-15.3-15.7-30.7-23.2-46.3c-7.8-16.1-14.2-32.8-20.2-49.7c-0.5-1.5-0.9-3.1-1.2-4.6c-0.1-0.5,0.3-1.1,0.7-1.5
		c0.1-0.1,0.7-0.1,0.9,0.1c7.7,5.2,15.4,10.4,23,15.6c27.6,19.1,55.2,38.2,82.9,57.2c1.8,1.3,3.7,2.4,5.7,3.5c2.2,1.2,5.4-0.4,6-3
		c0.2-0.9,0-2-0.4-2.7c-0.9-1.3-2-2.5-3.2-3.6c-24.9-22.9-49.9-45.8-74.9-68.8c-13.9-12.8-27.7-25.6-41.5-38.4
		c-3.5-3.3-7.1-6.5-10.6-9.7c-1.9-1.8-3.2-3.9-3.7-6.5c-1.7-8.4-3.8-16.8-5.5-25.3c-1.9-9.4-3.6-18.8-5.2-28.3
		c-1.1-6.3-1.8-12.6-2.6-19c-1.1-8.2-2.2-16.5-3.2-24.7c-0.2-1.6-0.3-3.2-0.5-4.8c-0.5-4.8-1-9.5-1.5-14.3c-0.4-4.1-1-8.2-0.1-12.4
		c0.1-0.3,1.1-0.8,1.5-0.7c0.9,0.3,1.7,0.8,2.4,1.5c3.3,3.5,6.6,7,9.8,10.5c24.6,27.4,49.1,54.8,73.7,82.1
		c14.3,15.9,28.7,31.8,43.1,47.7c1.9,2.1,3.9,4.3,5.9,6.3c2.5,2.5,4.7,2.8,6.7,0.9c1.8-1.6,1.9-3.5,0.2-6c-1.2-1.9-2.6-3.7-3.9-5.5
		c-12-16.2-23.9-32.4-35.9-48.6C74.6,276.5,40.9,231,7.3,185.5c-7.5-10.2-6.2-7.1-6.5-19.2C-0.5,118,0,69.7,0.9,21.4
		c0.1-6.4,1-12.7,1.6-19.1c0-0.5,0.7-1.1,1.2-1.2C4.2,1,5,1.4,5.2,1.8c1.4,2.1,2.8,4.3,4.1,6.5C36,52.7,62.5,97.2,89.1,141.6
		c29.6,49.4,59.1,98.7,88.7,148.1c35.9,60.1,71.9,120.2,107.8,180.2c1.1,1.9,2.4,3.8,3.6,5.7c0.3,0.5,0.8,1,1.2,1.5
		c0.5,0.6,2.2,1,2.5,0.5c0.3-0.5,0.8-1.2,0.7-1.7c-0.7-3.4-1.4-6.9-2.3-10.3c-4.3-16.4-8.7-32.7-13-49.1c-0.4-1.5-0.9-3.1-1.2-4.6
		c-0.8-3.9-0.5-7.6,1.5-11.1c2.7-4.7,5.1-9.6,7.8-14.3c14.9-25.8,32.2-50,50.7-73.3c28.5-35.9,59.8-69.1,93.2-100.5
		c18.6-17.5,37.9-34.3,57.7-50.6c4.1-3.4,8.3-5.8,13.7-6.1c2.2-0.1,4.4-0.9,6.6-1.1c3.2-0.4,6.3-0.7,9.5-0.9c3-0.2,5,1.5,5.1,4.4
		c0.1,2.9,0.2,5.8,0.2,8.6c0,28.5,0,56.9,0,85.4C523.1,265.7,523.1,279.2,523.1,292.6z"/>
</g>
</svg>