<?xml version="1.0" encoding="utf-8"?>
<!-- Generator: Adobe Illustrator 25.1.0, SVG Export Plug-In . SVG Version: 6.00 Build 0)  -->
<svg version="1.1" id="Layer_1" xmlns="http://www.w3.org/2000/svg" xmlns:xlink="http://www.w3.org/1999/xlink" x="0px" y="0px"
	 viewBox="0 0 1099.8 1160.4" style="enable-background:new 0 0 1099.8 1160.4;" xml:space="preserve">
   	<defs>
		<linearGradient id="gradient" x1="0%" y1="0%" x2="0%" y2="100%">
  <stop offset="0%" stop-color="#113aee" />
  <stop offset="25%" stop-color="#0a6b5e" />
  <stop offset="50%" stop-color="#0a9168" />
  <stop offset="100%" stop-color="#1cf138da" />
</linearGradient>
	</defs>
<g fill="url(#gradient)">
	<path d="M153.4,331.6c0-36.1,0-72.3,0-108.4c0-2.9,0-5.8,0.2-8.6c0-0.5,0.6-1,1.1-1.4c0.1-0.1,0.7-0.1,0.9,0.1
		c2.1,1.9,4.3,3.8,6.3,5.8c36,35.9,72,71.8,108,107.7c14.5,14.4,29,28.9,43.5,43.3c1.8,1.8,3.6,3.6,5.3,5.5c0.6,0.7,1.3,1.5,1.5,2.4
		c0.2,0.8,0,1.9-0.3,2.7c-0.2,0.4-1.1,0.8-1.6,0.8c-7.5-1.2-15.1-2.5-22.6-3.9c-4.7-0.8-9.4-2-14.1-2.7c-2.5-0.4-5.1-0.3-7.6-0.2
		c-2.6,0.1-5.2,3.3-5.3,6c-0.1,2.6,0.5,5,1.4,7.5c3,8.7,6,17.5,9,26.3c6.8,19.3,13.6,38.6,20.4,57.8c0.9,2.4,1.8,4.8,2.8,7.1
		c0.7,1.8,3.1,2.6,4.9,1.7c2.3-1.1,4.6-2.3,6.8-3.5c27.7-15.5,56.8-27.8,87.1-37.1c3.4-1,6.7-2.2,10.1-3.2c3.4-0.9,5.5-2.9,6.9-6.1
		c4.3-10,8.7-19.9,13.1-29.9c7-16.1,14-32.2,21-48.4c0.5-1.2,1-2.3,1.6-3.5c1-2,2.4-3.1,3.4-2.6c1.3,0.7,1.5,2,1.6,3.3
		c0.8,10.5,1.5,21,2.5,31.5c0.9,10.2,2.1,20.3,3.1,30.5c0.2,2.2,0.3,4.5,0.5,6.7c0.2,3.2,0.4,6.4,0.7,9.6c0.4,4.8,0.9,9.5,1.3,14.3
		c0.3,2.9,0.6,5.7,0.8,8.6c0.3,3.2,0.6,6.4,0.9,9.5c0.4,4.5,0.9,8.9,1.3,13.4c0.2,2.5,0.4,5.1,0.6,7.6c0.4,4.5,0.9,8.9,1.3,13.4
		c0.2,2.5,0.4,5.1,0.6,7.6c0.4,4.5,0.8,8.9,1.3,13.4c0.2,2.2,0.4,4.5,0.6,6.7c0.5,5.1,1.1,10.2,1.4,15.3c0.3,3.8,0.4,7.7,0.4,11.5
		c0,2.1-1.4,3.5-3.3,4.3c-1.2,0.5-2.4,0.7-3.7,0.9c-31.4,6.7-61.6,16.8-90,31.9c-8.5,4.5-16.6,9.6-24.9,14.5c-1.6,1-3.1,2.2-4.6,3.4
		c-1.7,1.3-2.2,3.2-1.8,5.1c0.4,1.9,1,3.7,1.6,5.5c8.1,23.2,16.1,46.5,24.3,69.7c7.6,21.7,15.2,43.4,22.8,65.1
		c12.1,34.7,24.3,69.3,36.5,104c16.3,46.4,32.5,92.9,48.7,139.3c0.4,1.2,0.9,2.4,1.3,3.6c1.2,3.7,0.6,5.4-2.6,7.1
		c-1.4,0.7-2.9,1.3-4.4,1.8c-1.1,0.4-2.7-0.3-3.3-1.3c-0.6-1.1-1.3-2.2-1.8-3.4c-2.1-4.3-4.2-8.6-6.3-12.9
		c-10.7-22.5-21.3-45.1-31.9-67.6c-17.5-37-35-73.9-52.6-110.9c-11.4-24-22.7-47.9-34-71.9c-13.1-27.7-26.2-55.5-39.3-83.2
		c-1.1-2.3-2.4-4.5-3.7-6.7c-0.6-1-2.5-1.4-3.4-0.7c-1,0.7-2.1,1.4-3,2.3c-2.6,2.8-5.3,5.6-7.8,8.5c-17.8,20.7-32.8,43.2-45.4,67.4
		c-15.8,30.5-27.5,62.5-35.8,95.8c-3.8,15.2-6.4,30.6-9,46.1c-0.2,0.9-0.2,1.9-0.2,2.9c0,1.7,0.5,3.2,1.8,4.3
		c1.7,1.5,3.5,2.8,5.3,4.1c15.2,10.6,30.5,21.1,45.7,31.7c54.7,37.8,109.4,75.5,164.2,113.3c20.3,14,40.5,28,60.8,41.9
		c9.8,6.7,9.2,6.5,2.5,15.1c-9.7,12.5-6,12.5-19.5,3.7c-17.4-11.3-34.7-22.8-52.1-34.2c-48.3-31.8-96.7-63.6-145-95.3
		c-44.3-29.1-88.7-58.3-133-87.4c-39.8-26.2-79.6-52.3-119.4-78.4c-2.7-1.8-5.3-3.5-7.8-5.6c-0.9-0.7-1.6-2.1-1.7-3.3
		c-0.2-2.5-0.3-5.2,0.2-7.6c1.4-7.4,1.3-8.1,7.9-12.2c30.2-18.6,60.4-37.3,90.6-55.9c8.4-5.2,16.8-10.6,25.3-15.5
		c4.7-2.7,7.6-6.4,9.6-11.4c10.1-26.4,23.7-51,39.8-74.2c11.9-17.1,24.9-33.3,39.6-48c8.8-8.8,17.9-17.4,26.9-26
		c3.9-3.7,4.9-5.2,2.2-10.8c-1.8-3.7-3.4-7.6-5.1-11.3c-9-19.1-18.1-38.1-27.2-57.1c-4.1-8.7-8.2-17.4-12.3-26c-1-2-1.9-4.1-3-6
		c-3.7-6.4-9.3-6.9-13.7-1.1c-1.5,2-2.9,4.2-4.3,6.4c-4.9,7.5-9.7,15.1-14.6,22.6c-1.2,1.9-2.5,3.7-3.9,5.4
		c-0.6,0.7-1.4,1.3-2.5,1.1c-1-0.2-2-1.5-2.1-2.9c-0.1-2.6-0.2-5.1-0.2-7.7c0-22.4,0-44.8,0-67.1C153.4,360.3,153.4,346,153.4,331.6
		C153.4,331.6,153.4,331.6,153.4,331.6z"/>
	<path d="M946.4,331.9c0,36.5,0,72.9,0,109.4c0,3.2-0.3,6.4-0.6,9.5c0,0.5-0.8,1.1-1.3,1.2c-0.5,0.2-1.4,0.1-1.8-0.3
		c-1.3-1.4-2.7-2.8-3.7-4.3c-5.4-8.3-10.8-16.6-16.2-24.9c-1.8-2.7-3.7-5.2-5.8-7.6c-1.6-1.8-3.8-2.2-6.2-1.7
		c-1.7,0.3-3,1.3-3.9,2.6c-1.3,1.8-2.4,3.8-3.4,5.8c-12.6,26.6-25.1,53.2-37.7,79.7c-2.9,6.1-5.8,12.1-8.6,18.2
		c-0.5,1.1-1,2.4-1.2,3.6c-0.1,0.9,0.1,2,0.6,2.7c0.6,1.1,1.6,2,2.5,2.9c2.8,2.6,5.6,5.2,8.5,7.8c24.8,22.4,46.3,47.7,64.7,75.6
		c13.6,20.6,25.1,42.3,34,65.4c0.6,1.5,1.1,3,1.8,4.4c0.8,1.8,2,3.3,3.6,4.4c2.1,1.4,4.3,2.8,6.4,4.2c36.4,22.5,72.9,45,109.3,67.5
		c3,1.8,5.9,3.8,8.8,5.9c1.9,1.4,2.9,3.4,3.1,5.7c0,0.3,0.1,0.6,0.1,1c0.5,13.7,1.6,11.7-9,18.6c-44.3,29.2-88.7,58.3-133,87.4
		c-44.9,29.5-89.7,59-134.6,88.5c-44.3,29.1-88.7,58.3-133,87.4c-16.8,11.1-33.7,22.1-50.5,33.2c-2.1,1.4-4.3,2.7-6.5,4
		c-0.9,0.5-2.9,0.2-3.6-0.5c-1.1-1.2-2.2-2.3-3.2-3.5c-1-1.2-2-2.5-2.9-3.8c-8.5-11.6-9.3-9.2,2.7-17.5
		c51.8-35.8,103.7-71.5,155.5-107.2c36.6-25.2,73.1-50.5,109.7-75.7c1.3-0.9,2.7-1.8,3.9-2.7c6.5-4.9,7.2-5.5,5.9-13.6
		c-5-32.6-13.1-64.5-24.8-95.4c-14.9-39.5-35.2-75.9-62.5-108.2c-3.5-4.1-7.2-8.1-10.9-12.1c-0.6-0.7-1.5-1.2-2.2-1.8
		c-0.9-0.7-2.9-0.4-3.5,0.6c-1.3,2.2-2.7,4.4-3.8,6.7c-6.1,12.7-12,25.4-18,38.1c-15.3,32.4-30.6,64.7-45.9,97.1
		c-6,12.7-12,25.4-18.1,38.1c-15.1,31.8-30.2,63.5-45.3,95.3c-12.2,25.7-24.3,51.4-36.5,77.1c-0.8,1.7-1.7,3.4-2.8,5
		c-0.3,0.4-1.1,0.8-1.7,0.7c-3.3-0.3-6.1-1.6-8.4-4.1c-0.4-0.4-0.6-1.2-0.5-1.8c0.4-1.9,0.8-3.7,1.5-5.5c3.1-8.7,6.2-17.5,9.3-26.2
		c16.5-47,33-94.1,49.4-141.1c11.4-32.6,22.7-65.2,34.1-97.7c12.9-36.8,25.8-73.6,38.7-110.4c1.2-3.3,2.1-6.7,3-10.1
		c0.4-1.6,0-3.2-1.4-4.3c-2.3-1.7-4.6-3.4-7-5c-22-13.9-45.3-25-69.9-33.3c-14.5-4.9-29.3-8.9-44.4-11.9c-1.2-0.2-2.5-0.7-3.6-1.3
		c-1.1-0.6-2.1-1.6-2.1-3c-0.1-2.5-0.3-5.1,0.1-7.6c0.9-5.4,1.3-10.8,1.5-16.2c0.1-2.2,0.4-4.5,0.7-6.7c0.2-1.6,0.5-3.2,0.7-4.7
		c0.8-10.2,1.6-20.4,2.5-30.6c0.2-2.2,0.4-4.4,0.7-6.7c0.1-1.3,0.5-2.5,0.6-3.8c0.9-10.2,1.7-20.4,2.6-30.6c0.2-2.9,0.6-5.7,0.9-8.6
		c0.1-1,0.3-1.9,0.4-2.8c0.9-10.2,1.7-20.4,2.6-30.6c0.2-2.9,0.5-5.7,0.8-8.6c0.1-1.3,0.4-2.5,0.5-3.8c0.9-10.2,1.7-20.4,2.5-30.6
		c0.3-3.8,0.5-7.7,2.3-11.2c0.1-0.3,1.4-0.4,1.6-0.2c0.8,0.9,1.7,1.9,2.2,3.1c3.8,8.5,7.5,16.9,11.2,25.4
		c7.3,16.7,14.4,33.4,21.7,50.1c5.1,11.7,4.2,9.9,14.7,13.1c32.9,9.9,64.3,23.2,94.2,40c1.1,0.6,2.2,1.3,3.4,1.9
		c2.8,1.4,5.1,0.7,6.3-2.1c0.6-1.5,1.2-3,1.7-4.5c9.7-27.7,19.4-55.5,29.1-83.2c0.9-2.7,1.8-5.5,2.5-8.2c0.9-3.8-2.1-8.1-6-8.2
		c-2.5-0.1-5.1-0.1-7.6,0.3c-11.6,2.1-23.2,4.5-34.8,6.7c-0.3,0.1-0.7,0.2-0.9,0.1c-0.9-0.3-1.8-0.5-2.5-1.1
		c-0.8-0.7-0.7-1.9-0.2-2.6c1.3-1.8,2.7-3.5,4.3-5.1c8.3-8.4,16.7-16.7,25.1-25.1c43.5-43.3,87-86.7,130.4-130c1.6-1.6,3.3-3,5-4.4
		c0.2-0.2,1.4,0.3,1.5,0.5c0.2,2.2,0.4,4.4,0.4,6.7c0,37.1,0,74.2,0,111.3C946.3,331.9,946.3,331.9,946.4,331.9z"/>
	<path d="M562.8,1039.5c0,0.5,0,0.9,0,1.2c-0.3,13-1.1,10.4,6.5,21.2c18.6,26.4,37.4,52.6,56.1,79c1.3,1.8,2.6,3.6,3.9,5.5
		c3,4.5,2.9,5.6-0.4,10.2c-0.7,1-1.6,2-2.5,2.9c-1,0.9-2.2,1.3-3.5,0.8c-2.4-0.9-4.8-1.7-7.2-2.7c-17.2-6.9-34.4-13.9-51.5-20.8
		c-3-1.2-6-2.3-8.9-3.5c-2.8-1.1-5.6-1.2-8.4,0c-3.3,1.3-6.5,2.6-9.8,3.9c-16.9,6.8-33.8,13.6-50.7,20.4c-2.4,0.9-4.8,1.8-7.2,2.7
		c-1.3,0.5-2.6,0.1-3.5-0.9c-1.3-1.4-2.5-2.9-3.7-4.4c-2.3-3.1-2.3-4.3,0.1-7.7c9.4-13.3,18.9-26.6,28.3-39.9
		c11.3-15.9,22.6-31.8,33.9-47.7c0.9-1.3,1.8-2.7,2.7-4c1.5-2.2,2.2-4.6,2.1-7.2c-0.4-10.2-0.8-20.4-1.3-30.6
		c-0.1-1.3-0.4-2.5-0.4-3.8c-0.3-14.4-1.1-28.7-2.1-43.1c-0.7-9.9-0.3-19.8-1.7-29.7c-0.3-2.2-0.2-4.5-0.3-6.7
		c-0.3-9.9-0.3-19.8-1.6-29.7c-0.4-2.8-0.2-5.7-0.3-8.6c-0.3-9.6-0.3-19.2-1.6-28.7c-0.3-2.2-0.2-4.5-0.3-6.7
		c-0.3-10.2-0.3-20.5-1.7-30.6c-0.4-2.8-0.2-5.7-0.3-8.6c-0.3-8.9-0.3-17.9-1.5-26.8c-0.4-2.5-0.3-5.1-0.4-7.7
		c-0.3-9.9-0.3-19.8-1.6-29.7c-0.3-2.5-0.2-5.1-0.3-7.7c-0.3-9.6-0.3-19.2-1.6-28.7c-0.4-2.8-0.3-5.7-0.3-8.6
		c-0.3-9.3-0.3-18.5-1.6-27.8c-0.4-2.8-0.3-5.7-0.3-8.6c-0.3-9.3-0.2-18.5-1.6-27.8c-0.3-2.2-0.3-4.5-0.3-6.7
		c-0.3-10.2-0.3-20.5-1.7-30.6c-0.3-2.5-0.2-5.1-0.3-7.7c-0.3-9.9-0.3-19.8-1.6-29.7c-0.4-2.8-0.2-5.7-0.3-8.6
		c-0.3-9.3-0.3-18.5-1.6-27.8c-0.4-2.8-0.3-5.7-0.4-8.6c-0.3-9.3-0.3-18.5-1.6-27.8c-0.4-2.8-0.3-5.7-0.4-8.6
		c-0.3-9.3-0.3-18.5-1.5-27.8c-0.4-3.2-0.3-6.4-0.4-9.6c-0.3-8.9-0.3-17.9-1.5-26.8c-0.4-2.5-0.3-5.1-0.4-7.7
		c-0.3-9.9-0.3-19.8-1.6-29.7c-0.3-2.5-0.2-5.1-0.3-7.7c-0.3-9.6-0.3-19.2-1.6-28.7c-0.4-2.8-0.2-5.7-0.3-8.6
		c-0.3-9.3-0.3-18.5-1.6-27.8c-0.3-2.2-0.2-4.5-0.3-6.7c-0.3-10.5-0.3-21.1-1.7-31.6c-0.5-3.5-0.2-7-0.4-10.5
		c-0.1-1.9-0.2-3.8-0.6-5.7c-0.5-2.2-1.5-4.2-3.4-5.7c-2.7-2.2-5.8-2.9-8.9-1.3c-2.8,1.5-5.5,3.2-8.1,5c-10.9,7.3-21.7,14.7-32.6,22
		c-2.4,1.6-4.8,3.2-7.3,4.6c-1.1,0.7-2.4,0.8-3.6,0c-1.3-1-1.7-2.5-1.1-4.3c0.4-1.2,0.9-2.4,1.3-3.6c12.7-31,25.5-62.1,38.2-93.1
		c12.9-31.3,25.8-62.6,38.7-93.9c12.4-30.1,24.8-60.3,37.2-90.4c0.4-0.9,0.9-1.7,1.4-2.4c0.5-0.6,1.3-0.7,1.7-0.1c1,1.6,2,3.3,2.7,5
		c9,21.9,18,43.7,27,65.6c16.2,39.3,32.3,78.6,48.5,117.9c12.3,29.8,24.6,59.7,36.8,89.5c1,2.3,1.7,4.8,2.2,7.3
		c0.1,0.7-0.6,1.9-1.3,2.4c-0.7,0.5-1.9,0.8-2.6,0.5c-2-0.9-3.9-2.1-5.8-3.3c-11.4-7.7-22.7-15.5-34.1-23.1c-2.9-2-5.9-3.9-9-5.5
		c-4.1-2.2-9.3-0.1-11.2,4.2c-0.6,1.4-1.1,3-1.4,4.6c-0.3,1.2-0.3,2.5-0.4,3.8c-0.8,16.9-1.5,33.8-2.3,50.8
		c-0.1,2.9-0.4,5.7-0.6,8.6c-0.2,1.9-0.5,3.8-0.6,5.7c-0.2,18.5-2.3,37-2.6,55.5c-0.1,4.5-0.6,8.9-0.8,13.4c-0.4,7.3-0.7,14.7-1,22
		c-0.3,5.1-0.7,10.2-1,15.3c-0.4,7.7-0.6,15.3-1,23c-0.2,4.1-0.6,8.3-0.8,12.4c-0.4,6.7-0.7,13.4-1,20.1c-0.2,6.1-0.4,12.1-1,18.2
		c-0.7,7-0.6,14-1,21.1c-0.2,4.8-0.7,9.6-0.9,14.3c-0.4,7.7-0.6,15.3-1,23c-0.3,5.1-0.7,10.2-1,15.3c-0.4,7-0.6,14.1-0.9,21.1
		c-0.3,5.1-0.7,10.2-1,15.3c-0.4,7.3-0.6,14.7-1,22c-0.2,4.8-0.7,9.6-0.9,14.3c-0.4,6.7-0.7,13.4-0.9,20.1c-0.2,5.7-0.4,11.5-1,17.2
		c-0.7,7.3-0.7,14.7-1,22c-0.2,4.5-0.6,8.9-0.9,13.4c-0.4,6.4-0.7,12.8-0.9,19.2c-0.2,6.4-0.4,12.8-1.1,19.1
		c-0.7,6.7-0.6,13.4-0.9,20.1c-0.3,5.1-0.7,10.2-1,15.3c-0.3,6.4-0.6,12.8-0.9,19.2c-0.2,6.1-0.5,12.1-1,18.2
		c-0.7,7.6-0.7,15.3-1,23c-0.2,4.5-0.6,8.9-0.9,13.4c-0.4,7.7-0.7,15.3-1,23c-0.2,4.5-0.6,8.9-0.9,13.4c-0.4,7.3-0.7,14.7-1,22
		c-0.3,5.1-0.7,10.2-1,15.3c-0.4,7-0.6,14.1-0.9,21.1c-0.3,5.1-0.7,10.2-1,15.3c-0.3,6.1-0.6,12.1-0.9,18.2
		c-0.2,6.7-0.2,13.4-1.2,20.1C562.9,1032.6,563,1036.2,562.8,1039.5z"/>
</g>
</svg>