<?xml version="1.0" encoding="utf-8"?>
<!-- Generator: Adobe Illustrator 25.1.0, SVG Export Plug-In . SVG Version: 6.00 Build 0)  -->
<svg version="1.1" id="Layer_1" xmlns="http://www.w3.org/2000/svg" xmlns:xlink="http://www.w3.org/1999/xlink" x="0px" y="0px"
	 viewBox="0 0 1124.5 1153.3" style="enable-background:new 0 0 1124.5 1153.3;" xml:space="preserve">
	<defs>
		<linearGradient id="gradient" x1="0%" y1="0%" x2="0%" y2="100%">
  <stop offset="0%" stop-color="#e70a27" />
  <stop offset="50%" stop-color="#e9316e" />
  <stop offset="100%" stop-color="#000000" />
</linearGradient>
	</defs>
<path fill="url(#gradient)" d="M860.1,541.4c0.4,18.2-2,34.9-5.2,51.6c-0.7,3.8-1.6,7.5-2.2,11.3c-0.4,2.3,0.3,4.4,2.1,6c0.7,0.6,1.4,1.3,2.2,1.8
	c13.2,9.2,10.4,9.4,22.8,0.4c8.6-6.2,17-12.5,25.5-18.7c24.8-18,46.2-39.4,64-64.3c3.3-4.7,6.7-9.4,10.1-14c0.7-1,1.5-2.1,2.2-3.1
	c1.8-2.5,2.3-5.1,1.3-8.1c-2.1-6.4-3.9-12.8-5.8-19.3c-0.7-2.4-1.6-4.9-2.2-7.3c-0.4-1.5-0.6-3.2-0.6-4.7c-0.1-1.7,0.6-3.1,1.8-4.3
	c0.9-0.9,1.9-1.7,3-2.4c10.3-6.2,21.5-9.7,33.6-9.7c6.1,0,12.2,1,17.9,3c18.1,6.3,32.8,17,42.7,33.7c4.6,7.8,7.4,16.3,7.5,25.4
	c0.1,4.2,0,8.3-0.2,12.5c-0.1,2.2-0.5,4.4-1,6.6c-1.7,7-2.4,7.7-9.8,7.7c-9.6,0.1-19.1,1.2-28.7,1.7c-2,0.1-3.7,0.9-5,2.4
	c-0.4,0.5-0.9,0.9-1.2,1.5c-13.3,18-26.1,36.3-35.9,56.6c-6.4,13.3-11.8,26.9-16.3,40.9c-3.4,10.7-6.7,21.3-10,32
	c-0.8,2.4-1.5,4.9-2.2,7.3c-0.9,2.8,0.1,5,2.4,6.7c2,1.6,4.1,3.1,6.1,4.6c11.4,8.2,22.9,16.4,34.3,24.6
	c11.5,8.3,23.7,15.1,37.2,19.6c8.8,2.9,17.9,4.8,27.3,4.6c13.7-0.3,25.6-4.9,35.8-14c2.1-1.9,4.2-3.9,6.3-5.8c1.3-1.2,4.2,0,4.5,1.9
	c0.2,0.9,0.4,1.9,0.2,2.8c-0.5,2.2-1.2,4.3-2,6.4c-6.7,17.4-15.4,33.7-27.7,47.9c-7.9,9-17,16.4-27.9,21.6
	c-9.7,4.6-19.9,6.9-30.6,6.8c-6.4-0.1-12.7-1.3-18.9-2.9c-10.9-2.7-21.2-7.1-30.9-12.8c-5.8-3.4-11.5-7-16.9-10.9
	c-44.2-31.6-88.4-63.2-132.6-94.9c-19-13.6-38-27.1-56.9-40.7c-6.8-4.8-13.7-9.4-21.1-13.2c-8-4-16.4-7.1-25.1-9.4
	c-5.6-1.5-11.4-1.4-17-2.5c-16.8,0.4-31.2,6.2-42.5,18.8c-2.2,2.4-3.4,5.3-4.1,8.5c-2.4,10.9-4.9,21.8-7.3,32.7
	c-4.3,19.6-8.6,39.3-12.8,59c-5.5,25.3-10.9,50.6-16.4,75.8c-3.3,15.3-6.8,30.6-10.1,45.8c-5.6,25.6-11.1,51.2-16.7,76.8
	c-3.3,15.3-6.7,30.6-10.1,45.8c-5.6,25.9-11.3,51.8-16.9,77.7c-1,4.7-2.1,9.3-3.2,14c-0.5,2.3,0.1,4.5,1.8,6.2c2,2.1,4.1,4,6.3,5.9
	c1.1,1,3.4,0.4,4.1-0.9c1.2-2.3,2.4-4.5,3.4-6.9c8.5-20.4,16.9-40.7,25.4-61.1c14-33.6,28-67.2,42-100.9
	c12.8-30.7,25.5-61.4,38.2-92.1c18.6-44.8,37.3-89.7,55.9-134.5c2.2-5.3,4.3-10.7,6.5-16c0.7-1.8,1.7-3.4,2.6-5.1
	c0.4-0.7,1.9-1.2,2.5-0.9c0.8,0.5,1.7,0.9,2.5,1.4c20.5,14.2,40.9,28.5,61.4,42.8c0.5,0.4,1,0.7,1.5,1.1c5,3.8,5.3,4.8,2.1,10.3
	c-11.2,19.3-22.5,38.6-33.8,58c-17.7,30.4-35.3,60.8-53,91.2c-12.2,21-24.4,42-36.6,63c-1.4,2.5-3.2,4.8-3.7,7.7
	c-0.1,0.5,0.4,1.1,0.8,1.6c0.1,0.1,0.7,0.1,0.9,0c1.2-1,2.5-1.9,3.6-3.1c8.3-9.3,16.5-18.7,24.6-28.1c18.7-21.5,37.3-43,56-64.5
	c19.3-22.2,38.6-44.4,57.9-66.6c8.6-9.9,17.2-19.8,25.8-29.6c0.8-1,1.7-1.9,2.6-2.8c0.9-0.9,2.5-1.2,3.5-0.5c1.3,0.9,2.7,1.7,4,2.6
	c19.9,14.5,39.7,29.1,59.6,43.7c5.4,4,5.5,5.1,0.8,9.4c-7.6,6.9-15.2,13.7-22.9,20.4c-19.9,17.6-39.7,35.2-59.6,52.8
	c-19.9,17.6-39.7,35.3-59.5,52.9c-18.7,16.5-37.4,33-56,49.6c-20.6,18.2-41.1,36.5-61.7,54.8c-18.7,16.5-37.3,33.1-56,49.6
	c-15.1,13.4-30.1,26.7-45.2,40.1c-6,5.3-12,10.6-17.9,15.9c-0.7,0.6-1.5,1.2-2.2,1.8c-1.3,1-3.2,1.1-4.5,0.2c-1.5-1.2-3-2.3-4.5-3.6
	c-9.1-8-18.2-16-27.3-24.1c-21.5-19.1-43.1-38.2-64.6-57.3c-19.4-17.2-38.7-34.4-58.1-51.6c-20.6-18.2-41.2-36.5-61.7-54.7
	c-18.4-16.3-36.8-32.7-55.2-49c-20.6-18.2-41.2-36.5-61.7-54.7c-16.7-14.8-33.5-29.7-50.2-44.5c-0.7-0.6-1.4-1.4-1.8-2.2
	c-0.3-0.5-0.3-1.5,0-1.8c1.8-1.7,3.7-3.5,5.8-5c9.3-6.8,18.6-13.6,27.8-20.4c9-6.6,18-13.2,27.1-19.8c1.8-1.3,3.6-2.7,5.5-3.9
	c3.1-2.1,4.3-2,6.6,0.5c1.7,1.9,3.4,3.8,5.1,5.7c19.5,22.4,39,44.9,58.5,67.3c18.5,21.2,36.9,42.5,55.4,63.7
	c15.1,17.4,30.2,34.8,45.3,52.1c1.5,1.7,3.1,3.2,4.8,4.6c0.3,0.3,1.3,0.2,1.7-0.1c0.4-0.3,0.6-1.1,0.4-1.6c-0.2-0.9-0.6-1.8-1.1-2.6
	c-1.9-3.4-3.7-6.7-5.7-10c-18.8-32.3-37.7-64.6-56.5-96.9c-20.7-35.6-41.4-71.3-62.2-106.9c-0.6-1.1-1.3-2.2-1.9-3.3
	c-2.9-5.3-2.6-6.7,2.5-10.3c14.1-9.9,28.3-19.8,42.4-29.7c6.3-4.4,12.5-8.8,18.8-13.2c1.3-0.9,2.8-1.6,4.2-2.1
	c0.4-0.2,1.4,0.2,1.7,0.6c0.9,1.3,1.7,2.7,2.3,4.2c5.2,12.4,10.4,24.8,15.5,37.1c15.8,38.1,31.7,76.1,47.5,114.2
	c18.3,44,36.5,87.9,54.8,131.9c17,41,34.1,82,51.2,123c1,2.3,2.3,4.5,3.5,6.8c0.6,1.1,2.4,1.3,3.4,0.8c2.6-1.4,4.5-3.6,6.4-5.7
	c1.8-2,2.5-4.3,1.9-7.1c-2.2-10-4.4-20-6.5-29.9c-4.5-20.9-9.1-41.8-13.6-62.7c-6.8-31.2-13.7-62.4-20.6-93.6
	c-7.1-32.1-14.1-64.3-21.1-96.4c-7.2-33.1-14.4-66.2-21.6-99.2c-3.2-14.7-6.5-29.3-9.6-44c-1-4.6-3-8.3-6.3-11.6
	c-6.9-6.9-14.7-12.4-24.3-14.7c-7.1-1.7-14.3-3.5-21.8-1.7c-20,1.7-37.5,10.2-53.7,21.4c-14.2,9.8-28.1,20-42.2,30.1
	c-28.9,20.7-57.7,41.3-86.5,62c-19.2,13.8-38.5,27.5-57.7,41.3c-8.3,6-16.7,11.8-25.6,16.8c-9.5,5.4-19.5,9.6-30.1,12.1
	c-5.9,1.4-11.9,2.7-17.9,2.8c-10,0.1-19.7-1.9-28.9-5.8c-12.9-5.5-23.4-14.4-32.2-25.1c-8-9.7-14.5-20.3-19.7-31.7
	c-2.5-5.5-4.7-11.2-6.9-16.8c-0.6-1.4-0.7-3.1-0.7-4.7c0-0.9,0.5-1.8,1-2.6c0.7-1.1,2.5-1.5,3.4-0.8c1.5,1.2,3,2.4,4.3,3.8
	c8.1,8.3,17.9,13.2,29.3,15.3c6.7,1.2,13.4,1.1,20,0.1c10.5-1.6,20.5-5,30-9.5c6.7-3.2,13-6.8,19-11.1c13.6-9.6,27-19.4,40.5-29.1
	c1.3-0.9,2.5-1.9,3.8-2.9c2.2-1.7,3.2-3.9,2.4-6.7c-0.4-1.5-0.7-3.1-1.2-4.6c-4-12.8-8.1-25.6-12.2-38.4
	c-9-28.3-22.2-54.4-39.7-78.4c-3.6-4.9-7.2-9.8-10.6-14.8c-2.2-3.1-4.8-4.7-8.7-4.9c-9.6-0.5-19.1-1.5-28.7-1.6
	c-1,0-1.9-0.1-2.9-0.3c-1.6-0.4-3-1.3-3.6-2.9c-0.9-2.4-1.7-4.8-2.1-7.3c-1-7.3-1.1-14.7-0.1-22c1.5-11.1,6.4-20.7,13.5-29.2
	c8.8-10.5,19.8-18.2,32.6-23c18.9-7.1,37-5,54.3,5.2c1.4,0.8,2.6,1.8,3.9,2.8c1.6,1.3,2.1,3.2,1.8,5.2c-0.2,1.6-0.7,3.1-1.1,4.6
	c-1.9,6.4-3.9,12.8-5.8,19.3c-0.6,2.1-1.3,4.3-1.9,6.4c-0.9,3-0.4,5.7,1.4,8.2c0.6,0.8,1.1,1.6,1.7,2.4c5.4,7.5,10.7,15.2,16.3,22.5
	c16.3,21.2,35.1,39.7,56.7,55.4c10.3,7.5,20.6,15.2,30.9,22.7c7,5.1,7.3,5,14.2,0.1c2.3-1.7,4.6-3.4,6.9-5.2c1.9-1.5,2.6-3.6,2.1-6
	c-1.3-6.9-2.9-13.8-4-20.7c-1.4-8.8-3-17.6-3-26.6c-0.1-9.9-0.4-19.8,0-29.7c0.9-21.3,5.9-41.7,14.8-61.1
	c10-21.6,24.6-39.6,42.9-54.6c17.5-14.3,36.9-25.2,57.8-33.5c22.6-9.1,46-15.4,70-19.7c12-2.1,24-3.4,36-5.3
	c1.3-0.2,2.5-0.4,3.8-0.6c1.7-0.4,2.9-1.5,3.4-3.1c0.6-2.1,1.1-4.3,1.3-6.5c0.9-12.1,1.1-24.3,2.5-36.3c1.4-12.1,1.5-24.2,2.8-36.3
	c1.4-12.4,1.8-24.9,2.7-37.3c0.3-4.1,0.7-8.3,1-12.4c0.4-5.4,0.6-10.8,1-16.3c0.2-2.2,0.5-4.4,0.8-6.6c0.3-1.8,2.3-2.5,3.6-1.3
	c1.9,1.7,3.7,3.5,5.5,5.3c13.5,13.2,26.9,26.5,40.4,39.7c7.1,7,7.5,7,14.5,0.1c13.7-13.4,27.3-26.9,41-40.4c1.8-1.8,3.8-3.4,5.7-5.1
	c0.6-0.6,2.1,0,2.3,0.9c1,4,1.6,8.1,1.7,12.3c0.1,7,0.4,14.1,1.5,21c0.4,2.5,0.3,5.1,0.5,7.7c0.4,6.1,1,12.1,1.4,18.2
	c0.2,2.2,0.4,4.5,0.4,6.7c0.2,6.4,0.4,12.8,1.5,19.1c0.4,2.2,0.4,4.5,0.4,6.7c0.2,6.7,0.5,13.4,1.5,20.1c0.4,2.8,0.3,5.7,0.5,8.6
	c0.4,5.1,0.8,10.2,1.2,15.3c0.2,3.2,0.4,6.4,0.7,9.6c0.2,2.2,0.3,4.5,0.7,6.7c0.4,2,1.7,3.5,3.8,3.9c4.1,0.7,8.2,1.4,12.3,1.8
	c9.5,1,19,2.5,28.4,4.2c29.4,5.3,57.8,13.5,84.8,26.5c18.2,8.8,35.2,19.6,50,33.4c23.9,22.2,39.2,49.4,46.1,81.3
	C859.1,513.9,860.6,528.1,860.1,541.4z M562.8,444.1c-14.4,0-28.7-0.3-43.1,1.2c-9.5,1-19.2,0-28.6,2c-0.3,0.1-0.6,0.1-1,0
	c-8-0.2-15.9,1.6-23.8,2.6c-9.8,1.2-19.5,3.3-29.2,5.3c-19.1,4.1-37.7,9.7-55.6,17.6c-19.7,8.7-37.8,20-53.2,35.4
	c-20.7,20.7-32.3,45.6-35.9,74.5c-0.2,1.3-0.2,2.6-0.2,3.8c0.1,1.6,0,3.3,1.8,4.1c1.3,0.6,2.5,0.1,3.6-0.6c1.6-1,3.2-2.1,4.8-3.2
	c4.5-3,9-6.1,13.7-8.8c11.4-6.6,23.2-12.2,36.2-14.7c20.7-4,40.1-1.5,57.5,11.2c3.4,2.4,6.6,5,9.7,7.8c6.6,6.1,12.3,13,17.2,20.5
	c0.9,1.3,1.9,2.5,3,3.6c0.4,0.4,1.3,0.5,1.7,0.3c0.5-0.2,0.9-1,0.9-1.6c0.1-1.3,0-2.6-0.2-3.8c-6.5-29.9-13.1-59.9-19.7-89.8
	c-1.2-5.6-2.4-11.2-3.5-16.9c-0.4-2.2,0.4-3.7,2.6-4.5c1.2-0.5,2.4-0.9,3.6-1.3c7.4-1.9,14.8-3.9,22.3-5.6
	c9.7-2.1,19.5-3.3,29.3-4.6c15-2,30-1.4,45-1c1.6,0,3.1,0.5,4.6,1c1.6,0.5,2.8,1.7,3,3.4c0.8,7.3,1.6,14.6,2.3,21.9
	c0.9,10.2,1.7,20.4,2.5,30.6c0.1,1.6,0.5,3.2,0.7,4.7c0.3,2.2,0.5,4.4,0.7,6.7c0.8,10.2,1.7,20.4,2.5,30.6c0.1,1.3,0.4,2.5,0.5,3.8
	c0.3,2.9,0.6,5.7,0.9,8.6c0.9,10.2,1.7,20.4,2.6,30.5c0.1,1,0.3,1.9,0.4,2.8c0.3,2.9,0.6,5.7,0.9,8.6c0.9,10.2,1.7,20.4,2.6,30.6
	c0.1,0.6,0.2,1.3,0.2,1.9c0.4,3.8,0.8,7.6,1.1,11.4c0.4,3.8,0.7,7.6,1.1,11.4c0.2,2.2,0.5,4.4,0.7,6.7c0.8,10.2,1.7,20.4,2.5,30.6
	c0.1,0.6,0.1,1.3,0.2,1.9c1,9.8,2.1,19.7,3,29.5c0.9,10.2,1.7,20.4,2.5,30.6c0,0.3,0,0.6,0.1,1c1.1,5.7,1.3,11.4,1.6,17.2
	c0.2,3.2,0.9,6.3,1.4,9.4c0.2,0.9,0.5,1.9,1.6,2.2c0.6,0.2,1.4-0.8,1.6-2c1-6.3,2.1-12.6,2.1-19c0-2.2,0.3-4.5,0.5-6.7
	c1-10.5,2.1-21,3.1-31.5c0.2-1.6,0.1-3.2,0.2-4.8c0.1-1.9,0.3-3.8,0.5-5.7c1-10.5,2.1-21,3.1-31.5c0.2-1.6,0.1-3.2,0.2-4.8
	c0.1-1.9,0.3-3.8,0.5-5.7c1-10.2,2.1-20.3,3.1-30.5c0.2-1.6,0.1-3.2,0.3-4.8c0.2-2.2,0.4-4.5,0.6-6.7c0.4-4.5,0.9-8.9,1.3-13.4
	c0.2-2.2,0.3-4.5,0.5-6.7c0.5-5.1,1-10.2,1.5-15.3c0.2-2.5,0.5-5.1,0.8-7.6c0.3-2.5,0.6-5.1,0.9-7.6c0.8-10.2,1.3-20.4,2.5-30.5
	c0.8-6.7,1.2-13.4,1.9-20c0.7-7.3,1.3-14.6,2-21.9c0.7-6.7,1.1-13.4,1.8-20c0.8-7.6,1.5-15.3,2-22.9c0.3-4.1,1-8.2,1.6-12.4
	c0.4-2.9,2-4.6,4.9-5.1c1.9-0.3,3.8-0.6,5.7-0.6c14.4-0.3,28.7-0.4,43.1,1.3c15.3,1.8,30.3,4.7,45.2,8.4c2.8,0.7,5.5,1.6,8.2,2.7
	c1.9,0.8,3.1,2.3,3,4.5c-0.1,1.9-0.2,3.8-0.6,5.7c-4,18.4-8.1,36.8-12.1,55.2c-3.4,15.3-6.7,30.6-10,45.8c-0.3,1.2-0.2,2.5,0,3.8
	c0.1,0.5,0.7,1.1,1.1,1.3c0.5,0.2,1.4,0,1.7-0.4c1.6-1.9,3.3-3.9,4.7-6c4.9-7.2,10.7-13.5,17.1-19.4c5.9-5.4,12.6-9.8,19.9-13.1
	c7.7-3.4,15.6-5.4,24.1-5.8c13-0.6,25.4,1.6,37.5,6.4c9.8,3.9,19.1,8.9,27.9,14.8c3.5,2.3,6.9,4.7,10.4,6.9c0.8,0.5,1.8,0.7,2.6,1
	c0.7,0.2,2.2-0.5,2.4-1.2c0.3-1.2,0.7-2.5,0.6-3.7c-0.2-2.9-0.8-5.7-1.2-8.5c-1.8-14.1-6.3-27.3-12.9-39.9
	c-8.4-15.8-19.9-28.9-33.7-40.1c-12.5-10.1-26.3-18-41-24.5c-14-6.2-28.6-11-43.5-14.7c-16.1-4-32.3-7.6-48.9-9
	c-1.3-0.1-2.5-0.5-3.8-0.6c-3.2-0.4-6.3-0.8-9.5-1.1c-2.2-0.2-4.5,0-6.7-0.5c-6.3-1.4-12.7-1.3-19.1-1.5c-3.8-0.1-7.7-0.3-11.5-0.6
	c-4.1-0.2-8.3-0.8-12.4-0.8C579.5,444,571.1,444.1,562.8,444.1z"/>
<path fill="url(#gradient)" d="M662.2,105.9c-0.5,1-0.7,2.1-1.3,2.7c-1.7,1.9-3.4,3.8-5.3,5.6c-10.1,9.7-20.3,19.4-30.5,29.1c-19.2,18.3-38.3,36.7-57.5,55
	c-1.2,1.1-2.3,2.2-3.5,3.3c-1.2,1.1-3,1-4.3-0.2c-1.2-1.1-2.4-2.1-3.5-3.2c-18.5-17.7-36.9-35.4-55.4-53
	c-10.6-10.2-21.3-20.3-31.9-30.5c-1.8-1.8-3.6-3.6-5.3-5.5c-1.3-1.5-1.7-3.5-1.2-5.4c0.7-2.4,1.6-4.9,2.6-7.2
	c7.7-18.1,18.1-34.4,31.4-49c15-16.4,32.1-30.2,51.5-41.1c3.6-2,7.3-3.9,11.1-5.7c2.1-1.1,4.3-0.9,6.5,0.1c1.4,0.7,2.9,1.4,4.3,2.1
	c28.9,15.4,53.5,35.9,72.3,63c7.9,11.3,14.5,23.3,19,36.4C661.6,103.5,661.9,104.8,662.2,105.9z"/>
</svg>