<?xml version="1.0" encoding="UTF-8" standalone="no"?>
<!DOCTYPE svg PUBLIC "-//W3C//DTD SVG 1.1//EN" "http://www.w3.org/Graphics/SVG/1.1/DTD/svg11.dtd">
<svg width="100%" height="100%" viewBox="0 0 800 977" version="1.1" xmlns="http://www.w3.org/2000/svg" xmlns:xlink="http://www.w3.org/1999/xlink" xml:space="preserve" xmlns:serif="http://www.serif.com/" style="fill-rule:evenodd;clip-rule:evenodd;stroke-linejoin:round;stroke-miterlimit:2;">
	<defs>
		<linearGradient id="gradient" x1="0%" y1="0%" x2="0%" y2="100%">
  <stop offset="0%" stop-color="#3d5ff7" />
  <stop offset="65%" stop-color="#e99331" />
  <stop offset="100%" stop-color="#dc3939" />
</linearGradient>
	</defs>
    <g transform="matrix(1,0,0,1,-100.448488,-11.848437)" fill="url(#gradient)">
        <g transform="matrix(0.799011,0,0,0.799011,205.838057,279.836773)">
            <path d="M637.4,280.2C639.1,281.7 640.6,283.3 642.4,284.5C673.3,306.7 697.4,334.9 716.5,367.7C731.4,393.3 741.8,420.7 749.2,449.3C752.9,463.5 755.6,477.9 757.5,492.5C759.9,510.9 761.3,529.3 761.2,547.9C761.2,551.4 761.2,554.9 761.3,558.4C761.3,559.6 761.7,560.9 762.1,562.1C762.3,562.6 762.9,563.1 763.5,563.2C764,563.3 764.9,563.2 765.2,562.8C766.4,561.3 767.5,559.7 768.4,558.1C773.3,549.1 777.3,539.7 780.8,530.1C788.5,509 793.6,487.3 797,465.2C800.8,440.7 801.2,416.2 800.1,391.6C799.7,382.1 798.4,372.5 797.2,363C794.7,343.6 790.5,324.6 785.3,305.8C779,283 770.9,260.8 761.2,239.2C754.7,224.6 747.7,210.3 739.8,196.3C739,195 738.7,193.4 738.2,191.9C738.2,191.8 738.8,191.4 738.9,191.5C739.7,191.9 740.6,192.3 741.3,192.9C753.7,202.6 764.8,213.7 775,225.5C791.1,244.2 804.9,264.5 816.8,286.2C831.4,312.6 842.9,340.3 851.5,369.2C856.3,385.1 860.1,401.2 862.8,417.7C864.7,429.4 865.9,441.1 867,452.9C867.9,462.8 868.3,472.7 868.2,482.6C868.1,487.7 867.7,492.8 867.4,497.9C867.3,499.8 867.1,501.7 867,503.6C864.8,544.5 855.4,583.8 840.3,621.8C822.1,667.4 796.2,708.2 763.3,744.6C724.4,787.6 678.5,821.2 626.2,845.9C600.4,858.1 573.7,867.6 546,874.3C530.5,878.1 514.9,881.4 499,882.9C489.6,885.3 479.9,884.2 470.5,886.2C468.3,886.7 466,886.4 463.8,886.4L419.7,886.4C415.9,886.4 412,886.3 408.3,885.4C407.1,885.1 405.8,884.9 404.5,884.9C396.1,885 388,883.3 379.7,882.4C371.8,881.5 363.9,880 356.1,878.4C336.1,874.2 316.4,868.8 297.1,861.9C252.4,846 211.7,823.1 174.6,793.5C134.7,761.6 101.9,723.5 76.2,679.4C56.4,645.8 42.2,610 33.1,572.2C30.1,559.8 27.6,547.2 26,534.6C24.8,525.4 23.7,516.2 23.3,507C22.6,487.5 22.5,468 23.7,448.5C24.1,441.5 24.9,434.5 26,427.6C27.9,415.6 30.1,403.7 33.1,391.9C41.5,358.5 54.7,327.1 72.7,297.7C80.9,284.4 90.4,271.9 100.1,259.5C118.3,236.4 137.2,213.8 157.8,192.8C165.6,184.8 173.9,177.3 182.3,169.9C207.1,148.2 232.1,126.8 257,105.2C276.3,88.4 295.3,71.3 313.8,53.7C330.9,37.3 347.2,20.2 362.7,2.3C376.1,-13.2 388.5,-29.5 398.9,-47.2C415.3,-74.9 427.1,-104.5 434.2,-135.9C436.4,-145.6 438.3,-155.3 439.4,-165.1C440.6,-175.6 442.1,-186 441.9,-196.6C441.8,-205.6 442,-214.5 441.7,-223.5C441.6,-228.6 441,-233.7 440.5,-238.8C439.9,-245.5 439.2,-252.1 438.3,-258.8C435.3,-280.7 430.4,-302.1 423.6,-323.1C422.9,-325.2 422,-327.3 421.5,-329.5C421.1,-331.3 421.1,-333.3 420.9,-335.2L420.7,-335.3C422.3,-333.7 423.8,-332.1 425.5,-330.6C434.6,-322.3 441.6,-312.5 447.8,-301.9C454.9,-289.7 460.7,-276.9 465.5,-263.7C472.6,-244.1 477.9,-224.1 481.2,-203.5C482.9,-193.1 484.1,-182.6 485.3,-172.2C487.6,-152.1 486.8,-132 486.5,-111.9C486.4,-107.1 485.3,-102.4 485.1,-97.6C484.9,-89.9 483.5,-82.3 482.4,-74.8C480.6,-62.8 478.1,-50.9 475.1,-39.1C468.2,-11.7 458.3,14.6 445.2,39.6C434.4,60.3 421.9,80 408.4,99.1C392.9,121.1 376.2,142.1 358.4,162.2C352.3,169.1 345.8,175.8 339.4,182.5C328.6,193.8 317.8,205.2 307.8,217.3C290.3,238.6 274.6,261.1 261.2,285.2C251.3,302.8 243.2,321.2 236.4,340.2C230.3,357.4 226.1,375.1 223.4,393.1C221.7,404.6 221.9,416 222,427.5C222,428.8 222.3,430 222.5,431.3C222.9,433.5 225.2,435.1 227.5,434.7C233.4,433.5 239.4,432.3 245.3,431C280.8,423 316.3,415 351.8,407C361.5,404.8 371.1,402.8 380.8,400.6C383.3,400 385.8,399.4 388.2,398.6C396.9,395.4 402.7,389.3 405.2,380.4C407.5,372.1 409.1,363.6 411,355.2C415.2,335.9 419.4,316.5 423.6,297.2C429,272.2 434.5,247.3 439.9,222.3C442,212.6 444,202.9 446.1,193.3C446.4,191.8 447.1,190.3 447.6,188.8C449.3,189.4 449.5,190.8 449.8,191.9C451.8,200.9 453.8,210 455.7,219C459.7,237.7 463.7,256.5 467.7,275.2C472.7,298.3 477.8,321.4 482.8,344.5C484.9,354.2 486.9,363.9 489,373.5C489.5,375.7 490,377.9 490.7,380C493.6,389.5 499.5,396.2 509.2,399C513.5,400.2 517.8,401.3 522.2,402.3C546.8,407.8 571.5,413.2 596.1,418.7C619.8,424 643.5,429.3 667.1,434.6C669.6,435.2 672.1,435.4 674.7,435.6C676.6,435.8 678.4,434.3 678.8,432.3C679,431 679.4,429.8 679.4,428.5C679.4,421.8 679.9,415 679.2,408.4C678.3,399.8 677.8,391.2 676.5,382.7C673.9,365.9 669.5,349.6 663.7,333.7C658.2,318.6 651.1,304.4 642.6,290.8C641.3,288.6 639.8,286.5 638.7,284.2C638.2,283.1 638.2,281.7 637.9,280.5L637.4,280.2ZM466.5,659C473.6,658 481.2,657.4 488.8,656C508.7,652.4 527.9,646.3 546.1,637.5C582.6,619.8 612.2,594.1 635.4,561C655.7,532 668.6,499.9 675.3,465.3C675.6,463.7 675.7,462.1 675.7,460.5C675.8,458.3 674.4,456.6 672.4,456.8C670.2,457 667.9,457.2 665.8,457.6C656.1,459.7 646.5,462 636.9,464.2C614.8,469.1 592.7,474 570.5,478.9C554.3,482.5 538.1,486 521.9,489.6C517.5,490.6 513.2,491.7 508.9,492.9C499.5,495.6 493.9,502.1 490.8,511.1C490,513.5 489.4,516 488.9,518.5C486.8,528.2 484.8,537.9 482.7,547.5C477.7,570.6 472.6,593.7 467.6,616.8C465.3,627.4 463,638 460.7,648.6C460.3,650.5 460,652.4 459.9,654.3C459.8,656.6 461.1,658.3 464,658.6C464.7,658.9 465.3,658.9 466.5,659ZM430.3,658.6C431.4,658.5 432,658.5 432.6,658.5C434.6,658.4 436.2,656.7 436,654.7C435.9,653.1 435.8,651.5 435.5,650C432.9,637.8 430.2,625.7 427.6,613.5C421.3,584.5 415,555.5 408.7,526.4C407.6,521.4 406.6,516.4 405.1,511.5C402.4,502.7 396.8,496.5 388,493.4C385.6,492.6 383.1,491.9 380.6,491.4C363.8,487.6 347,483.8 330.2,480.1C299.4,473.2 268.5,466.3 237.7,459.4C234.9,458.8 232,458.4 229.2,458C227.9,457.8 226.1,459.7 226.1,461.1C226.1,462.1 226.1,463 226.3,464C226.9,467.1 227.4,470.3 228.2,473.4C237.2,510.6 252.8,544.6 276.9,574.5C313.1,619.3 359.5,647.2 416.5,657C421.1,657.7 425.9,658.1 430.3,658.6Z" style="fill-rule:nonzero;"/>
        </g>
        <g transform="matrix(0.799011,0,0,0.799011,205.838057,279.836773)">
            <path d="M12.6,748.9C12,748.8 11.6,748.9 11.5,748.8C8,746 4.4,743.3 1,740.4C-25.5,718 -49,692.8 -69.1,664.6C-91.1,633.7 -108.3,600.2 -119.1,563.7C-123.1,550.2 -126.2,536.6 -128.4,522.6C-129.7,514.4 -129.9,506.1 -131.4,497.9C-131.8,496 -131.6,494.1 -131.7,492.2C-131.8,488.4 -131.9,484.5 -131.9,480.7C-131.8,468.6 -132,456.4 -130.4,444.3C-129.2,435.1 -128.1,425.9 -126.5,416.8C-123.7,400.4 -119.4,384.4 -114.3,368.5C-108.9,351.8 -102.4,335.4 -94.9,319.5C-85.4,299.5 -73.9,280.8 -61,262.8C-47.4,243.8 -32.6,225.8 -17,208.4C2.4,186.7 23.1,166.2 44.3,146.3C61.8,129.9 79.8,114.1 98,98.5C120.3,79.3 142.1,59.6 163.3,39.2C175.5,27.4 187.2,15.2 198.7,2.7C208.7,-8.1 217.9,-19.6 225.4,-32.3C230.8,-41.4 235.6,-50.7 238.7,-60.9C239,-61.8 239.4,-62.7 239.9,-63.5C240,-63.7 240.3,-63.9 240.6,-64.1C240.8,-64 241.2,-63.9 241.2,-63.7C241.6,-57.3 241.4,-51 240,-44.7C236.6,-29.5 229.7,-15.9 221.4,-2.9C212.5,11 202.5,24 192.5,36.8C172.2,62.7 150.9,87.8 129.7,113C101.6,146.6 73.7,180.3 47.9,215.7C30.2,240 13.5,265 -1.4,291.1C-17.1,318.7 -30.3,347.3 -39.9,377.6C-46.4,398 -51.5,418.8 -54.7,440C-56.3,450.4 -57.4,460.9 -58.6,471.3C-60.7,489.5 -60.1,507.7 -59.9,525.9C-59.9,531 -59.2,536.1 -58.8,541.2C-58.7,542.8 -58.5,544.4 -58.4,546C-57.6,559.4 -55.4,572.6 -53.1,585.8C-50.9,598.4 -48.1,610.8 -44.8,623.2C-39.1,644.2 -32,664.7 -23.2,684.6C-13.7,706.3 -2.2,726.9 11.5,746.4C11.9,747.1 12.2,747.9 12.6,748.9Z" style="fill-rule:nonzero;"/>
        </g>
        <g transform="matrix(0.799011,0,0,0.799011,205.838057,279.836773)">
            <path d="M630.2,226.1C629.4,224.8 628.7,224 628.5,223.2C624.4,204.5 620.4,185.8 616.4,167C615.7,163.6 615,160.1 614.1,156.7C611.3,146.3 604.8,139.4 594.7,136C593.2,135.5 591.7,135 590.1,134.6C569.9,130.1 549.6,125.6 529.4,121.1C526.3,120.4 523.2,119.7 520.1,118.9C519.7,118.8 519.4,118.1 519,117.7C519.4,117.3 519.8,116.8 520.3,116.6C522.8,115.9 525.2,115.3 527.7,114.7C547.6,110.2 567.6,105.8 587.5,101.3C589.4,100.9 591.2,100.4 593.1,99.9C604.7,96.7 611.6,89 614.4,77.5C615.8,71.6 617.1,65.7 618.4,59.7C621.9,43.8 625.3,27.9 628.8,12C628.9,11.4 629.4,10.6 629.8,10.5C631,10.3 631,11.5 631.3,12.3C631.7,13.2 632,14.1 632.2,15C636.2,33.4 640.1,51.8 644.1,70.3C644.7,73.1 645.4,75.9 646.1,78.7C648.5,88.4 654.7,94.9 663.7,98.8C666.3,99.9 669.2,100.5 672,101.2C692.6,105.8 713.2,110.3 733.7,114.9C735.8,115.4 737.9,116.4 739.9,117.2C740,117.2 740,117.8 739.9,118.1C739.8,118.4 739.6,118.7 739.3,118.8C737.2,119.5 735.1,120.3 732.9,120.8C712,125.4 691.2,130 670.3,134.6C664.6,135.9 659.3,138 654.9,142C650.3,146.2 647.1,151.2 645.8,157.4C643.4,168.6 640.8,179.8 638.3,191.1C636.1,201.1 634.1,211.1 631.9,221.1C631.5,222.6 630.9,224.1 630.2,226.1Z" style="fill-rule:nonzero;"/>
        </g>
        <g transform="matrix(0.799011,0,0,0.799011,205.838057,279.836773)">
            <path d="M420.9,-335.3L420.2,-335.1C420.2,-335.1 420.6,-335.4 420.7,-335.4L420.9,-335.3Z" style="fill-rule:nonzero;"/>
        </g>
        <g transform="matrix(0.799011,0,0,0.799011,205.838057,279.836773)">
            <path d="M637.7,280.4L637.1,280.7C637.1,280.7 637.5,280.3 637.5,280.2C637.4,280.2 637.7,280.4 637.7,280.4Z" style="fill-rule:nonzero;"/>
        </g>
    </g>
</svg>