<?xml version="1.0" encoding="utf-8"?>
<!-- Generator: Adobe Illustrator 25.1.0, SVG Export Plug-In . SVG Version: 6.00 Build 0)  -->
<svg version="1.1" id="Layer_1" xmlns="http://www.w3.org/2000/svg" xmlns:xlink="http://www.w3.org/1999/xlink" x="0px" y="0px"
	 viewBox="0 0 1206.5 1268.4" style="enable-background:new 0 0 1206.5 1268.4;" xml:space="preserve">
	<defs>
		<linearGradient id="gradient" x1="0%" y1="0%" x2="100%" y2="0%">
  <stop offset="0%" stop-color="#e93131" />
  <stop offset="50%" stop-color="#6d0e0e" />
  <stop offset="100%" stop-color="#000000" />
</linearGradient>
	</defs>
<path fill="url(#gradient)" d="M830.7,0c-0.3,2.6-1.7,4.8-3,7c-12.8,21.7-20.9,45.1-26.3,69.6c-2.1,9.4-3.8,18.8-4.9,28.3c-1.1,9.5-2.5,19-2.5,28.6
	c0,11.5-0.1,23,0.1,34.5c0.1,5.1,0.7,10.2,1.1,15.3c0.1,1.6,0.4,3.2,0.5,4.8c0.8,13.4,2.9,26.7,5.2,39.9c2.9,16.4,5.7,32.7,8.6,49.1
	c3.5,19.2,7.1,38.3,10.6,57.5c2.8,15.4,5.5,30.8,8.2,46.2c2.9,16.3,6,32.7,8.9,49c2.2,11.9,4.3,23.9,6.4,35.8
	c1.7,9.4,3.6,18.8,5.2,28.3c1.7,9.9,5.2,19.1,9.6,28c13.5,27.1,34.1,46.8,61.9,58.9c12.7,5.5,25.8,9.3,39.5,11.3
	c9.8,1.4,19.6,2.8,29.5,3.7c8.3,0.8,16.5,2,24.8,2.9c9.2,1,18.4,1.8,27.7,2.7c7.6,0.7,15.3,1.3,22.9,2c10.2,0.9,20.4,1.8,30.6,2.7
	c1.3,0.1,2.5,0.3,3.8,0.3c12.4,0.8,24.9,1.7,37.3,2.4c13.4,0.7,26.8,1.4,40.2,1.8c11.2,0.4,20.4,4.8,27.9,12.9
	c0.6,0.7,1.1,1.5,1.7,2.3c0.5,0.7,0.2,2.3-0.5,2.6c-1.8,0.7-3.5,1.5-5.4,2c-19.1,5.1-38.2,10.2-57.4,15.2
	c-28.4,7.5-56.8,15-85.2,22.6c-33.6,8.9-67.3,17.8-100.9,26.7c-8.6,2.3-17.3,4.3-25.7,7.6c-21.9,8.6-41.8,20.6-60.3,35
	c-24.2,18.8-44.7,41.1-62.7,65.7c-18.9,25.9-34.5,53.7-47.7,83c-8.8,19.5-15.9,39.7-23,59.9c-15.1,43.1-29.6,86.4-43.7,129.9
	c-13.7,42.3-26.8,84.7-38.7,127.4c-5.3,19.1-10.7,38.1-15,57.5c-0.1,0.3-0.1,0.6-0.2,0.9c-2.2,7.2-2.1,8.7-9.3,3.7
	c-8.4-5.9-12.6-14.3-13.7-24.3c-1.1-10.8-2.2-21.6-3.7-32.4c-1.1-8.2-1.6-16.5-2.5-24.8c-0.9-8.3-2-16.5-2.9-24.7
	c-0.3-2.2-0.4-4.5-0.7-6.7c-0.8-6.7-1.6-13.3-2.4-20c0-0.3-0.2-0.7-0.4-0.9c-0.4-0.4-1-0.9-1.5-0.9c-0.5,0-1.4,0.4-1.5,0.8
	c-0.5,1.5-0.9,3-1.1,4.6c-1.2,10.1-2.3,20.3-3.4,30.5c-0.9,8.3-1.7,16.5-2.6,24.8c-0.8,7.3-1.5,14.6-2.3,21.9
	c-1.1,9.8-2.3,19.7-3.5,29.5c-1.3,11-7.1,18.9-16.4,24.5c-0.5,0.3-1.2,0.4-1.8,0.6c-1.1,0.4-2.8-0.4-3.1-1.6
	c-0.6-2.2-1.2-4.3-1.7-6.5c-5.8-25.2-12.8-50.1-20-75c-19.3-66.3-40.5-131.9-62.8-197.2c-7.9-23.3-16-46.5-24.3-69.7
	c-3.2-9-6.9-17.9-10.8-26.7C433,858,415.4,826.2,393.1,797c-15.2-19.9-32-38.2-51.3-54.2c-17.8-14.7-37-27.3-58.2-36.7
	c-9.1-4.1-18.4-7.2-28-9.7c-13.6-3.5-27.2-6.9-40.8-10.5c-20.4-5.4-40.7-11-61-16.4c-28.4-7.6-56.8-15-85.2-22.6
	c-20.7-5.5-41.3-10.9-62-16.4c-1.8-0.5-3.6-1.3-5.4-2c-1.1-0.4-1.5-2.3-0.9-3.3c0.2-0.3,0.3-0.6,0.5-0.8
	c6.8-8.4,15.6-13.1,26.4-13.7c12.8-0.7,25.5-1.2,38.3-1.9c6.7-0.3,13.4-0.8,20.1-1.3c3.2-0.2,6.4-0.4,9.6-0.6
	c4.8-0.3,9.6-0.6,14.4-0.9c5.1-0.4,10.2-0.7,15.3-1.2c10.8-1,21.6-2,32.5-3.1c8.6-0.8,17.2-1.6,25.8-2.5c9.9-1,19.7-2.1,29.5-3.2
	c7.6-0.8,15.2-1.7,22.9-2.6c16.3-1.9,32.2-5.2,47.3-11.6c38.4-16.4,63-44.8,73.6-85.2c1.4-5.2,2.2-10.6,3.2-16
	c3.1-17,6.2-33.9,9.2-50.9c3.5-19.8,6.9-39.6,10.5-59.4c3.5-19.2,7.2-38.3,10.6-57.5c3.6-19.8,7-39.6,10.5-59.4
	c2.2-12.3,4.6-24.5,6.5-36.8c1.2-7.9,2.7-15.8,2.9-23.8c0-1,0-1.9,0.2-2.9c1.8-9.5,1.6-19.1,1.7-28.7c0.1-8.6,0-17.3,0-25.9
	c-0.1-8-0.7-15.9-1.6-23.9c-1.1-9.5-2.5-19-4.2-28.4c-4.2-22.1-10.8-43.4-20.7-63.6c-3.2-6.6-6.6-13.2-11.3-18.9l0,0.2
	c3-0.6,5.7,0.2,8.4,1.3c10.6,4.6,20.6,10.2,29.6,17.4c15.7,12.5,28.1,27.8,37.9,45.3c11.8,21,20,43.5,25.8,66.8
	c3,12.1,5.4,24.3,7.1,36.6c1.1,7.9,2.7,15.8,2.6,23.8c0,0.6,0,1.3,0.1,1.9c2.5,17.2,1.8,34.4,1.9,51.7c0.1,7-0.2,14.1-0.5,21.1
	c-0.1,3.2-0.5,6.4-0.8,9.5c-0.1,1.3-0.4,2.5-0.5,3.8c-0.9,12.7-1.7,25.5-2.6,38.2c-0.2,3.2-0.5,6.4-0.8,9.5
	c-0.2,2.5-0.6,5.1-0.7,7.6c-0.4,7.7-1,15.3-1.7,22.9c-1.2,13-1.8,26.1-2.6,39.2c-0.1,2.2-0.4,4.5-0.6,6.7c-0.3,3.5-0.7,7-1,10.5
	c-0.4,6.7-0.2,13.4-1.5,20.1c-0.2,1.2-0.1,2.5-0.1,3.8c0,1.3,1.1,2.9,2,2.9c0.9,0,2.1-0.1,2.6-0.6c5.9-5.8,12.1-11.4,17.6-17.6
	c21.7-24.6,38.7-52.3,51.7-82.5c7.8-18.2,14.3-36.9,19-56.2c0.5-1.8,1.2-3.6,2-5.4c0.2-0.4,1-0.8,1.5-0.8c0.5,0,1.2,0.6,1.4,1
	c0.5,0.8,0.9,1.7,1.1,2.6c2.6,11.2,5.2,22.4,7.7,33.6c4.2,18.4,8.3,36.7,12.5,55.1c2.3,10.3,4.7,20.5,7.1,30.8
	c0.2,0.9,0.9,1.6,1.4,2.4c0.4,0.6,2.3,0.5,2.5-0.2c0.8-2.4,1.7-4.8,2.3-7.3c4.7-20.9,9.4-41.7,14.1-62.6
	c3.8-16.8,7.6-33.6,11.5-50.4c0.3-1.2,0.8-2.4,1.3-3.6c0.4-1.1,1.6-1.9,2.2-1.5c0.5,0.4,1.1,0.8,1.3,1.3c0.5,1.1,1,2.3,1.3,3.6
	c5.7,23.7,13.9,46.5,24.3,68.5c12.3,25.8,27.4,49.8,46.6,71.1c4.9,5.5,9.7,11.1,15.3,15.9c1.6,1.4,3.2,3.6,5.7,2.2
	c2-1.1,1.4-3.4,1.4-5.2c0-1.9,0-3.9-0.3-5.7c-1.3-7.3-1.3-14.6-1.6-22c-0.1-2.9-0.5-5.7-0.8-8.6c-0.3-3.5-0.6-7-0.9-10.5
	c-0.5-5.7-0.9-11.5-1.4-17.2c-0.2-2.5-0.4-5.1-0.5-7.6c-0.2-6.4-0.4-12.8-1.5-19.1c-0.4-2.5-0.3-5.1-0.5-7.6
	c-0.4-5.7-0.9-11.5-1.4-17.2c-0.2-2.9-0.3-5.7-0.5-8.6c-0.5-6-1-12.1-1.4-18.1c-0.2-2.9-0.3-5.7-0.5-8.6c-0.4-5.4-0.9-10.8-1.3-16.2
	c-0.2-3.2-0.5-6.4-0.5-9.6c0-14.1,0-28.1,0-42.2c0-3.2,0.4-6.4,0.7-9.5c0.2-2.2,0.7-4.4,0.7-6.7c0.1-9.3,1.4-18.5,2.7-27.6
	c4-29.5,10.8-58.4,22.5-85.9c6.5-15.4,14.5-29.9,24.9-43c9.8-12.4,20.9-23.3,34.2-31.8c6.2-4,12.8-7.3,19.5-10.3
	c2.4-1.1,4.8-1.7,7.4-2L830.7,0z M433.2,641c0,9.4,0.2,17.3,1.8,25.2c2.7,12.9,7,25.2,13.8,36.6c8.9,14.7,20.6,26.8,34.3,37
	c12.4,9.2,25.7,16.7,39.9,22.7c24.7,10.5,50.6,15.6,77.4,16.3c19,0.5,37.6-2.2,55.9-7.2c28.5-7.7,54.4-20.5,76.6-40.1
	c17.5-15.3,29.9-34,35.9-56.6c3.6-13.3,4.8-26.9,3.8-40.8c-1.3-17.4-5.3-34-11-50.4c-4.2-12.1-9.5-23.7-15.3-35.1
	c-2.9-5.7-5.9-11.3-9-16.9c-1.1-1.9-2.5-3.7-4-5.3c-0.5-0.6-1.8-1-2.6-0.8c-1.8,0.4-3.7,1.1-5.4,1.9c-5.8,2.7-11.5,5.5-17.3,8.2
	c-29.8,13.9-59.7,27.7-89.5,41.6c-1.2,0.5-2.3,1.1-3.4,1.8c-2.5,1.4-3.6,3.7-2.9,6.5c2.6,11.6,8.9,20.4,20,25.3
	c2,0.9,4.1,1.7,6.2,2.6c1.2,0.6,2.4,2.5,2.2,4c-0.2,1.6-0.5,3.2-0.9,4.7c-1.9,6.4-4,12.8-5.9,19.2c-9.4,30.9-18.7,61.7-28,92.6
	c-0.3,0.9-0.7,1.8-1.2,2.6c-0.3,0.5-0.8,1.1-1.3,1.1c-0.5,0-1.2-0.5-1.4-1c-2.1-6.4-4.1-12.8-6-19.2c-9.6-31.5-19.1-62.9-28.8-94.4
	c-2.6-8.4-2-8.8,5.9-11.7c11-4.1,17.4-12.5,20.8-23.5c0.5-1.5,0.4-3.2,0.4-4.7c0-1.3-0.6-2.6-1.7-3.2c-3.1-1.7-6.2-3.3-9.4-4.8
	c-15.9-7.4-31.9-14.8-47.8-22.2c-18-8.4-35.9-16.7-53.9-25.1c-1.7-0.8-3.5-1.5-5.4-2c-1.3-0.4-2.6,0-3.5,1.1
	c-1.2,1.5-2.3,3.1-3.3,4.7c-6,9.9-11.2,20.1-15.9,30.6c-5.9,13.1-11.1,26.5-14.5,40.5C435.3,615.8,432.6,628.9,433.2,641z"/>
<path fill="url(#gradient)" d="M472.5,1104.1c0.5,1.9-0.4,2.9-1.9,2.7c-1.9-0.3-3.8-0.5-5.6-1.1c-66.8-19.4-127.4-50.7-181.4-94.8
	c-48.1-39.2-87.7-85.7-119.1-139.1c-23.1-39.3-40.7-81-53-124.9c-4-14.2-7.1-28.5-10.2-42.8c-0.1-0.6-0.1-1.3-0.2-1.9
	c-0.1-1.3,1.8-3,3.2-2.8c0.9,0.1,1.9,0.2,2.8,0.4c12,3.1,24.1,6.3,36.1,9.5c30.6,8.1,61.1,16.2,91.7,24.3c6.2,1.6,12.3,3.4,18.5,4.9
	c3.7,0.9,6.4,2.7,7.7,6.4c0.5,1.5,1.3,2.9,1.9,4.4c16.2,37.6,38.4,71.4,65.7,101.9c21.2,23.7,45.3,44.2,71.9,61.6
	c2.4,1.6,4.8,3.2,7.2,4.8c2.2,1.5,3.8,3.4,4.7,5.9c0.4,1.2,0.9,2.4,1.3,3.6c19,57.3,38,114.6,57,171.9
	C471.5,1100.8,472.1,1102.6,472.5,1104.1z"/>
<path fill="url(#gradient)" d="M733.3,1107.2c-0.3-3.3,0.6-5.4,1.3-7.5c14.3-42.7,28.6-85.4,42.9-128.1c4.7-13.9,9.1-27.9,13.6-41.9
	c0.6-1.8,1.3-3.6,1.8-5.5c0.8-3,2.6-5,5.1-6.7c6.6-4.5,13.3-8.9,19.8-13.5c44.3-31.8,79.8-71.6,107-118.8
	c6.9-11.9,12.9-24.3,18.4-36.9c0.8-1.8,1.5-3.6,2.3-5.3c0.9-1.8,2.1-3.2,4.1-3.7c2.2-0.6,4.3-1.3,6.4-1.9
	c44.8-11.8,89.5-23.7,134.3-35.5c3.7-1,7.4-1.8,11.2-2.6c1-0.2,2.7,1.2,2.7,2.2c0,1.6,0.1,3.2-0.2,4.7c-7,34.9-17.1,68.8-30.9,101.6
	c-20.4,48.7-47.2,93.5-81.1,134c-37.5,44.7-81.2,82.3-131.4,112.1c-33.4,19.8-68.5,35.7-105.6,47.3c-4.9,1.5-9.7,3.1-14.6,4.5
	C738.3,1106.4,736.1,1106.7,733.3,1107.2z"/>
<path fill="url(#gradient)" d="M92.8,561c0.4-3.8,0.8-7.6,1.2-11.4c0.2-1.6,0.5-3.2,0.6-4.8c1-15.3,3.6-30.4,6.7-45.5c5.9-29.2,14.3-57.6,25.7-85.2
	c16.2-39.3,37.6-75.5,64.3-108.5c27.4-33.7,59-62.9,94.9-87.4c5-3.4,10.1-6.7,15.2-10c0.8-0.5,1.8-0.7,2.7-0.9
	c0.2-0.1,0.7,0.1,0.8,0.3c0.3,0.5,0.7,1.3,0.5,1.7c-1.4,2.1-2.8,4.3-4.5,6.2c-11.5,12.9-22.2,26.4-32.4,40.4
	c-17.4,23.8-32.8,48.8-45.5,75.4c-10.4,22-19,44.7-24.4,68.5c-1.8,7.8-3.3,15.6-4.7,23.5c-0.6,3.4-1.3,6.9-0.1,10.4
	c0.1,0.4,1,0.8,1.5,0.8c0.6-0.1,1.2-0.5,1.5-1c1.8-2.6,3.6-5.2,5.4-7.9c20.1-31.4,43.2-60.3,70.2-86c18.2-17.3,37.9-32.4,60-44.3
	c1.7-0.9,3.4-1.7,5.2-2.3c0.4-0.2,1.3,0.2,1.6,0.7c0.4,0.4,0.7,1.3,0.5,1.7c-1.1,1.9-2.2,3.9-3.6,5.6
	c-10.6,13.2-20.3,27.2-29.3,41.5c-27.1,43.1-46.9,89.3-58.6,138.9c-2.6,10.9-4.4,21.9-6.4,32.9c-2.2,11.9-4.3,23.9-6.3,35.8
	c-0.4,2.1-1.6,3.4-3.6,4.1c-2.4,0.9-4.9,1.3-7.5,1.6c-8.9,0.8-17.7,2-26.6,3.3c-5.7,0.9-11.4,1.2-17.1,2.1
	c-7.2,1.2-14.6,1.6-21.9,2.5c-7.3,0.9-14.5,2-21.8,3c-1.3,0.2-2.5,0.4-3.8,0.5c-8.9,0.8-17.7,2-26.6,3.4c-3.4,0.5-7,0.3-10.5,0.4
	c-1.3,0-3.1-1.9-3.1-3.2c-0.1-2.2,0-4.5,0-6.7C93,561,92.9,561,92.8,561z"/>
<path fill="url(#gradient)" d="M1112.5,557.1c0,4.9,0.1,7.8,0,10.6c0,1.3-1.9,3.1-3.2,3.2c-3.5,0.4-7,0.1-10.5-0.4c-8.5-1.2-17.1-2.2-25.6-3.3
	c-7.3-0.9-14.5-1.9-21.8-2.9c-1.3-0.2-2.5-0.5-3.8-0.6c-9.8-0.9-19.6-2.2-29.4-3.7c-7.3-1.1-14.6-1.5-21.9-2.5c-6-0.8-12-1.9-18-2.2
	c-1.5-0.1-3.1-0.9-4.5-1.5c-1.9-0.8-3.1-2.3-3.5-4.3c-0.9-5-1.5-10.1-2.5-15.1c-2.9-15.7-5.8-31.4-8.9-47
	c-4.7-23.6-12.1-46.3-21-68.6c-16.7-41.9-38.9-80.5-66.7-116c-1.9-2.5-4.4-4.7-5.3-7.9c-0.1-0.3,0-0.7,0.2-0.9
	c0.4-0.4,0.9-0.9,1.4-1.1c0.6-0.1,1.3,0,1.8,0.3c2.6,1.3,5.1,2.6,7.6,4c20.2,11.4,38.4,25.3,55.2,41.2
	c28.3,26.7,52.4,56.8,73.1,89.7c1.3,2.1,2.3,4.6,4.6,6c0.6,0.4,2.3,0,2.5-0.7c0.2-0.6,0.6-1.2,0.5-1.8c-0.4-4.1-0.8-8.3-1.5-12.4
	c-5.2-30.1-14.7-58.8-27.8-86.4c-16.8-35.4-38-68-62.6-98.5c-6-7.5-12.4-14.7-18.5-22c-0.8-1-1.5-2-2.1-3.2
	c-0.2-0.4,0.3-1.1,0.6-1.6c0.1-0.2,0.6-0.4,0.8-0.3c1.5,0.6,3,1,4.3,1.9c10.6,6.6,20.8,13.8,30.7,21.4c18.1,13.8,35.2,28.7,51,45
	c29.3,30.3,54,63.9,73.6,101.3c18.4,35,31.8,71.8,40.6,110.3c2.8,12.4,5.4,25,6.8,37.7c0.9,7.6,2.2,15.2,3.1,22.8
	C1112.4,551.4,1112.4,555.3,1112.5,557.1z"/>
<path fill="url(#gradient)" d="M578,143c-0.3-10.3,1.1-20.3,3.7-30.3c4.2-16.2,10.4-31.5,17.9-46.3c0.4-0.8,1.1-1.6,1.6-2.4c0.7-1,2.5-0.9,3.3,0.2
	c0.4,0.5,0.8,1,1.1,1.5c9.7,18.1,16.8,37.2,20.8,57.4c1.2,6.2,1.5,12.7,2.1,19c0.1,1.3,0.1,2.6,0,3.8c-1.3,10.4-2.3,20.9-4.3,31.3
	c-5.2,26.3-12,52.2-18.6,78.2c-0.4,1.5-1.2,2.9-1.9,4.3c-0.1,0.2-0.5,0.3-0.8,0.3c-0.3,0-0.7-0.1-0.8-0.3c-0.9-2.4-1.9-4.7-2.5-7.2
	c-5.9-22.5-11.8-45.1-16.4-67.9c-2.3-11.2-4.7-22.5-5.1-34C578,148.1,578,145.6,578,143z"/>
<path fill="url(#gradient)" d="M373.8,0.8l0.4-0.4c0,0-0.4,0.5-0.4,0.5C373.8,1,373.8,0.8,373.8,0.8z"/>
<path fill="url(#gradient)" d="M831,0.3c0,0-0.2-0.2-0.2-0.3C830.7,0,831,0.3,831,0.3z"/>
<path fill="url(#gradient)" d="M708.9,659.3c0.3-10.6-1.5-21-4.7-31.1c-3.5-10.9-9.4-20.2-17.7-28c-1.6-1.5-3.2-3.1-4.8-4.7c-0.8-0.8-0.4-2.9,0.6-3.4
	c7.7-3.9,15.3-7.8,23-11.6c1.3-0.6,3.4,0,4.4,1.2c1.2,1.5,2.4,3,3.4,4.6c6.9,11.6,12.1,23.8,14.1,37.3c0.8,5.7,1.5,11.4,1.5,17.1
	c0,8.7-1.5,17.1-3.7,25.5c-3.8,14.7-10.8,27.9-19.5,40.2c-0.4,0.5-0.9,1-1.4,1.2c-0.5,0.2-1.3,0.3-1.8,0.1c-0.5-0.2-0.9-1-0.9-1.5
	c0-1.3,0-2.6,0.4-3.8c3.5-10.3,4.9-21.1,6.4-31.8C708.8,667,708.7,663.2,708.9,659.3z"/>
<path fill="url(#gradient)" d="M498.9,580.5c0.6,0,1,0,1.3,0.1c8.5,3.7,16.8,7.8,24.6,12.6c0.3,0.2,0.6,1.4,0.3,1.7c-0.8,1-1.7,1.9-2.7,2.7
	c-13.2,10.8-20.6,25-23.7,41.5c-1.7,8.8-2.6,17.7-1.7,26.7c1.3,12.1,2.9,24.1,6.5,35.7c0.6,2.1,1.6,4.2,0.9,6.5
	c-0.1,0.2-0.4,0.5-0.6,0.6c-0.3,0.1-0.7,0.2-0.9,0.1c-0.6-0.3-1.2-0.6-1.5-1c-11-14.4-18.5-30.5-22.3-48.3
	c-1.2-5.6-1.5-11.4-2.1-17.1c-0.1-0.9-0.1-1.9-0.1-2.9c0.9-18.8,5.4-36.6,15.5-52.7c1.2-1.9,2.7-3.6,4.2-5.2
	C497.2,580.9,498.3,580.8,498.9,580.5z"/>
</svg>