<?xml version="1.0" encoding="utf-8"?>
<!-- Generator: Adobe Illustrator 25.1.0, SVG Export Plug-In . SVG Version: 6.00 Build 0)  -->
<svg version="1.1" id="Layer_1" xmlns="http://www.w3.org/2000/svg" xmlns:xlink="http://www.w3.org/1999/xlink" x="0px" y="0px"
	 viewBox="0 0 1083 1222.5" style="enable-background:new 0 0 1083 1222.5;" xml:space="preserve">
	<defs>
		<linearGradient id="gradient" x1="0%" y1="0%" x2="100%" y2="0%">
  <stop offset="0%" stop-color="#7f95f8" />
  <stop offset="50%" stop-color="#bc4fee" />
  <stop offset="100%" stop-color="#440369" />
</linearGradient>
	</defs>
<g fill="url(#gradient)">
<path d="M775.4,430c0.7,6.4,0.2,12.7-1.4,19c-1.1,4-1.6,8.1-2.4,12.2c-0.8,4.2-2.7,7.7-5.6,10.9c-9,10-17.9,20.1-26.8,30.1
	c-25.5,28.6-51,57.3-76.6,85.9c-17.7,19.8-35.4,39.6-53,59.4c-24.5,27.4-48.9,54.9-73.4,82.4c-12.3,13.8-24.7,27.6-37.1,41.5
	c-6,6.7-11.9,13.3-17.9,20.1c-1.5,1.7-2.8,3.5-4,5.3c-0.4,0.7-0.5,2-0.1,2.7c1.2,2.2,2.5,4.4,4.1,6.5c6.8,8.9,13.6,17.8,20.4,26.7
	c14.2,18.5,28.2,37.2,42.7,55.5c4.1,5.2,6.1,10.4,4.2,16.8c-0.4,1.2-0.4,2.5-0.6,3.8c-0.8,8.9-1.6,17.8-2.5,26.7
	c-0.9,8.9-2,17.8-3.1,26.6c-0.8,6.3-1.1,12.7-1.9,19.1c-0.9,6.9-1.5,14-2.3,21c-1.2,11.1-2.2,22.2-3.5,33.3
	c-1.1,8.9-1.7,17.8-2.6,26.7c-0.7,6.7-1.3,13.3-2,20c-1,8.6-2.1,17.1-3,25.7c-1,8.9-1.7,17.8-2.6,26.7c-0.4,4.1-1.2,8.2-1.5,12.4
	c-0.9,11.5-2.5,22.9-3.6,34.3c-0.8,8.3-1.9,16.5-2.7,24.8c-0.2,2.1-1.3,3.6-3.1,4.5c-0.6,0.3-1.1,0.6-1.7,0.8
	c-8.9,3.6-17.8,7.1-26.7,10.6c-0.6,0.2-1.2,0.3-1.9,0.5c-1.9,0.5-3.4-0.2-3.7-1.9c-0.6-3.1-1.3-6.2-1.7-9.4
	c-1.2-8.5-2.2-17.1-3.3-25.7c-0.7-5.7-1.5-11.4-2.2-17.1c-1.5-12.4-2.9-24.7-4.4-37.1c-0.9-7.3-2-14.5-3-21.8
	c-0.8-6-1.6-12-2.3-18.1c-1.5-12.7-2.9-25.4-4.5-38.1c-1.6-12.4-3.4-24.7-4.9-37c-0.9-7.3-1.6-14.6-2.5-21.9
	c-1-7.6-2.1-15.2-3.1-22.8c-0.8-5.7-1.5-11.4-2.2-17.1c-0.9-7.3-1.6-14.6-2.4-21.9c-0.6-5.4-1.4-10.8-2-16.2
	c-0.5-4.2-1.9-8-4.8-11.2c-6.4-7.1-12.6-14.5-18.9-21.7c-23.3-26.8-46.7-53.5-70-80.2c-2.7-3.1-5.3-6.4-7.9-9.6
	c-0.8-1.1-0.8-2.4,0-3.6c1.2-1.8,2.5-3.7,3.9-5.4c40.1-49.8,80.2-99.6,120.4-149.4c25.3-31.4,50.5-62.8,75.8-94.1
	c32.9-40.8,65.8-81.6,98.7-122.5c3-3.7,6-7.5,8.8-11.3c1.5-2,1.2-4.1-0.7-6c-0.9-0.9-1.8-1.8-2.8-2.7
	c-17.2-15.2-34.5-30.5-51.8-45.7c-13.2-11.6-26.3-23.3-39.5-35c-13.6-12.1-27.3-24.2-41-36.2c-2.2-1.9-4.4-3.6-6.8-5.3
	c-1.1-0.8-2.5-0.8-3.6,0c-1.8,1.2-3.6,2.6-5.2,4.1c-13.1,12.2-26.2,24.4-39.3,36.6c-13.8,12.8-27.7,25.7-41.5,38.5
	c-2.8,2.6-5.6,5.2-8.3,7.9c-2.7,2.7-2.9,4.7-0.6,7.5c1,1.2,2.1,2.4,3.1,3.6c10.2,11,20.4,22.1,30.6,33.1c1.5,1.6,3.1,3.3,4.7,4.8
	c2.6,2.5,4.5,2.6,7.7,0.6c1.9-1.2,3.7-2.5,5.5-3.8c14.5-10,29-20,43.5-29.9c7.4-5.1,7.7-5.1,13.5,1.2c9.5,10.3,19,20.8,28.5,31.2
	c1.4,1.6,1.6,3.5,0.5,5.3c-0.3,0.6-0.7,1.1-1,1.6c-1.1,1.6-2.1,3.2-3.2,4.8c-20.4,30.6-40.8,61.1-61.3,91.7c-0.9,1.3-1.8,2.6-2.7,4
	c-2.1,3.4-4.8,5.8-8.6,7.2c-4.5,1.7-8.8,3.7-13.2,5.6c-0.9,0.4-1.8,0.7-2.7,1c-2.3,0.6-4.4,0.2-6.3-1.2c-1.5-1.2-3-2.3-4.5-3.5
	c-21.4-16.7-42.9-33.4-64.3-50.1c-37.1-28.9-74.1-57.8-111.2-86.7c-1.3-1-2.5-2-3.8-2.9c-4-2.6-4.8-6-4.2-10.7
	c1.4-10.4,2.5-20.9,4-31.4c1-7.3,1.6-14.6,2.5-21.9c1.2-9.8,2.6-19.6,3.9-29.4c0.2-1.7,1.1-3,2.3-4.1c1.4-1.3,2.9-2.5,4.4-3.7
	c31.9-26.1,63.8-52.3,95.7-78.4c37.3-30.6,74.7-61.2,112-91.8c6.4-5.3,12.9-10.5,19.4-15.7c1.7-1.4,3.3-1.4,5.3,0
	c2.1,1.4,4.2,3,6.2,4.5c82,61.7,164,123.4,246,185.1c2.6,1.9,5.1,3.8,7.6,5.9c1.5,1.2,2.5,2.9,2.8,4.9c0.7,5.1,1.4,10.1,1.5,15.3
	c0.2,10.2,0.2,20.5,1.6,30.6c0.4,2.8,0.2,5.7,0.3,8.6c0.3,8.9,0.3,17.9,1.5,26.8c0.3,2.5,0.3,5.1,0.4,7.7c0.3,9.9,0.3,19.8,1.6,29.7
	C775.7,423.5,775.4,426.8,775.4,430z"/>
<path d="M193.2,409.5c-1.8,3-3.5,6.1-5.4,9c-15.3,23.6-29.2,48.1-41.1,73.6c-15.7,33.7-28.3,68.4-36.9,104.6
	c-3.7,15.5-6.6,31.2-8.9,47c-1.1,7.9-2.5,15.8-2.6,23.8c-0.1,4.5-1.2,8.9-1.3,13.3c-0.8,20.1-0.7,40.3,0,60.4
	c1.4,9.2,1.6,18.4,3,27.6c1.3,9.2,2.6,18.3,4.4,27.4c2.5,12.5,5.4,25,9.5,37.1c0.5,1.5,1.3,2.9,2.1,4.2c0.2,0.4,1.1,0.7,1.6,0.6
	c0.5-0.1,0.9-0.8,1.1-1.3c0.3-0.9,0.4-1.9,0.4-2.8c-0.3-12.2,0.8-24.3,1.4-36.4c0.5-9.6,1.5-19.1,2.8-28.6c2-15.5,5.1-30.9,9.2-46
	c8.5-31,20.7-60.4,37.9-87.6c19-30,42.4-56,71-77.1c5.4-4,11.1-7.5,16.7-11.3l-0.2-0.1c0,1.6-0.4,3.1-1.3,4.5
	c-1.8,2.7-3.5,5.3-5.3,8c-17.4,26.2-28.7,54.8-35,85.5c-4.3,20.8-5.6,41.8-4,63c2,26.3,8,51.7,18.2,76.1c12,28.7,29.1,54,50.5,76.3
	c15.6,16.2,33.3,29.9,52.6,41.4c19.6,11.7,40.3,20.7,62.4,26.7c1.8,0.5,3.7,1.1,5.5,1.6c3.6,1,5.3,3.5,5.7,6.9
	c0.8,6.7,1.5,13.3,2.3,20c0.9,7.6,2,15.2,3,22.8c0.8,5.7,1.6,11.4,2.3,17.1c0.9,7.3,1.6,14.6,2.5,21.9c0.9,7.6,2,15.2,3,22.8
	c0.8,5.7,1.5,11.4,2.2,17.1c1.5,12.4,2.9,24.7,4.4,37.1c0.9,7.3,2,14.5,3,21.8c0.8,5.7,1.5,11.4,2.2,17.1
	c1.5,12.7,2.9,25.4,4.4,38.1c0.9,7.3,2.1,14.5,3,21.8c0.4,2.8,0.3,5.7,0.4,8.6c0,1.1-1.4,2.5-2.6,2.3c-6-0.6-12.1-0.2-18.1-1.7
	c-1.8-0.5-3.8-0.6-5.7-0.7c-3.5-0.2-7-0.4-10.4-1.3c-0.6-0.2-1.3-0.2-1.9-0.3c-7.9-0.8-15.9-1.5-23.8-2.4c-7.9-0.9-15.8-2-23.7-3
	c-1.9-0.2-3.8-0.5-5.7-0.6c-3.5-0.2-7-0.5-10.4-1.3c-2.2-0.5-4.4-0.5-6.7-0.7c-3.2-0.4-6.3-0.7-9.5-1.1c-1-0.1-1.9-0.4-2.8-0.4
	c-5.4-0.3-10.8-1.4-16.2-1.8c-8-0.5-15.9-1.8-23.8-2.7c-7.9-1-15.9-1.1-23.7-2.9c-1.9-0.4-3.8-0.5-5.7-0.6c-3.5-0.1-7-0.4-10.4-1.3
	c-1.5-0.4-3.2-0.5-4.8-0.6c-3.8-0.2-7.6-0.4-11.4-1.3c-1.8-0.5-3.8-0.5-5.7-0.6c-3.5-0.2-7-0.3-10.4-1.2c-0.6-0.2-1.3-0.3-1.9-0.3
	c-7.9-0.8-15.9-1.6-23.8-2.5c-3.2-0.4-6.3-1.1-9.5-1.4c-7.9-0.9-15.9-1.5-23.8-2.5c-6-0.7-12-1.4-18-2.2c-5.7-0.7-11.4-1.5-17.1-1.8
	c-1.2-0.1-2.6-0.3-3.3-1.9c2.5-0.5,5-0.9,7.4-1.4c1.3-0.2,2.5-0.4,3.8-0.6c14.3-1.9,28.5-3.8,42.8-5.6c16.8-2.2,33.6-4.2,50.4-6.4
	c12-1.6,24-3.4,36.1-5c7-0.9,14-1.6,20.9-2.5c3.8-0.5,7.6-1.3,11.3-2c1-0.2,1.8-0.9,1.7-1.9c-0.1-0.9-0.5-1.9-1.1-2.5
	c-3.4-2.9-7.3-5.1-11.4-6.9c-12.8-5.8-25.5-11.8-37.9-18.4c-31.7-17-61.1-37.2-88.3-60.8c-31.1-27-58.2-57.5-80.7-92
	c-24.7-37.8-42.7-78.5-53.3-122.4C7.4,825,5,812.1,3.4,799.1C1,780-0.4,761,0.1,741.7c0.1-3.5,0.5-7,0.8-10.5
	c0.2-1.9,0.5-3.8,0.7-5.7c0.9-14.7,3.8-29.1,7.2-43.4c7.2-30.6,18.2-59.9,31.8-88.2c15.1-31.5,33.1-61.3,54.1-89.2
	c15.4-20.5,32.1-39.8,50.7-57.5c13-12.4,26.5-24.1,41.3-34.3c2.1-1.5,4.1-3.1,6.8-3.3L193.2,409.5z"/>
<path d="M710.4,621.5c2.2,0.9,3.6,2.6,4.7,4.6c3.8,7.4,7.8,14.7,11.3,22.2c9,19.5,16.2,39.6,21.2,60.5c3.1,13,5.7,26.2,7.4,39.5
	c2.8,21.6,3.9,43.3,3.3,65c-0.1,2.6-0.3,5.1-0.6,7.6c-0.2,2.2-0.6,4.4-0.7,6.7c-0.4,11.2-1.9,22.3-3.5,33.3
	c-0.1,0.9,0.1,1.9,0.2,2.8c0.1,0.7,1.6,1.6,2.2,1.3c0.9-0.4,1.9-0.7,2.5-1.3c2.8-3,5.7-6,8.3-9.3c11.9-14.8,20.9-31.4,28.2-48.8
	c7.4-17.8,12.1-36.3,15-55.4c1.5-10.2,1.7-20.4,2.7-30.5c0.6-6,0.4-12.1-0.5-18.2c-0.2-1.3-0.3-2.5-0.4-3.8
	c-1.2-29-7.5-56.9-16.4-84.4c-7-21.6-15.8-42.5-25.8-62.9c-4-8-3.9-7.5,2-14.1c12.8-14.2,25.6-28.6,38.4-42.9
	c1.1-1.2,2.1-2.4,3.2-3.6c2.3-2.7,4-5.7,4.6-9.3c1-5.3,2.3-10.6,3.6-15.9c0.1-0.5,0.7-1,1.1-1.4c0.4-0.4,1.8,0.1,2.4,1
	c0.6,0.8,1.2,1.5,1.7,2.3c1.6,2.4,3.2,4.8,4.8,7.2c19.1,28.4,37.3,57.3,55.9,86.1c8.3,12.9,16.4,25.9,23.2,39.7
	c13.2,26.8,22.9,54.7,28.8,84.1c2.1,10.7,3.3,21.5,5,32.2c0.4,2.2,0.2,4.5,0.4,6.7c0.5,7,1.1,14,1.3,21c0.2,6.4,0.1,12.8-0.1,19.2
	c-0.1,4.5-0.7,8.9-0.9,13.4c-1.1,27.6-6.1,54.5-13.6,81.1c-15.1,53.4-41,101.1-75.8,144.1c-3.2,4-6.7,7.8-10,11.7
	c-6,7.1-12,14.1-18,21.2c-16.5,19.6-34.7,37.5-54,54.4c-19.2,16.9-39.4,32.6-60.4,47.2c-1.6,1.1-3.3,2-4.2,3.8
	c-0.3,0.7,0.1,2.4,0.7,2.5c3.7,0.8,7.4,1.8,11.2,2.3c8.2,1.2,16.5,2.2,24.7,3.2c12.4,1.6,24.7,3.1,37.1,4.8
	c11.7,1.5,23.4,3.2,35.1,4.7c12.4,1.6,24.7,3.2,37.1,4.8c9.5,1.3,19,2.6,28.7,3.9c-0.6,0.7-0.9,1.4-1.4,1.5
	c-1.9,0.4-3.8,0.6-5.6,0.8c-3.8,0.5-7.6,0.9-11.4,1.3c-2.2,0.2-4.4,0.4-6.7,0.7c-2.9,0.3-5.7,0.7-8.6,1.1c-2.2,0.3-4.4,0.5-6.6,0.8
	c-3.5,0.4-7,0.8-10.5,1.2c-1.9,0.2-3.8,0.5-5.7,0.7c-3.5,0.4-7,0.8-10.5,1.2c-2.2,0.3-4.4,0.5-6.7,0.7c-3.2,0.4-6.3,0.7-9.5,1.1
	c-2.2,0.3-4.4,0.5-6.6,0.8c-3.5,0.4-7,0.8-10.5,1.2c-1.9,0.2-3.8,0.5-5.7,0.7c-3.5,0.4-7,0.9-10.5,1.3c-2.2,0.3-4.4,0.5-6.7,0.7
	c-2.9,0.3-5.7,0.6-8.6,0.9c-2.9,0.3-5.7,0.7-8.5,1.1c-3.8,0.5-7.6,1.2-11.4,1.6c-7.9,0.9-15.9,1.5-23.8,2.4
	c-8.2,0.9-16.4,2.2-24.7,3.2c-7.6,0.9-15.2,1.6-22.8,2.4c-2.5,0.3-5.1,0.6-7.6,0.9c-2.2,0.3-4.4,0.6-6.6,0.9
	c-3.5,0.4-7,0.9-10.4,1.3c-2.2,0.3-4.4,0.4-6.7,0.7c-3.2,0.4-6.3,0.8-9.5,1.1c-2.5,0.3-5.1,0.5-7.6,0.8c-2.9,0.3-5.7,0.7-8.6,1
	c-2.5,0.3-5.1,0.6-7.6,0.9c-2.9,0.3-5.7,0.7-8.6,1c-2.2,0.3-4.4,0.6-6.6,0.8c-3.8,0.5-7.6,0.9-11.4,1.4c-3.5,0.5-7,0.9-10.5,0.2
	c-1-0.2-2.4-1.5-2.6-2.6c-0.6-3.5-0.2-7,0.2-10.5c0.5-4.4,1-8.9,1.4-13.3c0.7-7,1.3-14,2.1-21c1-8.6,2.1-17.1,3-25.7
	c0.9-8.9,1.6-17.8,2.6-26.7c0.9-8.9,2-17.8,3-26.6c0.1-1,0.3-1.9,0.4-2.9c0.8-8.6,1.5-17.2,2.4-25.8c0.9-8.9,2.1-17.8,3.1-26.6
	c0.9-8.9,1.7-17.8,2.6-26.7c0.8-7.6,1.6-15.2,2.3-22.9c0.5-4.8,1-9.5,1.5-14.3c0.9-8.3,1.9-16.5,2.8-24.7c0.4-3.2,0.6-6.4,0.9-9.5
	c0.2-2.5,0.3-5.1,0.8-7.6c1.6-8.3,0.6-7.5,8.1-11.8c15.6-9,30.1-19.3,43.6-31.2c20.6-18.1,37.5-39.2,51.3-62.9
	c12.9-22,21.8-45.5,27.6-70.2c2.4-10.3,4.3-20.6,5-31.2c0.3-5.1,1.1-10.2,1.4-15.3c0.8-15.4-1.3-30.6-4.4-45.7
	c-1.3-6.2-3.1-12.4-4.7-18.6C712.9,627.2,712.2,624.1,710.4,621.5L710.4,621.5z"/>
<path d="M831.6,364c2-0.2,3.8,0.3,5.5,1.1c4.6,2.3,9.2,4.5,13.6,7c37,20.5,71.6,44.5,103.1,72.8c25.7,23.2,48.8,48.7,68.1,77.6
	c14.4,21.6,26.2,44.6,35.1,69c8.2,22.5,14.8,45.6,19.2,69.1c2.1,11.3,3.6,22.7,4.9,34.1c2.4,20.7,1.9,41.5,1.2,62.2
	c-0.3,8.9-1.7,17.8-2.9,26.6c-1.9,14.3-5.3,28.2-8.9,42.1c-4.3,16.4-10.3,32.2-17.2,47.7c-15.2,34.4-35.4,65.7-59.8,94.3
	c-14.8,17.3-30.8,33.2-48.3,47.8c-1.7,1.4-3.6,2.7-5.4,4c0,0,0.2,0.1,0.2,0.1c0-2.7,1.6-4.8,3-6.9c9.3-14.2,17-29.3,24.2-44.6
	c8.9-18.8,16.1-38.2,22.3-58.1c6.2-19.8,11.2-39.9,14.8-60.4c1.9-10.7,3.5-21.4,4.9-32.2c1.2-9.2,1.5-18.4,2.8-27.6
	c0.6-4.1,0.6-8.3,0.6-12.4c0.1-15,0.1-30,0-45c0-6.1-0.2-12.1-1.3-18.1c-0.1-0.6-0.2-1.3-0.2-1.9c-0.4-11.2-2.3-22.2-3.8-33.3
	c-1.9-13.6-4.6-27-7.7-40.4c-12.3-53-33.3-102.5-62.3-148.5c-22-35-47.3-67.4-75.8-97.4c-8.1-8.6-16.3-17.1-25.1-25
	c-1.6-1.5-3.5-2.7-5.2-4.1C831.4,363.8,831.6,364,831.6,364z"/>
<path d="M356.9,0c1.8,2.3,2,4.9,2.7,7.3c5.4,19,14.4,36.1,27.3,51.1c10.3,12,22.6,21.5,36.6,29c5.6,3,11.6,5.4,17.3,8
	c1.4,0.7,2.9,1.3,4.2,2.2c0.3,0.2,0.6,1.4,0.4,1.6c-1.5,1.6-3,3.3-4.7,4.7c-11.6,9.5-23.2,19-34.8,28.5c-4.2,3.4-8.4,6.9-12.6,10.2
	c-3.2,2.5-4.1,2.4-7.6,0c-0.8-0.6-1.6-1.1-2.3-1.7c-20-16.3-32.8-37-38.3-62.4c-2.3-10.4-2.2-20.9-2-31.4C343.5,31,348,16.2,355,2
	C355.4,1.3,356.2,0.7,356.9,0z"/>
<path d="M710.3,621.4C710.5,621.2,710.3,621.5,710.3,621.4C710.4,621.5,710.3,621.4,710.3,621.4z"/>
<path d="M831.4,363.8l0.3-0.4c0,0-0.1,0.7-0.1,0.7C831.6,364,831.4,363.8,831.4,363.8z"/>
<path d="M193.4,409.7c0,0-0.2-0.3-0.2-0.3C193.2,409.5,193.4,409.7,193.4,409.7z"/>
<path d="M257.9,546.9l0.4,0.4c0,0-0.6-0.4-0.6-0.4S257.9,546.9,257.9,546.9z"/>
<path d="M936.8,1021c1.1-0.5,2.2-0.9,3.3-1.4c0,0-0.2-0.1-0.2-0.1c-1,0.4-1.9,0.8-2.9,1.2L936.8,1021z"/>
<path d="M937,1020.7l0.2,0.6c0,0-0.4-0.3-0.4-0.3C936.8,1021,937,1020.7,937,1020.7z"/>
  </g>
</svg>